<svg version="1.1" xmlns="http://www.w3.org/2000/svg" viewBox="0 0 248.96 50" fill="#333"><path d="M205.3,27.13c0.1,0.77,0.23,1.71,0.66,2.47c-0.12-0.57-0.32-2.01-0.25-2.81c0.07-0.86,0.49-0.38,0.69,0.17c0.37,1.02,0.35,2.8,1.66,4.95c-0.54,0.09-1.74-0.19-1.8-1.41c-0.09,0.29-0.11,0.75,0.15,0.98c-0.47-0.09-1.07-0.64-1.06-1.46c-0.08,0.15-0.11,0.31-0.1,0.45c-0.7-0.91-1.09-1.87-0.87-3.03c0.07-0.38,0.22-0.73,0.45-0.97c0.1-0.11,0.2-0.12,0.26-0.09C205.25,26.46,205.28,26.95,205.3,27.13z M214.48,24.47c-0.94-0.29-1.16-0.07-0.33,0.59c1.53,1.22,3.15,2.11,4.89,2.92c-1.72-0.42-3.29-1.29-5.16-2.47c-0.84-0.53-1.62-0.73-0.67,0.56c0.46,0.62,1.16,1.23,2,1.75c-0.03-0.2-0.02-0.39,0.08-0.59c-0.01,0.86,0.82,1.19,1.23,1.29c-0.08-0.27-0.1-0.53-0.04-0.76c0.27,1.19,1.99,1.66,2.79,1.65c-0.44-0.19-0.83-0.56-0.91-0.93c1.3,1.31,3.77,1.46,5.03,0.24c-0.72-0.15-1.4-0.38-2.05-0.67C219.11,27.08,216.7,25.17,214.48,24.47z M217.63,22.03c-0.72-0.11-1.29-0.13-1.71-0.08c-0.7,0.08-0.6,0.24-0.06,0.45c2.19,0.83,5.62,1.69,7.44,1.84c-1.91,0.12-5.38-0.54-7.73-1.39c-0.24-0.09-0.9-0.34-0.54,0.26c0.05,0.09,0.11,0.17,0.19,0.26c0.12,0.15,0.28,0.3,0.47,0.45c1.5,1.19,5.34,2.2,7.12,2.11c-0.43-0.22-0.77-0.55-0.92-0.9c2.22,1.48,6.31,1.19,7.62,0.36c-0.3-0.05-0.56-0.15-0.75-0.33c1.1,0.24,1.99,0.04,2.62-0.54c-0.42,0.04-0.98-0.07-1.31-0.22c1.11,0.07,2.09-0.21,2.72-1.17C228.51,24.57,222.02,22.69,217.63,22.03z M216.05,19.59c-0.6,0.4-0.73,0.59-0.67,0.61c0.06,0.02,0.34-0.13,0.82-0.31c2.64-0.98,6.04-0.67,7.62-0.38c-2.29-0.02-4.97-0.02-7.22,0.81c-0.69,0.25-0.53,0.18,0.04,0.2c2.64,0.08,7.18,1.7,10.49,1.34c-0.61-0.25-1.37-0.73-1.7-1.13c3.78,1.78,8.12,0.82,8.83,0.13c-0.45-0.22-0.85-0.48-1.18-0.75c1.7,0.83,3.22,0.51,4.3-0.66c-1.05,0.18-2.12,0.12-2.95-0.1c1.52,0.09,3.86-0.19,4.57-2.08C234.46,19.53,220.28,16.79,216.05,19.59z M215.42,17.56c-0.43,0.7-0.33,0.59,0.15,0.2c2.36-1.89,6.67-2.22,8.48-2.1c-2.6,0.25-6.39,0.92-8.4,2.68c-0.36,0.31-0.14,0.31,0.48,0.07c2.6-0.98,6.5-1.25,10.01-1.32c-0.18-0.11-0.34-0.2-0.5-0.37c3.57,0.88,9.74,0.05,10.63-0.63c-0.52-0.2-0.96-0.48-1.27-0.84c2.79,1,6.27-0.18,7.72-1.82c-1.12,0.48-2.88,0.4-3.78,0.1c2.66,0.04,5.57-1.07,6.64-4.22c-1.53,1.15-8.46,3.35-14.04,4.05C224.34,14.29,217.23,14.6,215.42,17.56z M248.94,0c-3.98,4.44-13.52,7.43-19.83,8.63c0.3-0.12,1.29-0.89,1.43-1.68c-1.46,1.53-10.18,3.28-12.73,4.04c-4.01,1.2-8.11,2.95-8.22,5.53c-0.04,0.89,0.37,1.85,1.3,2.89c1.22,1.35,0.73,2.68-1.41,3.28c-1.2,0.34-2.85,0.6-4.19,1.17c-2.07,0.88-3,2.52-2.07,4.69c0.3-3.33,3.03-3.62,5.71-3.95c1.93-0.24,4.14-0.67,5-2.14c0.96-1.64-0.17-3.08-0.27-4.59c-0.13-1.98,2.14-3.51,3.65-3.87c-0.8,0.44-1.69,1.18-2.23,2.05c-0.31,0.49-0.12,0.21,0.31-0.13c4.94-3.89,17.3-2.29,21.62-5.12c-0.41-0.08-0.73-0.31-1.03-0.49c2.76,0.42,6.85-1.24,8.03-2.32c-0.83,0.18-1.64,0.11-2.35-0.13C245.24,7.93,249.3,3.83,248.94,0z M208.81,26.17c-0.45-0.31-0.5-0.03-0.4,0.35c0.26,0.99,0.54,1.95,0.9,2.81c-0.59-0.69-0.96-1.85-1.35-2.58c-0.19-0.37-0.35-0.51-0.45-0.27c-0.29,0.7-0.08,2.13,0.32,2.77c0.05-0.19,0.11-0.32,0.26-0.44c-0.39,0.91,0.52,1.68,1.2,2.23c0.01-0.19,0.08-0.39,0.19-0.58c-0.19,1.11,1.5,1.68,2.2,1.55c-0.91-1.2-1.28-3.78-2.35-5.3C209.17,26.48,208.99,26.29,208.81,26.17z M212.45,26.42c-0.16-0.17-1.01-1.01-1.17-0.84c-0.06,0.06-0.03,0.25,0.16,0.64c0.38,0.79,0.79,1.48,1.3,2.16c-0.66-0.48-1.2-1.19-1.73-2.06c-0.37-0.61-0.55-0.43-0.59-0.09c-0.13,0.96,0.68,2.28,1.61,3.11c0.27,0.25,0.56,0.46,0.87,0.66c-0.2-0.27-0.3-0.65-0.22-0.97c0.17,1.51,2.72,2.02,3.5,1.84C215.22,30.22,213.74,27.77,212.45,26.42z M33.68,27.23c0.09,0.19,0.11,0.39,0.08,0.58c0.83-0.52,1.53-1.12,2-1.75c0.95-1.29,0.17-1.09-0.67-0.56c-1.87,1.18-3.44,2.04-5.16,2.47c1.74-0.81,3.36-1.7,4.89-2.91c0.83-0.66,0.6-0.89-0.33-0.59c-2.22,0.7-4.63,2.61-6.86,3.58c-0.65,0.28-1.33,0.52-2.05,0.67c1.26,1.22,3.74,1.07,5.03-0.24c-0.08,0.37-0.47,0.74-0.91,0.93c0.81,0,2.52-0.47,2.79-1.65c0.06,0.23,0.04,0.49-0.04,0.76C32.86,28.42,33.69,28.1,33.68,27.23z M38.55,26.23c-0.05-0.34-0.22-0.52-0.59,0.09c-0.53,0.87-1.07,1.58-1.73,2.06c0.51-0.67,0.92-1.37,1.3-2.16c0.19-0.39,0.22-0.58,0.16-0.64c-0.17-0.17-1.01,0.67-1.17,0.84c-1.29,1.36-2.77,3.8-3.72,4.44c0.78,0.18,3.33-0.33,3.5-1.84c0.08,0.32-0.02,0.7-0.22,0.97c0.3-0.19,0.6-0.41,0.87-0.66C37.86,28.5,38.68,27.18,38.55,26.23z M23.54,20.73c-0.33,0.39-1.08,0.87-1.7,1.13c3.31,0.36,7.85-1.27,10.49-1.34c0.57-0.02,0.72,0.06,0.04-0.19c-2.25-0.83-4.93-0.83-7.22-0.81c1.59-0.29,4.99-0.6,7.62,0.38c0.47,0.18,0.75,0.33,0.82,0.31c0.06-0.02-0.08-0.21-0.67-0.61c-4.24-2.8-18.41-0.06-22.95-2.33c0.71,1.9,3.05,2.18,4.57,2.08c-0.83,0.22-1.9,0.28-2.95,0.1c1.08,1.17,2.6,1.49,4.3,0.66c-0.33,0.27-0.73,0.53-1.18,0.75C15.42,21.55,19.76,22.51,23.54,20.73z M26.17,25.94c1.78,0.09,5.62-0.92,7.12-2.11c0.19-0.15,0.35-0.3,0.47-0.45c0.08-0.09,0.14-0.18,0.19-0.26c0.35-0.6-0.3-0.35-0.55-0.26c-2.36,0.85-5.82,1.51-7.73,1.39c1.82-0.15,5.25-1.01,7.44-1.84c0.54-0.2,0.64-0.37-0.06-0.45c-0.43-0.05-0.99-0.03-1.72,0.08c-4.39,0.65-10.88,2.54-15.14,1.12c0.64,0.96,1.61,1.24,2.72,1.17c-0.34,0.15-0.89,0.26-1.31,0.22c0.63,0.58,1.52,0.78,2.62,0.54c-0.18,0.18-0.45,0.28-0.75,0.33c1.31,0.83,5.4,1.12,7.62-0.36C26.94,25.39,26.6,25.72,26.17,25.94z M13.96,15.27c-0.3,0.36-0.75,0.64-1.27,0.84c0.88,0.68,7.06,1.51,10.63,0.63c-0.16,0.17-0.32,0.26-0.5,0.37c3.51,0.06,7.42,0.34,10.02,1.32c0.61,0.23,0.83,0.24,0.48-0.07c-2.01-1.76-5.79-2.44-8.4-2.68c1.81-0.12,6.12,0.21,8.48,2.1c0.48,0.39,0.58,0.5,0.15-0.2c-1.81-2.96-8.92-3.27-16.12-4.18c-5.58-0.7-12.51-2.9-14.04-4.05c1.07,3.15,3.98,4.26,6.64,4.22c-0.89,0.31-2.66,0.38-3.78-0.1C7.69,15.09,11.17,16.27,13.96,15.27z M88.34,42.03c0.26,0.23,0.39,0.55,0.39,0.94c0,0.17-0.04,0.34-0.13,0.51c-0.08,0.17-0.19,0.34-0.31,0.52c-0.12,0.18-0.25,0.36-0.39,0.53c-0.14,0.18-0.26,0.35-0.35,0.52c-0.24,0.43-0.48,0.79-0.7,1.07c-0.22,0.28-0.52,0.53-0.9,0.76c-0.26,0.15-0.49,0.32-0.67,0.51c-0.34,0.32-0.68,0.58-1.04,0.79c-0.36,0.21-0.71,0.38-1.07,0.53c-0.36,0.15-0.69,0.27-1,0.37c-0.31,0.09-0.58,0.17-0.8,0.22c-1.29,0.36-2.63,0.53-4.02,0.53c-0.43,0-0.88-0.03-1.34-0.08c-0.46-0.06-0.89-0.19-1.31-0.39c-0.11-0.06-0.23-0.08-0.37-0.08c-0.49-0.04-0.97-0.16-1.46-0.37c-0.49-0.21-0.97-0.39-1.46-0.56c-0.39-0.13-0.78-0.29-1.17-0.48c-0.38-0.19-0.77-0.38-1.15-0.59c-0.38-0.21-0.77-0.41-1.15-0.6c-0.38-0.2-0.77-0.38-1.17-0.55c-0.08-0.02-0.2-0.1-0.37-0.24c-0.17-0.14-0.36-0.31-0.56-0.51c-0.21-0.2-0.42-0.4-0.63-0.6c-0.22-0.21-0.39-0.38-0.52-0.51c-0.15-0.13-0.33-0.23-0.53-0.31c-0.21-0.08-0.39-0.11-0.56-0.11c-0.24,0-0.49,0.11-0.73,0.34c-0.24,0.22-0.49,0.49-0.73,0.79c-0.24,0.3-0.48,0.59-0.7,0.87c-0.22,0.28-0.43,0.49-0.62,0.62c-1.01,0.77-2.02,1.42-3.04,1.97c-1.01,0.54-2.19,0.95-3.54,1.21c-0.67,0.15-1.34,0.25-2,0.29C51.6,49.98,50.92,50,50.23,50c-0.19,0-0.37-0.01-0.55-0.03c-0.18-0.02-0.36-0.03-0.55-0.03c-0.06,0.02-0.12,0.03-0.18,0.03c-0.07,0-0.13,0-0.18,0c-0.92,0-1.7-0.13-2.33-0.39c-0.64-0.26-1.22-0.5-1.74-0.7c-1.01-0.38-1.92-0.98-2.73-1.83c-0.81-0.84-1.41-1.78-1.8-2.81c-0.21-0.51-0.33-1.07-0.38-1.7c-0.05-0.63-0.07-1.18-0.07-1.64c0-0.83,0.14-1.64,0.42-2.46c0.28-0.82,0.7-1.52,1.26-2.12c0.3-0.3,0.45-0.66,0.45-1.07c0-0.32-0.05-0.68-0.15-1.08c-0.1-0.4-0.21-0.82-0.32-1.27c-0.08-0.32-0.16-0.64-0.24-0.97c-0.08,0-0.16,0-0.23-0.02c0.06-0.1,0.1-0.19,0.16-0.29c0-0.02-0.01-0.03-0.01-0.05c-0.1-0.44-0.15-0.87-0.15-1.28c0-0.26,0.04-0.52,0.11-0.77c0.04-0.13,0.07-0.25,0.08-0.38c-0.05-0.14-0.11-0.24-0.23-0.33c0.39,0.92-0.52,1.69-1.2,2.24c-0.01-0.19-0.08-0.39-0.19-0.58c0.19,1.11-1.5,1.68-2.2,1.55c0.91-1.2,1.28-3.78,2.35-5.3c0.17-0.24,0.35-0.43,0.53-0.55c0.45-0.31,0.5-0.03,0.4,0.36c-0.26,0.99-0.54,1.95-0.9,2.81c0.59-0.69,0.96-1.85,1.35-2.58c0.19-0.37,0.35-0.51,0.45-0.26c0.01,0.02,0.01,0.05,0.02,0.08c0.06-0.19,0.13-0.38,0.2-0.56c0.15-0.37,0.33-0.73,0.51-1.07c-0.69-0.15-1.42-0.24-2.15-0.33c-1.93-0.24-4.14-0.67-5-2.14c-0.96-1.64,0.17-3.08,0.27-4.59c0.13-1.98-2.14-3.51-3.65-3.87c0.8,0.44,1.68,1.18,2.23,2.05c0.31,0.49,0.12,0.21-0.31-0.13c-4.94-3.89-17.3-2.29-21.62-5.12c0.41-0.08,0.73-0.3,1.02-0.49c-2.76,0.42-6.85-1.24-8.03-2.32c0.83,0.18,1.64,0.11,2.35-0.13C3.72,7.93-0.34,3.83,0.02,0C4,4.44,13.54,7.43,19.85,8.63c-0.3-0.12-1.29-0.89-1.43-1.68c1.46,1.53,10.18,3.28,12.73,4.04c4.01,1.2,8.11,2.95,8.22,5.53c0.04,0.89-0.37,1.85-1.3,2.89c-1.22,1.35-0.73,2.68,1.41,3.28c1,0.28,2.32,0.51,3.51,0.92c0.01-0.02,0.02-0.04,0.04-0.05c0.15-0.19,0.29-0.4,0.44-0.63c0.14-0.23,0.29-0.46,0.45-0.69c0.16-0.23,0.34-0.44,0.53-0.63c0.2-0.2,0.42-0.35,0.66-0.46c0.22-0.09,0.45-0.26,0.67-0.49c0.22-0.23,0.5-0.41,0.82-0.52c0.36-0.11,0.68-0.27,0.97-0.48c0.29-0.21,0.64-0.35,1.05-0.42c0.15-0.02,0.3-0.07,0.45-0.17c0.6-0.36,1.28-0.58,2.04-0.67c0.76-0.09,1.49-0.14,2.18-0.14c0.3,0,0.59,0,0.87-0.01c0.28-0.01,0.53-0.06,0.76-0.14c0.23-0.08,0.4-0.21,0.53-0.39c0.13-0.18,0.2-0.43,0.2-0.74c0-0.09-0.01-0.19-0.04-0.3c-0.03-0.1-0.04-0.21-0.04-0.32c0-0.19,0.03-0.38,0.08-0.58c0.06-0.2,0.08-0.4,0.08-0.6c0-0.26-0.02-0.56-0.07-0.9c-0.05-0.34-0.17-0.57-0.38-0.7c-0.15-0.09-0.28-0.21-0.38-0.34c-0.1-0.13-0.15-0.24-0.15-0.34c0-0.04,0.04-0.1,0.11-0.18c0.07-0.08,0.16-0.13,0.25-0.13c0.19,0,0.37,0.03,0.55,0.1c0.18,0.07,0.36,0.1,0.55,0.1c0.24,0,0.48-0.03,0.72-0.08c0.23-0.06,0.47-0.08,0.72-0.08c0.09,0,0.2,0,0.32,0.01c0.12,0.01,0.24,0.03,0.35,0.06c0.11,0.03,0.21,0.08,0.3,0.14c0.08,0.07,0.13,0.15,0.13,0.27c0,0.11-0.04,0.21-0.13,0.29c-0.08,0.08-0.18,0.17-0.3,0.27c-0.11,0.09-0.21,0.2-0.29,0.32c-0.08,0.12-0.13,0.28-0.13,0.46c0,0.49-0.01,0.97-0.03,1.43c-0.02,0.47-0.03,0.95-0.03,1.43c0,0.34,0.14,0.57,0.41,0.69c0.27,0.12,0.59,0.18,0.97,0.18c0.51,0,1.02-0.01,1.55-0.03c0.52-0.02,1.03-0.05,1.52-0.08c0.37-0.04,0.63-0.18,0.77-0.44c0.14-0.25,0.21-0.59,0.21-1v-0.84c0.02-0.09,0.03-0.22,0.03-0.39c0-0.15,0-0.32-0.01-0.52c-0.01-0.2-0.03-0.38-0.06-0.56c-0.03-0.18-0.08-0.35-0.14-0.51c-0.07-0.16-0.16-0.27-0.29-0.32c-0.09-0.04-0.19-0.08-0.28-0.14c-0.09-0.06-0.14-0.16-0.14-0.31c0-0.13,0.04-0.23,0.13-0.28c0.08-0.06,0.19-0.09,0.32-0.1c0.13-0.01,0.27-0.01,0.41,0c0.14,0.01,0.27,0.01,0.38,0.01c0.17,0,0.34,0.01,0.52,0.01c0.18,0.01,0.35,0.01,0.52,0.01c0.21,0,0.42,0,0.65-0.01c0.22-0.01,0.44-0.01,0.65-0.01c0.11,0,0.21,0.02,0.29,0.06c0.08,0.04,0.13,0.13,0.13,0.28c0,0.13-0.05,0.24-0.14,0.34c-0.09,0.09-0.2,0.19-0.31,0.29c-0.11,0.1-0.22,0.23-0.31,0.37c-0.09,0.14-0.14,0.32-0.14,0.55c-0.02,0.17-0.03,0.34-0.03,0.51c0,0.17,0,0.33,0,0.48c0,0.17,0,0.33,0.01,0.49c0.01,0.16,0.01,0.31,0.01,0.46v0.45c0,0.11,0.01,0.23,0.03,0.37c0.02,0.13,0.06,0.26,0.11,0.38c0.06,0.12,0.13,0.23,0.22,0.31c0.09,0.08,0.21,0.13,0.34,0.13c0.19,0,0.39-0.01,0.6-0.04c0.21-0.03,0.42-0.04,0.6-0.04c0.36,0,0.63,0.12,0.82,0.35c0.19,0.23,0.28,0.51,0.28,0.83c0,0.41-0.1,0.7-0.31,0.86c-0.21,0.16-0.47,0.25-0.79,0.27h-0.79c-0.45,0-0.78,0.06-0.98,0.18c-0.21,0.12-0.31,0.38-0.31,0.77c0.04,0.32,0.06,0.64,0.07,0.97c0.01,0.33,0.01,0.64,0.01,0.94c0,0.17-0.01,0.34-0.04,0.51c-0.03,0.17-0.04,0.33-0.04,0.48c0,0.43,0.03,0.9,0.1,1.39c0.07,0.5,0.1,0.91,0.1,1.25c0,0.3-0.05,0.6-0.14,0.89c-0.09,0.29-0.14,0.56-0.14,0.8c0,0.3,0.06,0.6,0.18,0.89c0.12,0.29,0.18,0.57,0.18,0.83c0,0.23-0.03,0.45-0.1,0.66c-0.07,0.22-0.1,0.44-0.1,0.66c0,0.19,0.02,0.37,0.07,0.56c0.05,0.19,0.07,0.37,0.07,0.56c0,0.15-0.01,0.29-0.03,0.41c-0.02,0.12-0.03,0.26-0.03,0.41c0,0.17,0.01,0.34,0.04,0.52c0.03,0.18,0.04,0.35,0.04,0.52c0,0.22-0.03,0.45-0.08,0.69c-0.06,0.23-0.08,0.47-0.08,0.72c0,0.15,0.02,0.31,0.06,0.48c0.04,0.17,0.06,0.33,0.06,0.48c0,0.32-0.04,0.66-0.11,1.04c-0.08,0.37-0.16,0.74-0.25,1.11c-0.09,0.37-0.18,0.7-0.25,1.01c-0.08,0.31-0.11,0.56-0.11,0.74c0,0.3,0.17,0.63,0.52,1c0.35,0.37,0.75,0.72,1.22,1.05c0.47,0.34,0.93,0.65,1.39,0.93c0.46,0.28,0.79,0.5,1,0.65c0.24,0.19,0.52,0.28,0.84,0.28h0.22c0.15,0,0.28,0.04,0.38,0.13c0.1,0.08,0.21,0.18,0.32,0.29c0.11,0.11,0.24,0.21,0.38,0.29c0.14,0.09,0.31,0.13,0.52,0.13c0.28,0,0.54,0.06,0.79,0.2c0.24,0.13,0.47,0.29,0.67,0.48c0.19,0.17,0.45,0.32,0.8,0.46c0.35,0.14,0.71,0.25,1.08,0.34c0.37,0.08,0.73,0.15,1.05,0.2c0.33,0.05,0.57,0.07,0.72,0.07c0.09,0,0.18,0,0.27-0.01c0.08-0.01,0.17-0.01,0.27-0.01h0.82c0.15,0,0.29-0.01,0.42-0.04c0.13-0.03,0.27-0.04,0.42-0.04c0.09,0,0.2,0.01,0.31,0.04c0.11,0.03,0.22,0.04,0.34,0.04c0.08,0,0.14-0.01,0.2-0.03c0.3-0.11,0.62-0.21,0.97-0.28c0.35-0.08,0.68-0.15,1.01-0.24c0.33-0.08,0.65-0.19,0.96-0.31c0.31-0.12,0.6-0.29,0.86-0.49c0.11-0.09,0.26-0.19,0.44-0.28c0.18-0.09,0.35-0.19,0.52-0.3c0.17-0.1,0.32-0.21,0.45-0.31c0.13-0.1,0.22-0.21,0.28-0.32c0.07-0.19,0.18-0.36,0.31-0.52c0.13-0.16,0.26-0.32,0.38-0.49c0.12-0.17,0.23-0.34,0.32-0.52c0.09-0.18,0.16-0.37,0.2-0.58c0.07-0.32,0.19-0.55,0.35-0.69c0.16-0.14,0.34-0.21,0.55-0.21C87.74,41.68,88.08,41.8,88.34,42.03z M60.94,42.1c0-0.3-0.11-0.58-0.34-0.84c-0.22-0.26-0.49-0.51-0.8-0.74c-0.31-0.23-0.63-0.46-0.97-0.66c-0.34-0.21-0.63-0.39-0.87-0.56c-0.47-0.32-0.93-0.63-1.39-0.94c-0.46-0.31-0.93-0.61-1.42-0.91c-0.11-0.07-0.24-0.12-0.38-0.13c-0.14-0.01-0.27-0.06-0.38-0.15c-0.22-0.15-0.47-0.25-0.73-0.29c-0.26-0.05-0.52-0.14-0.79-0.27c-0.32-0.15-0.65-0.29-1-0.42c-0.35-0.13-0.71-0.2-1.08-0.2c-0.37,0-0.75-0.03-1.12-0.1c-0.38-0.07-0.75-0.1-1.12-0.1c-0.24,0-0.48,0.05-0.72,0.14c-0.23,0.09-0.45,0.14-0.66,0.14h-0.11c-0.28,0-0.54,0.06-0.79,0.18c-0.24,0.12-0.5,0.22-0.76,0.29c0,0.09,0.08,0.23,0.24,0.42c0.16,0.19,0.35,0.38,0.58,0.59s0.45,0.41,0.69,0.6c0.23,0.2,0.43,0.33,0.58,0.41c0.43,0.24,0.86,0.49,1.29,0.75c0.43,0.25,0.9,0.43,1.41,0.52c0.43,0.07,0.85,0.15,1.25,0.24c0.4,0.08,0.8,0.14,1.19,0.15c0.09,0,0.18,0,0.25-0.01c0.07-0.01,0.16-0.01,0.25-0.01c0.37,0,0.66,0.11,0.84,0.34c0.19,0.22,0.28,0.52,0.28,0.9c0,0.43-0.16,0.75-0.48,0.96s-0.69,0.31-1.12,0.31c-0.49,0-1.04-0.06-1.64-0.18c-0.61-0.12-1.16-0.27-1.64-0.44c-0.38-0.11-0.7-0.24-0.98-0.38c-0.28-0.14-0.54-0.28-0.77-0.42c-0.23-0.14-0.46-0.28-0.67-0.41c-0.22-0.13-0.45-0.26-0.69-0.39c-0.21-0.07-0.39-0.18-0.56-0.31c-0.17-0.13-0.32-0.27-0.46-0.41c-0.14-0.14-0.28-0.29-0.41-0.44c-0.13-0.15-0.28-0.29-0.45-0.42c-0.21-0.15-0.41-0.3-0.6-0.44c-0.2-0.14-0.37-0.31-0.52-0.52c-0.37,0.47-0.67,0.96-0.9,1.48c-0.23,0.52-0.34,1.07-0.34,1.67c0,0.47,0.03,0.94,0.1,1.41c0.07,0.47,0.19,0.88,0.38,1.24c0.21,0.41,0.5,0.82,0.89,1.21c0.38,0.39,0.75,0.73,1.11,1.01c0.43,0.36,0.92,0.65,1.46,0.87c0.54,0.22,1.01,0.37,1.41,0.42c0.54,0.09,1.09,0.17,1.64,0.24c0.55,0.06,1.1,0.1,1.64,0.1c0.36,0,0.71-0.02,1.07-0.07c0.36-0.05,0.72-0.13,1.1-0.24c0.02-0.02,0.04-0.02,0.06-0.01c0.02,0.01,0.05,0,0.08-0.01c0.45-0.13,0.92-0.24,1.42-0.34c0.5-0.09,0.98-0.21,1.46-0.34c0.48-0.13,0.94-0.3,1.39-0.51c0.45-0.21,0.86-0.49,1.24-0.84c0.13-0.13,0.26-0.22,0.39-0.28c0.26-0.13,0.51-0.32,0.76-0.56c0.24-0.24,0.45-0.5,0.63-0.76c0.18-0.26,0.32-0.53,0.44-0.8C60.88,42.55,60.94,42.31,60.94,42.1z M63.3,30.74c0-0.21-0.02-0.4-0.06-0.59c-0.04-0.19-0.06-0.38-0.06-0.59c0-0.37,0.01-0.75,0.03-1.14c0.02-0.38,0.03-0.76,0.03-1.14c0-0.34-0.02-0.67-0.06-1.01c-0.04-0.34-0.06-0.67-0.06-1.01c0-0.32,0.01-0.63,0.04-0.94c0.03-0.31,0.04-0.62,0.04-0.94c0-0.19-0.02-0.37-0.06-0.55c-0.04-0.18-0.06-0.36-0.06-0.55c0-0.13,0-0.25,0.01-0.37c0.01-0.11,0.01-0.23,0.01-0.37c0-0.32-0.13-0.58-0.38-0.79c-0.25-0.21-0.54-0.31-0.86-0.31c-0.15,0-0.3,0.02-0.46,0.07c-0.16,0.05-0.31,0.07-0.46,0.07c-0.24,0-0.48-0.01-0.7-0.04c-0.22-0.03-0.46-0.04-0.7-0.04c-0.51,0-0.89,0.06-1.14,0.18c-0.25,0.12-0.38,0.37-0.38,0.75c0,0.39-0.04,0.79-0.11,1.19c-0.08,0.4-0.11,0.8-0.11,1.19c0,0.23,0.02,0.44,0.06,0.65c0.04,0.21,0.06,0.42,0.06,0.65c0,0.15,0,0.29-0.01,0.44c-0.01,0.14-0.01,0.29-0.01,0.44v0.53c0,0.32-0.03,0.65-0.08,0.98c-0.06,0.34-0.08,0.67-0.08,0.98c0,0.37,0.03,0.74,0.1,1.11c0.07,0.37,0.1,0.74,0.1,1.11c0,0.13,0,0.25-0.01,0.36c-0.01,0.11-0.01,0.23-0.01,0.34c0,0.24,0.01,0.51,0.04,0.8c0.03,0.29,0.07,0.58,0.13,0.86c0.06,0.28,0.13,0.53,0.21,0.76c0.08,0.22,0.19,0.38,0.32,0.45c0.15,0.13,0.22,0.31,0.22,0.53c-0.02,0.09-0.05,0.21-0.08,0.34c-0.04,0.13-0.13,0.2-0.28,0.2c-0.04,0-0.13-0.05-0.28-0.14c-0.15-0.09-0.33-0.21-0.55-0.34c-0.22-0.13-0.43-0.26-0.65-0.39c-0.22-0.13-0.41-0.23-0.58-0.28c-0.15-0.06-0.32-0.12-0.51-0.2c-0.19-0.08-0.37-0.16-0.53-0.25c-0.17-0.09-0.31-0.19-0.44-0.29c-0.12-0.1-0.18-0.2-0.18-0.29c0-0.15,0.05-0.28,0.14-0.38c0.09-0.1,0.2-0.2,0.32-0.3c0.12-0.09,0.23-0.2,0.32-0.32c0.09-0.12,0.14-0.29,0.14-0.49c0-0.26,0.01-0.53,0.03-0.8c0.02-0.27,0.03-0.54,0.03-0.8c0-0.28-0.02-0.56-0.07-0.84c-0.05-0.28-0.07-0.55-0.07-0.82c0-0.26,0.03-0.52,0.08-0.77c0.06-0.25,0.08-0.51,0.08-0.77c0-0.37-0.03-0.74-0.08-1.11c-0.06-0.37-0.08-0.74-0.08-1.11c0-0.22,0.01-0.45,0.04-0.69c0.03-0.23,0.04-0.47,0.04-0.72v-0.67c0.02-0.07,0.03-0.14,0.03-0.2c0-0.06,0.01-0.11,0.03-0.17c0-0.34-0.01-0.61-0.03-0.83c-0.02-0.21-0.08-0.38-0.17-0.51c-0.09-0.12-0.24-0.21-0.45-0.25c-0.21-0.05-0.49-0.07-0.84-0.07c-0.49,0-0.97,0.01-1.46,0.04c-0.49,0.03-0.97,0.04-1.46,0.04h-0.31c-0.23,0-0.45,0.04-0.67,0.13c-0.22,0.08-0.45,0.19-0.67,0.32c-0.23,0.13-0.45,0.26-0.67,0.39c-0.22,0.13-0.44,0.25-0.65,0.37c-0.66,0.26-1.26,0.64-1.8,1.14c-0.54,0.5-1.03,1.05-1.46,1.67c-0.01,0.02-0.02,0.04-0.04,0.06c1.05,0.93,1.38,2.24,0.69,3.85c-0.12-1.33-0.63-2.16-1.36-2.72c-0.08,0.14-0.16,0.29-0.23,0.43c-0.03,0.06-0.05,0.11-0.07,0.16c0.02,0.02,0.04,0.03,0.06,0.05c0.23,0.24,0.38,0.59,0.45,0.97c0.22,1.15-0.16,2.12-0.87,3.03c0.01-0.15-0.03-0.3-0.1-0.45c0,0.38-0.13,0.7-0.32,0.95c0.01,0.19,0.03,0.39,0.07,0.63c0.06,0.4,0.14,0.8,0.25,1.18c0.11,0.38,0.26,0.71,0.44,0.98c0.18,0.27,0.4,0.41,0.66,0.41c0.07,0,0.17-0.03,0.29-0.08c0.12-0.06,0.25-0.11,0.38-0.17c0.43-0.13,0.86-0.21,1.29-0.25c0.43-0.04,0.86-0.11,1.29-0.22c0.47-0.09,0.88-0.14,1.24-0.14c0.9,0,1.81,0.13,2.73,0.39c0.92,0.26,1.82,0.53,2.7,0.82c0.21,0.06,0.41,0.15,0.6,0.29c0.2,0.14,0.4,0.29,0.6,0.45c0.21,0.16,0.43,0.31,0.66,0.46c0.23,0.15,0.49,0.25,0.77,0.31c0.66,0.34,1.31,0.73,1.97,1.17c0.66,0.44,1.27,0.91,1.86,1.42c0.17,0.15,0.33,0.27,0.49,0.35c0.16,0.08,0.35,0.12,0.58,0.1c0.04,0,0.1-0.07,0.18-0.21c0.08-0.14,0.17-0.29,0.27-0.46c0.11-0.21,0.23-0.44,0.37-0.7c0.04-0.19,0.06-0.37,0.07-0.55c0.01-0.18,0.01-0.35,0.01-0.52c0-0.49-0.01-0.96-0.01-1.41c-0.01-0.45-0.02-0.91-0.04-1.38c0-0.13,0.03-0.27,0.08-0.41c0.06-0.14,0.08-0.29,0.08-0.46c0-0.21,0.01-0.41,0.03-0.62c0.02-0.21,0.03-0.41,0.03-0.62c0-0.07,0-0.15,0-0.23c0-0.07-0.01-0.16-0.03-0.25c0-0.09,0.01-0.18,0.04-0.25C63.28,30.92,63.3,30.84,63.3,30.74z M68.31,25.13c0-0.35,0.06-0.77,0.18-1.25c0.12-0.48,0.29-0.89,0.53-1.23c0.24-0.35,0.52-0.73,0.85-1.14c0.33-0.41,0.7-0.78,1.1-1.11c0.4-0.34,0.84-0.62,1.32-0.85c0.47-0.23,0.98-0.34,1.52-0.34c0.05,0.02,0.13,0.03,0.25,0.03c0.08,0,0.17,0,0.25-0.01c0.08-0.01,0.17-0.01,0.25-0.01c0.29,0,0.55,0.05,0.8,0.15c0.24,0.1,0.49,0.18,0.75,0.23c0.4,0.09,0.73,0.25,0.99,0.51c0.25,0.25,0.53,0.48,0.83,0.68c0.44,0.3,0.78,0.67,1.02,1.09c0.24,0.42,0.49,0.85,0.75,1.29c0.13,0.24,0.21,0.48,0.21,0.73c0.01,0.25,0.05,0.49,0.14,0.71c0.08,0.24,0.13,0.48,0.15,0.72c0.02,0.25,0.05,0.48,0.1,0.7c0.05,0.2,0.08,0.41,0.08,0.63c-0.02,0.34-0.08,0.65-0.2,0.94c-0.12,0.29-0.19,0.6-0.23,0.94c-0.05,0.42-0.2,0.82-0.45,1.2c-0.25,0.38-0.5,0.77-0.73,1.18c-0.24,0.37-0.51,0.65-0.82,0.83c-0.31,0.19-0.59,0.42-0.85,0.71c-0.35,0.19-0.75,0.38-1.18,0.59c-0.43,0.21-0.84,0.32-1.23,0.32c-0.03,0-0.08-0.02-0.15-0.05c-0.25-0.05-0.48-0.07-0.67-0.05c-0.19,0.02-0.41,0.01-0.65-0.01c-0.24-0.03-0.51-0.09-0.81-0.2c-0.3-0.11-0.68-0.32-1.14-0.64c-0.39-0.27-0.7-0.55-0.92-0.85c-0.23-0.29-0.49-0.64-0.8-1.02c-0.22-0.24-0.4-0.49-0.53-0.76c-0.13-0.27-0.24-0.55-0.33-0.83c-0.08-0.29-0.16-0.58-0.23-0.87c-0.07-0.29-0.13-0.59-0.2-0.9c-0.03-0.12-0.07-0.21-0.1-0.29c-0.03-0.08-0.05-0.16-0.05-0.24c0-0.08,0.04-0.18,0.11-0.29c0.08-0.11,0.11-0.25,0.11-0.42c0-0.13,0-0.27-0.01-0.39C68.31,25.39,68.31,25.26,68.31,25.13z M70.48,27.45c0,0.1-0.03,0.19-0.08,0.28s-0.08,0.17-0.08,0.25c0.02,0.1,0.11,0.27,0.29,0.49c0.18,0.23,0.31,0.44,0.39,0.65c0.03,0.08,0.15,0.24,0.34,0.48c0.19,0.24,0.43,0.48,0.7,0.73c0.27,0.25,0.57,0.48,0.9,0.67c0.33,0.19,0.64,0.29,0.95,0.29c0.08,0,0.19-0.05,0.32-0.15c0.13-0.1,0.26-0.15,0.39-0.15c0.08,0,0.17,0.02,0.25,0.06c0.08,0.04,0.17,0.06,0.25,0.06c0.08,0,0.21-0.03,0.38-0.1c0.1-0.03,0.28-0.13,0.54-0.3c0.26-0.17,0.54-0.38,0.82-0.63c0.29-0.25,0.54-0.53,0.76-0.83c0.22-0.3,0.33-0.61,0.33-0.91v-0.05v-0.1c0-0.25,0.07-0.5,0.21-0.73c0.14-0.24,0.21-0.47,0.21-0.71c0-0.1-0.01-0.18-0.03-0.23c0.02-0.05,0.03-0.13,0.03-0.23c0-0.08-0.01-0.17-0.03-0.25c-0.02-0.08-0.03-0.17-0.05-0.25c-0.1-0.61-0.26-1.19-0.48-1.75c-0.22-0.56-0.5-1.05-0.83-1.47c-0.34-0.42-0.74-0.76-1.2-1.01c-0.46-0.25-0.98-0.38-1.56-0.38c-0.24,0-0.51,0.05-0.81,0.14c-0.3,0.09-0.59,0.2-0.87,0.32c-0.28,0.12-0.51,0.24-0.71,0.38c-0.19,0.13-0.29,0.24-0.29,0.3v0.08c0,0.07-0.06,0.21-0.19,0.43c-0.13,0.22-0.27,0.49-0.42,0.82c-0.15,0.33-0.29,0.69-0.42,1.09c-0.13,0.4-0.19,0.81-0.19,1.23c0,0.27,0.03,0.53,0.08,0.78C70.46,27,70.48,27.23,70.48,27.45z M80.9,20.23c0.1,0.1,0.19,0.22,0.28,0.35c0.08,0.14,0.13,0.3,0.13,0.51c0,0.09-0.01,0.17-0.03,0.25c-0.02,0.08-0.03,0.17-0.03,0.25c0,0.19,0.03,0.38,0.08,0.59c0.05,0.21,0.08,0.42,0.08,0.62v0.73v0.23c0,0.1-0.01,0.2-0.04,0.3c-0.03,0.1-0.04,0.2-0.04,0.3c0,0.15,0.02,0.31,0.06,0.47c0.04,0.16,0.06,0.32,0.06,0.47c0,0.13-0.05,0.26-0.14,0.38c-0.09,0.12-0.14,0.22-0.14,0.3c0,0.24,0.03,0.48,0.09,0.73c0.06,0.25,0.09,0.5,0.09,0.73c0,0.09-0.01,0.18-0.02,0.29c-0.02,0.11-0.03,0.21-0.03,0.29c0,0.08,0.01,0.16,0.04,0.24c0.03,0.08,0.04,0.16,0.04,0.24c0,0.19-0.02,0.38-0.06,0.58c-0.04,0.2-0.06,0.4-0.06,0.58c0,0.13,0.03,0.27,0.1,0.4c0.07,0.13,0.1,0.25,0.1,0.35c0,0.05-0.01,0.12-0.03,0.2c-0.02,0.08-0.03,0.17-0.03,0.25c0.02,0.05,0.03,0.13,0.03,0.23c0,0.32-0.04,0.57-0.13,0.75c-0.08,0.18-0.17,0.33-0.27,0.44c-0.09,0.12-0.18,0.22-0.27,0.3c-0.08,0.08-0.13,0.19-0.13,0.3c0,0.13,0.05,0.24,0.16,0.3c0.11,0.07,0.22,0.1,0.34,0.1h0.15h0.38c0.46,0,0.92-0.03,1.39-0.08c0.47-0.05,0.94-0.08,1.39-0.08c0.19,0,0.36,0.02,0.52,0.05c0.16,0.04,0.33,0.05,0.52,0.05c0.15,0,0.31-0.02,0.47-0.06c0.16-0.04,0.32-0.06,0.49-0.06c0.08,0,0.17,0.01,0.27,0.03c0.09,0.02,0.18,0.03,0.27,0.03c0.3,0,0.46-0.21,0.46-0.63c0-0.08-0.02-0.18-0.05-0.29c-0.03-0.11-0.05-0.22-0.05-0.32c0-0.08,0.01-0.14,0.02-0.18c0.05-0.17,0.08-0.34,0.08-0.51v-0.3v-0.23c0-0.1-0.02-0.2-0.06-0.3c-0.04-0.1-0.14-0.15-0.29-0.15c-0.13,0-0.27,0.1-0.39,0.29c-0.13,0.19-0.31,0.32-0.54,0.37c-0.2,0.03-0.41,0.05-0.62,0.06c-0.21,0.01-0.42,0.01-0.62,0.01c-0.15,0-0.32,0-0.49,0c-0.18,0-0.34-0.02-0.49-0.06c-0.15-0.04-0.28-0.11-0.38-0.2c-0.1-0.09-0.15-0.23-0.15-0.42c0-0.07,0-0.13,0.01-0.18c0.01-0.05,0.01-0.11,0.01-0.18c0-0.2-0.03-0.41-0.09-0.62c-0.06-0.21-0.09-0.42-0.09-0.62v-0.61V27.8c0-0.27,0.04-0.54,0.11-0.81c0.08-0.27,0.11-0.55,0.11-0.83c0-0.13-0.02-0.27-0.05-0.41c-0.03-0.13-0.05-0.27-0.05-0.4c0-0.14,0-0.26,0.01-0.37c0.01-0.11,0.01-0.22,0.01-0.34c0-0.29-0.03-0.56-0.09-0.81c-0.06-0.25-0.09-0.51-0.09-0.76c0-0.12,0.03-0.24,0.08-0.38c0.07-0.22,0.11-0.46,0.13-0.73c0.02-0.27,0.04-0.54,0.06-0.8c0.02-0.26,0.07-0.5,0.14-0.72c0.07-0.22,0.19-0.39,0.38-0.51c0.07-0.05,0.1-0.13,0.1-0.23c0-0.19-0.03-0.31-0.1-0.38c-0.07-0.07-0.16-0.1-0.28-0.1c-0.29,0-0.58,0.01-0.89,0.04c-0.3,0.03-0.61,0.04-0.91,0.04c-0.14,0-0.26-0.01-0.38-0.03c-0.12-0.02-0.25-0.03-0.38-0.03c-0.19,0-0.35,0.03-0.48,0.08c-0.14,0.05-0.2,0.17-0.2,0.35c0,0.1,0.04,0.19,0.13,0.28C80.71,20.04,80.8,20.13,80.9,20.23z M94.83,30.3c-0.13,0-0.27,0.1-0.39,0.29c-0.13,0.19-0.31,0.32-0.54,0.37c-0.2,0.03-0.41,0.05-0.62,0.06c-0.21,0.01-0.42,0.01-0.62,0.01c-0.15,0-0.32,0-0.49,0c-0.18,0-0.34-0.02-0.49-0.06c-0.15-0.04-0.28-0.11-0.38-0.2c-0.1-0.09-0.15-0.23-0.15-0.42c0-0.07,0-0.13,0.01-0.18c0.01-0.05,0.01-0.11,0.01-0.18c0-0.2-0.03-0.41-0.09-0.62c-0.06-0.21-0.09-0.42-0.09-0.62v-0.61V27.8c0-0.27,0.04-0.54,0.11-0.81c0.08-0.27,0.11-0.55,0.11-0.83c0-0.13-0.02-0.27-0.05-0.41c-0.03-0.13-0.05-0.27-0.05-0.4c0-0.14,0-0.26,0.01-0.37c0.01-0.11,0.01-0.22,0.01-0.34c0-0.29-0.03-0.56-0.09-0.81c-0.06-0.25-0.09-0.51-0.09-0.76c0-0.12,0.03-0.24,0.08-0.38c0.07-0.22,0.11-0.46,0.13-0.73c0.02-0.27,0.04-0.54,0.06-0.8c0.03-0.26,0.07-0.5,0.14-0.72c0.07-0.22,0.19-0.39,0.38-0.51c0.07-0.05,0.1-0.13,0.1-0.23c0-0.19-0.03-0.31-0.1-0.38c-0.07-0.07-0.16-0.1-0.28-0.1c-0.29,0-0.58,0.01-0.89,0.04c-0.3,0.03-0.61,0.04-0.91,0.04c-0.14,0-0.26-0.01-0.38-0.03c-0.12-0.02-0.25-0.03-0.38-0.03c-0.19,0-0.35,0.03-0.48,0.08c-0.14,0.05-0.2,0.17-0.2,0.35c0,0.1,0.04,0.19,0.13,0.28c0.08,0.09,0.18,0.18,0.28,0.28c0.1,0.1,0.19,0.22,0.28,0.35c0.08,0.14,0.13,0.3,0.13,0.51c0,0.09-0.01,0.17-0.03,0.25c-0.02,0.08-0.03,0.17-0.03,0.25c0,0.19,0.03,0.38,0.08,0.59c0.05,0.21,0.08,0.42,0.08,0.62v0.73v0.23c0,0.1-0.01,0.2-0.04,0.3c-0.03,0.1-0.04,0.2-0.04,0.3c0,0.15,0.02,0.31,0.06,0.47c0.04,0.16,0.06,0.32,0.06,0.47c0,0.13-0.05,0.26-0.14,0.38c-0.09,0.12-0.14,0.22-0.14,0.3c0,0.24,0.03,0.48,0.09,0.73c0.06,0.25,0.09,0.5,0.09,0.73c0,0.09-0.01,0.18-0.02,0.29c-0.02,0.11-0.03,0.21-0.03,0.29c0,0.08,0.01,0.16,0.04,0.24c0.03,0.08,0.04,0.16,0.04,0.24c0,0.19-0.02,0.38-0.06,0.58c-0.04,0.2-0.06,0.4-0.06,0.58c0,0.13,0.03,0.27,0.1,0.4c0.07,0.13,0.1,0.25,0.1,0.35c0,0.05-0.01,0.12-0.02,0.2c-0.02,0.08-0.03,0.17-0.03,0.25c0.02,0.05,0.03,0.13,0.03,0.23c0,0.32-0.04,0.57-0.13,0.75c-0.08,0.18-0.17,0.33-0.27,0.44c-0.09,0.12-0.18,0.22-0.27,0.3c-0.08,0.08-0.13,0.19-0.13,0.3c0,0.13,0.05,0.24,0.16,0.3c0.11,0.07,0.22,0.1,0.34,0.1h0.15h0.38c0.46,0,0.92-0.03,1.39-0.08c0.47-0.05,0.94-0.08,1.39-0.08c0.18,0,0.36,0.02,0.52,0.05c0.16,0.04,0.33,0.05,0.52,0.05c0.15,0,0.31-0.02,0.47-0.06c0.16-0.04,0.32-0.06,0.49-0.06c0.08,0,0.17,0.01,0.27,0.03c0.09,0.02,0.18,0.03,0.27,0.03c0.3,0,0.46-0.21,0.46-0.63c0-0.08-0.02-0.18-0.05-0.29c-0.03-0.11-0.05-0.22-0.05-0.32c0-0.08,0.01-0.14,0.03-0.18c0.05-0.17,0.08-0.34,0.08-0.51v-0.3v-0.23c0-0.1-0.02-0.2-0.06-0.3C95.08,30.35,94.98,30.3,94.83,30.3z M117.35,19.21c-0.23-0.03-0.44-0.05-0.64-0.05c-0.17,0-0.33,0.03-0.49,0.09c-0.16,0.06-0.33,0.09-0.52,0.09c-0.2,0-0.48-0.03-0.83-0.09c-0.35-0.06-0.67-0.09-0.96-0.09c-0.12,0-0.21,0.04-0.28,0.13c-0.07,0.08-0.1,0.19-0.1,0.3c0,0.09,0.03,0.17,0.09,0.24c0.06,0.08,0.13,0.14,0.2,0.2c0.08,0.06,0.15,0.12,0.21,0.18c0.07,0.06,0.1,0.12,0.1,0.19c0,0.12-0.02,0.29-0.08,0.53c-0.05,0.24-0.11,0.48-0.19,0.75c-0.08,0.26-0.16,0.51-0.27,0.76c-0.1,0.24-0.2,0.43-0.3,0.57c-0.08,0.08-0.16,0.22-0.21,0.42c-0.06,0.19-0.16,0.36-0.32,0.49c-0.12-0.2-0.25-0.44-0.4-0.72c-0.15-0.28-0.29-0.56-0.42-0.85c-0.13-0.29-0.23-0.56-0.32-0.81c-0.08-0.25-0.13-0.46-0.13-0.63c0-0.25,0.04-0.43,0.11-0.53c0.08-0.1,0.17-0.18,0.27-0.23c0.1-0.05,0.2-0.09,0.29-0.11c0.09-0.03,0.16-0.08,0.19-0.17c0-0.15-0.05-0.27-0.15-0.35c-0.1-0.08-0.22-0.14-0.37-0.18c-0.14-0.03-0.29-0.05-0.46-0.06c-0.16-0.01-0.31-0.02-0.44-0.04c-0.08,0-0.19,0.03-0.33,0.09c-0.13,0.06-0.27,0.09-0.41,0.09c-0.14,0-0.27-0.02-0.42-0.05s-0.29-0.05-0.44-0.05c-0.08,0-0.18,0.01-0.28,0.03c-0.1,0.02-0.19,0.03-0.28,0.03c-0.14,0-0.27-0.01-0.42-0.04c-0.14-0.03-0.28-0.04-0.42-0.04c-0.27,0-0.41,0.15-0.41,0.46c0,0.08,0.03,0.14,0.08,0.16c0.05,0.03,0.12,0.05,0.2,0.09c0.3,0.07,0.54,0.16,0.71,0.27c0.17,0.11,0.31,0.23,0.43,0.37c0.12,0.13,0.21,0.29,0.28,0.46c0.07,0.17,0.15,0.35,0.25,0.53c0.34,0.69,0.62,1.38,0.85,2.06c0.23,0.68,0.48,1.36,0.77,2.04c0.08,0.22,0.19,0.47,0.3,0.75c0.12,0.28,0.18,0.51,0.18,0.7c0,0.1-0.03,0.26-0.1,0.47c-0.07,0.21-0.16,0.45-0.27,0.72c-0.11,0.27-0.22,0.54-0.34,0.8c-0.12,0.26-0.23,0.49-0.33,0.7c-0.15,0.59-0.33,1.14-0.54,1.64c-0.21,0.51-0.45,0.98-0.71,1.42c-0.26,0.44-0.55,0.86-0.86,1.28c-0.31,0.41-0.64,0.83-1,1.25c-0.22,0.25-0.49,0.46-0.81,0.63c-0.32,0.17-0.67,0.3-1.05,0.39c-0.38,0.09-0.76,0.16-1.15,0.2c-0.39,0.04-0.76,0.06-1.11,0.06c-0.27,0-0.61-0.06-1.01-0.19c-0.41-0.13-0.83-0.32-1.27-0.57c-0.44-0.25-0.86-0.56-1.25-0.92c-0.4-0.36-0.71-0.78-0.95-1.25c0-0.03-0.02-0.07-0.05-0.1c-0.19-0.12-0.31-0.27-0.37-0.46c-0.06-0.19-0.11-0.39-0.14-0.61c-0.03-0.22-0.07-0.44-0.1-0.66c-0.03-0.22-0.1-0.43-0.2-0.63c-0.05-0.08-0.08-0.21-0.09-0.39c-0.01-0.18-0.01-0.32-0.01-0.42c-0.02-0.19,0-0.38,0.04-0.57c0.04-0.19,0.08-0.39,0.11-0.59c0.03-0.2,0.1-0.46,0.2-0.78s0.22-0.63,0.37-0.94c0.14-0.3,0.3-0.57,0.47-0.8c0.17-0.23,0.34-0.34,0.51-0.34c0.08,0,0.14,0.03,0.17,0.08c0.03,0.05,0.04,0.1,0.04,0.15v0.43c0,0.29,0.01,0.57,0.04,0.85c0.03,0.28,0.04,0.56,0.04,0.85c0,0.13,0,0.26-0.01,0.38c-0.01,0.12-0.01,0.24-0.01,0.38c0,0.14,0.01,0.27,0.03,0.39c0.02,0.13,0.02,0.26,0.02,0.39c0,0.15,0,0.3-0.01,0.46c-0.01,0.15-0.01,0.3-0.01,0.45c0,0.09,0,0.16,0.01,0.24c0.01,0.08,0.01,0.16,0.01,0.24c0,0.13-0.03,0.26-0.1,0.37c-0.07,0.11-0.14,0.21-0.23,0.3c-0.08,0.09-0.16,0.17-0.23,0.24c-0.07,0.07-0.1,0.14-0.1,0.2c0,0.27,0.09,0.41,0.28,0.42c0.19,0.01,0.4,0.01,0.63,0.01c0.61,0,1.21-0.01,1.82-0.03c0.61-0.02,1.21-0.03,1.82-0.03c0.17,0,0.33,0.02,0.49,0.05c0.16,0.03,0.32,0.05,0.47,0.05c0.05,0,0.16-0.01,0.33-0.04c0.17-0.02,0.32-0.04,0.46-0.04h0.08c0.1,0,0.2-0.03,0.29-0.1c0.09-0.07,0.18-0.15,0.27-0.25c0.08-0.1,0.15-0.2,0.2-0.3c0.05-0.1,0.08-0.18,0.08-0.23c0-0.37-0.09-0.64-0.28-0.82c-0.19-0.18-0.41-0.3-0.67-0.38c-0.26-0.08-0.54-0.11-0.85-0.11c-0.3,0-0.57,0-0.81,0c-0.14,0-0.27,0.01-0.39,0.04c-0.13,0.03-0.26,0.04-0.39,0.04c-0.29,0-0.51-0.06-0.66-0.19c-0.15-0.13-0.26-0.29-0.32-0.48c-0.06-0.19-0.09-0.41-0.1-0.64c-0.01-0.24-0.01-0.46-0.01-0.68c0-0.3,0.01-0.61,0.04-0.91c0.03-0.3,0.04-0.61,0.04-0.91c0-0.29,0-0.59,0-0.92c0-0.33,0.03-0.64,0.1-0.92c0.07-0.29,0.19-0.52,0.37-0.71c0.18-0.18,0.44-0.28,0.8-0.28c0.05,0,0.1,0,0.15,0.01c0.05,0.01,0.09,0.01,0.13,0.01c0.34,0,0.64-0.1,0.92-0.3c0.28-0.2,0.42-0.5,0.42-0.88c0-0.35-0.14-0.63-0.42-0.82c-0.28-0.19-0.6-0.29-0.97-0.29c-0.19,0-0.37,0.02-0.54,0.08c-0.18,0.05-0.33,0.08-0.47,0.08c-0.24,0-0.36-0.03-0.38-0.09c-0.02-0.06-0.03-0.16-0.05-0.32c0-0.2,0.05-0.35,0.15-0.43c0.1-0.08,0.29-0.13,0.58-0.13c0.13,0,0.29,0,0.46,0.01c0.17,0.01,0.33,0.01,0.48,0.01c0.24,0,0.51,0,0.81,0.01c0.3,0.01,0.59-0.01,0.86-0.05c0.27-0.04,0.5-0.13,0.68-0.25c0.19-0.13,0.29-0.32,0.3-0.59c0-0.41-0.11-0.69-0.34-0.86c-0.23-0.17-0.51-0.28-0.86-0.33c-0.35-0.05-0.71-0.07-1.1-0.05c-0.39,0.02-0.73,0-1.04-0.05c-0.14,0-0.26,0.02-0.38,0.05c-0.12,0.03-0.25,0.05-0.38,0.05c-0.14,0-0.27,0-0.39-0.01c-0.13-0.01-0.26-0.01-0.39-0.01c-0.17,0-0.3,0.01-0.38,0.03c-0.08,0-0.18-0.01-0.28-0.03c-0.1-0.02-0.19-0.03-0.28-0.03c-0.12,0-0.26,0-0.43,0c-0.17,0-0.33,0.01-0.48,0.04c-0.15,0.03-0.28,0.07-0.39,0.13c-0.11,0.06-0.16,0.16-0.16,0.29c0,0.12,0.08,0.19,0.23,0.2c0.24,0.03,0.38,0.17,0.42,0.41c0.04,0.24,0.06,0.47,0.06,0.71v0.66v0.78c0,0.08,0,0.18,0,0.28c0,0.1-0.02,0.19-0.05,0.25c-0.2,0.29-0.46,0.55-0.78,0.78c-0.32,0.24-0.65,0.49-0.97,0.77c-0.33,0.28-0.64,0.61-0.95,0.99c-0.3,0.38-0.54,0.86-0.71,1.43c-0.08,0.25-0.18,0.53-0.28,0.82c-0.1,0.29-0.19,0.59-0.28,0.9c-0.08,0.3-0.15,0.59-0.2,0.86c-0.05,0.27-0.08,0.51-0.08,0.71c0,0.4,0.04,0.8,0.11,1.19c0.08,0.39,0.16,0.78,0.27,1.16c0.14,0.59,0.3,1.1,0.49,1.54c0.19,0.44,0.48,0.92,0.87,1.44c0.3,0.45,0.69,0.88,1.16,1.28c0.47,0.4,1,0.74,1.59,1.04c0.59,0.3,1.21,0.52,1.86,0.68c0.65,0.16,1.3,0.24,1.96,0.24c0.37,0,0.78-0.03,1.24-0.1c0.46-0.07,0.91-0.17,1.35-0.3c0.45-0.14,0.88-0.32,1.3-0.54c0.42-0.23,0.78-0.51,1.09-0.85c0.08-0.08,0.17-0.15,0.25-0.19c0.08-0.04,0.17-0.09,0.25-0.14c0.29-0.22,0.57-0.5,0.86-0.83c0.29-0.34,0.56-0.7,0.81-1.1c0.25-0.4,0.48-0.8,0.68-1.23c0.2-0.42,0.36-0.83,0.48-1.21c0.32-1.2,0.72-2.38,1.19-3.55c0.47-1.17,0.95-2.41,1.44-3.71c0.24-0.52,0.43-1.05,0.57-1.57c0.14-0.52,0.33-1.02,0.57-1.49c0.12-0.22,0.21-0.44,0.27-0.67c0.06-0.23,0.13-0.44,0.21-0.64c0.08-0.2,0.21-0.38,0.37-0.53c0.16-0.15,0.39-0.25,0.69-0.3c0.1-0.02,0.16-0.07,0.18-0.15c0.02-0.08,0.03-0.17,0.03-0.25C117.69,19.35,117.58,19.24,117.35,19.21z M134.09,19.61c0.09-0.21,0.18-0.39,0.27-0.55c0.08-0.16,0.14-0.24,0.16-0.24c0.15-0.07,0.28-0.14,0.39-0.18c0.11-0.05,0.17-0.17,0.17-0.38c0-0.09-0.01-0.17-0.03-0.23c-0.04-0.09-0.1-0.15-0.18-0.18c-0.08-0.03-0.17-0.04-0.27-0.04s-0.18,0.05-0.27,0.14c-0.08,0.09-0.19,0.14-0.32,0.14c-0.09,0-0.17-0.02-0.24-0.06c-0.07-0.04-0.1-0.1-0.1-0.2c0-0.07,0.01-0.14,0.03-0.21c0.02-0.07,0.03-0.14,0.03-0.21c-0.02-0.09-0.03-0.18-0.03-0.27s0-0.17,0-0.27c0-0.24,0-0.54,0.01-0.9c0.01-0.36,0.04-0.7,0.08-1.04c0.05-0.34,0.11-0.64,0.2-0.91c0.08-0.27,0.21-0.44,0.38-0.52c0.11-0.04,0.18-0.11,0.2-0.22c0.02-0.11,0.03-0.21,0.03-0.31c0-0.13-0.11-0.23-0.34-0.29c-0.22-0.07-0.43-0.1-0.62-0.1c-0.13,0-0.26,0-0.38,0.01c-0.12,0.01-0.26,0.01-0.41,0.01c-0.13,0-0.27-0.02-0.41-0.06c-0.14-0.04-0.28-0.06-0.41-0.06c-0.19,0-0.35,0.14-0.49,0.41c-0.14,0.27-0.27,0.6-0.38,0.98c-0.11,0.38-0.21,0.79-0.28,1.22c-0.08,0.43-0.14,0.81-0.2,1.12c-0.09,0.43-0.19,0.85-0.3,1.25c-0.1,0.4-0.25,0.81-0.44,1.22c-0.21,0.43-0.34,0.86-0.41,1.28c-0.07,0.42-0.17,0.85-0.32,1.28c-0.11,0.36-0.24,0.71-0.38,1.05c-0.14,0.35-0.21,0.71-0.21,1.08c0,0.17-0.03,0.35-0.1,0.55c-0.07,0.2-0.14,0.41-0.22,0.63c-0.08,0.23-0.17,0.45-0.27,0.67c-0.09,0.22-0.16,0.44-0.2,0.65c-0.06,0.26-0.14,0.53-0.25,0.81c-0.11,0.28-0.24,0.42-0.39,0.42c-0.15,0-0.31-0.2-0.49-0.6c-0.18-0.4-0.35-0.85-0.51-1.35c-0.16-0.5-0.29-0.96-0.39-1.41c-0.1-0.44-0.15-0.71-0.15-0.8c0-0.21-0.03-0.4-0.1-0.59c-0.07-0.19-0.14-0.37-0.21-0.56c-0.07-0.19-0.15-0.37-0.21-0.55c-0.07-0.18-0.11-0.36-0.13-0.55c-0.08-0.99-0.26-2.01-0.55-3.05c-0.29-1.04-0.61-2.04-0.97-2.99c-0.06-0.15-0.11-0.35-0.17-0.59c-0.06-0.24-0.11-0.48-0.17-0.7c-0.06-0.23-0.12-0.42-0.18-0.58c-0.07-0.16-0.14-0.24-0.21-0.24c-0.08,0-0.14,0.01-0.2,0.03c-0.06,0.02-0.12,0.03-0.2,0.03c-0.17,0-0.34-0.02-0.51-0.06c-0.17-0.04-0.34-0.06-0.51-0.06c-0.21,0-0.41,0.02-0.62,0.06c-0.21,0.04-0.41,0.06-0.62,0.06h-0.08c-0.19,0-0.28,0.12-0.28,0.37c0,0.11,0.1,0.28,0.31,0.49c0.21,0.22,0.34,0.46,0.39,0.72c0.04,0.21,0.07,0.41,0.08,0.6c0.02,0.2,0.04,0.4,0.06,0.6c0,0.15-0.01,0.3-0.03,0.45c-0.02,0.15-0.03,0.3-0.03,0.45v0.65c0,0.17-0.01,0.34-0.04,0.51c-0.03,0.17-0.04,0.33-0.04,0.48c0,0.32,0.03,0.66,0.1,1.01c0.07,0.36,0.1,0.71,0.1,1.07c0,0.24-0.02,0.49-0.06,0.73c-0.04,0.24-0.06,0.5-0.06,0.76c0,0.22,0.02,0.46,0.07,0.7c0.05,0.24,0.07,0.48,0.07,0.7c0,0.23-0.02,0.46-0.07,0.72c-0.05,0.25-0.07,0.51-0.07,0.77c0,0.37,0.01,0.75,0.04,1.12c0.03,0.37,0.04,0.76,0.04,1.15c0,0.22-0.02,0.45-0.06,0.69c-0.04,0.23-0.06,0.45-0.06,0.66c0,0.15,0.01,0.29,0.04,0.42c0.03,0.13,0.04,0.26,0.04,0.39c0,0.22-0.02,0.45-0.06,0.66c-0.04,0.22-0.06,0.43-0.06,0.63c0,0.19,0.02,0.37,0.07,0.55c0.05,0.18,0.07,0.36,0.07,0.55c0,0.37-0.07,0.74-0.21,1.11c-0.14,0.37-0.33,0.55-0.58,0.55c-0.13,0-0.2,0.05-0.2,0.14c0,0.15,0.02,0.3,0.07,0.46c0.05,0.16,0.14,0.24,0.3,0.24c0.04,0,0.07,0,0.1-0.01c0.03-0.01,0.06-0.01,0.1-0.01h0.17c0.13,0,0.26,0,0.38-0.01c0.12-0.01,0.25-0.01,0.38-0.01c0.15,0,0.3,0.01,0.45,0.04c0.15,0.03,0.3,0.04,0.45,0.04c0.17,0,0.35,0,0.53-0.01c0.19-0.01,0.37-0.03,0.53-0.07c0.17-0.04,0.31-0.1,0.42-0.18c0.11-0.08,0.17-0.2,0.17-0.35s-0.12-0.24-0.37-0.28c-0.02,0-0.04,0-0.06,0.01c-0.02,0.01-0.04,0.01-0.06,0.01c-0.21,0-0.34-0.13-0.39-0.38c-0.06-0.25-0.08-0.45-0.08-0.6c0-0.09,0.01-0.23,0.03-0.41c0.02-0.18,0.04-0.35,0.06-0.52c0.02-0.17,0.05-0.38,0.08-0.62c0-0.24-0.02-0.49-0.07-0.73c-0.05-0.24-0.07-0.49-0.07-0.73c0-0.22,0.02-0.45,0.07-0.69c0.05-0.23,0.07-0.46,0.07-0.69c0-0.28-0.03-0.56-0.1-0.83c-0.07-0.27-0.1-0.56-0.1-0.86c0-0.19-0.01-0.39-0.03-0.62c-0.02-0.23-0.03-0.44-0.03-0.65c0-0.37,0.02-0.74,0.07-1.1c0.05-0.36,0.12-0.72,0.21-1.1c0.11,0.04,0.24,0.25,0.39,0.65c0.15,0.39,0.29,0.85,0.44,1.36c0.14,0.52,0.26,1.02,0.37,1.5c0.1,0.49,0.17,0.83,0.21,1.04c0.11,0.71,0.31,1.41,0.59,2.08c0.28,0.67,0.5,1.37,0.65,2.08c0.04,0.19,0.08,0.42,0.14,0.7c0.06,0.28,0.12,0.55,0.2,0.82s0.15,0.49,0.22,0.67c0.07,0.19,0.16,0.28,0.25,0.28c0.19,0,0.37,0.02,0.53,0.06c0.17,0.04,0.36,0.06,0.56,0.06c0.23,0,0.37-0.02,0.45-0.06c0.07-0.04,0.14-0.16,0.2-0.37c0.22-0.81,0.44-1.6,0.66-2.39c0.21-0.79,0.44-1.59,0.69-2.42c0.21-0.77,0.43-1.5,0.67-2.21c0.24-0.7,0.39-1.38,0.45-2.04c0.02-0.15,0.05-0.32,0.08-0.52c0.04-0.2,0.08-0.39,0.14-0.59c0.06-0.2,0.12-0.37,0.2-0.52c0.07-0.15,0.16-0.25,0.25-0.31c0.09,0.26,0.15,0.55,0.17,0.86c0.02,0.31,0.03,0.59,0.03,0.86c0,0.15-0.01,0.31-0.03,0.46c-0.02,0.16-0.03,0.31-0.03,0.46v0.51c0,0.11,0,0.22-0.01,0.34c-0.01,0.11-0.01,0.22-0.01,0.34c0,0.13,0.03,0.27,0.08,0.42c0.06,0.15,0.08,0.3,0.08,0.45c0,0.3-0.03,0.6-0.08,0.88c-0.06,0.29-0.08,0.58-0.08,0.86c0,0.21,0.03,0.4,0.08,0.59c0.06,0.19,0.08,0.38,0.08,0.59c0,0.19-0.03,0.37-0.08,0.55c-0.06,0.18-0.08,0.37-0.08,0.58c0,0.09,0,0.18,0,0.27s0.01,0.17,0.03,0.27c0,0.21-0.02,0.37-0.06,0.49c-0.04,0.12-0.09,0.23-0.15,0.34c-0.07,0.1-0.15,0.2-0.27,0.3c-0.11,0.09-0.25,0.22-0.42,0.39c-0.08,0.11-0.11,0.2-0.11,0.25c0,0.11,0.05,0.2,0.15,0.25c0.1,0.06,0.23,0.1,0.37,0.13c0.14,0.03,0.29,0.05,0.44,0.06c0.15,0.01,0.28,0.01,0.39,0.01c0.09,0,0.19-0.02,0.28-0.06c0.09-0.04,0.19-0.06,0.28-0.06c0.13,0,0.24,0.05,0.32,0.14c0.08,0.09,0.19,0.14,0.32,0.14c0.11,0,0.25-0.02,0.42-0.06c0.17-0.04,0.33-0.09,0.49-0.15c0.16-0.06,0.3-0.14,0.41-0.21c0.11-0.08,0.17-0.14,0.17-0.2c0-0.04,0-0.08-0.01-0.13c-0.01-0.05-0.01-0.09-0.01-0.13c0-0.06,0.01-0.11,0.04-0.15c0.03-0.05,0.04-0.11,0.04-0.18c0-0.04-0.02-0.09-0.07-0.15c-0.05-0.06-0.1-0.1-0.15-0.1c-0.06,0-0.11,0.03-0.15,0.1c-0.05,0.07-0.11,0.1-0.18,0.1c-0.09,0-0.18-0.1-0.25-0.3c-0.08-0.2-0.11-0.34-0.11-0.43v-0.53c0-0.23,0-0.45-0.01-0.69c-0.01-0.23-0.01-0.46-0.01-0.69c0-0.19,0.01-0.37,0.03-0.55c0.02-0.18,0.03-0.36,0.03-0.55c0-0.15,0-0.3-0.01-0.44c-0.01-0.14-0.01-0.29-0.01-0.44c0-0.19,0.01-0.37,0.03-0.55c0.02-0.18,0.06-0.35,0.11-0.52c0-0.02,0-0.04-0.01-0.06c-0.01-0.02-0.01-0.04-0.01-0.06c0-0.15,0.01-0.31,0.03-0.48c0.02-0.17,0.03-0.33,0.03-0.48c0-0.11-0.02-0.23-0.06-0.35c-0.04-0.12-0.06-0.24-0.06-0.35c0-0.28,0-0.56-0.01-0.84c-0.01-0.28-0.01-0.57-0.01-0.87c0-0.37,0.03-0.76,0.08-1.17c0.06-0.4,0.08-0.8,0.08-1.2c0-0.06-0.01-0.11-0.03-0.15c-0.02-0.05-0.03-0.1-0.03-0.15c0-0.17,0.04-0.37,0.11-0.59C133.91,20.03,133.99,19.82,134.09,19.61z M145.48,22.58c-0.08-0.16-0.16-0.32-0.21-0.49c-0.06-0.17-0.11-0.33-0.17-0.48c-0.06-0.15-0.14-0.28-0.25-0.39c-0.26-0.26-0.44-0.56-0.52-0.88c-0.08-0.33-0.23-0.58-0.44-0.75c-0.3-0.22-0.64-0.46-1.01-0.72c-0.37-0.25-0.72-0.38-1.04-0.38c-0.32,0-0.6-0.07-0.86-0.22c-0.25-0.15-0.49-0.23-0.72-0.23c-0.84,0-1.6,0.19-2.28,0.58c-0.68,0.38-1.34,0.95-2,1.7c-0.28,0.34-0.51,0.77-0.69,1.31c-0.18,0.53-0.27,1.04-0.27,1.5c0,0.21,0.01,0.4,0.03,0.58c0.02,0.18,0.03,0.37,0.03,0.58c0,0.22-0.05,0.44-0.15,0.65c-0.1,0.21-0.15,0.4-0.15,0.59c0,0.19,0.05,0.35,0.14,0.48c0.11,0.21,0.18,0.42,0.21,0.65c0.03,0.22,0.05,0.46,0.07,0.7c0,0.09-0.01,0.19-0.03,0.28c-0.02,0.09-0.03,0.19-0.03,0.28c0,0.26,0,0.55,0.01,0.86c0.01,0.31,0.03,0.61,0.06,0.9c0.03,0.29,0.08,0.55,0.15,0.77c0.07,0.22,0.19,0.39,0.34,0.51c0.11,0.09,0.21,0.22,0.3,0.38c0.08,0.16,0.17,0.33,0.25,0.51c0.08,0.18,0.17,0.34,0.25,0.49c0.08,0.15,0.18,0.24,0.29,0.28c0.28,0.11,0.55,0.26,0.8,0.45c0.25,0.19,0.55,0.33,0.88,0.42c0.28,0.09,0.56,0.15,0.83,0.18c0.27,0.03,0.55,0.05,0.83,0.07c0.06,0,0.11,0,0.17-0.01c0.06-0.01,0.11-0.01,0.17-0.01c0.11,0,0.22,0.01,0.32,0.03c0.1,0.02,0.2,0.03,0.29,0.03c0.51,0,0.93-0.17,1.26-0.51c0.13-0.13,0.32-0.23,0.56-0.31c0.24-0.06,0.49-0.2,0.73-0.44c0.24-0.23,0.47-0.51,0.67-0.82c0.21-0.31,0.38-0.63,0.52-0.96c0.14-0.33,0.22-0.61,0.24-0.86c0.02-0.26,0.06-0.54,0.13-0.84c0.07-0.3,0.1-0.57,0.1-0.82c0-0.11-0.05-0.21-0.15-0.28c-0.1-0.07-0.23-0.14-0.37-0.18c-0.14-0.05-0.28-0.08-0.41-0.11c-0.13-0.03-0.23-0.04-0.31-0.04c-0.39,0-0.67,0.12-0.84,0.35c-0.17,0.23-0.28,0.59-0.34,1.07c-0.04,0.26-0.13,0.53-0.28,0.79c-0.15,0.27-0.32,0.52-0.52,0.75c-0.2,0.23-0.4,0.42-0.62,0.57c-0.22,0.15-0.41,0.22-0.58,0.22h-0.28c-0.07,0-0.15,0.01-0.21,0.01c-0.07,0.01-0.14,0.01-0.21,0.01c-0.37,0-0.71-0.1-1.01-0.31c-0.3-0.21-0.61-0.41-0.93-0.62c-0.21-0.13-0.37-0.34-0.48-0.62c-0.11-0.28-0.2-0.58-0.25-0.91c-0.06-0.33-0.1-0.67-0.13-1.02c-0.03-0.36-0.07-0.67-0.13-0.95c0.07-0.22,0.11-0.48,0.11-0.76v-0.56c0-0.21,0.02-0.4,0.06-0.57c0.04-0.18,0.06-0.36,0.06-0.55v-0.36c0-0.26,0.01-0.54,0.03-0.83c0.02-0.29,0.06-0.57,0.11-0.84c0.06-0.27,0.14-0.52,0.27-0.74c0.12-0.22,0.29-0.41,0.49-0.56c0.13-0.07,0.22-0.16,0.28-0.25c0.09-0.17,0.21-0.27,0.37-0.31c0.15-0.04,0.31-0.07,0.48-0.08c0.41,0,0.76,0.01,1.05,0.03c0.29,0.02,0.56,0.08,0.8,0.2c0.24,0.11,0.47,0.28,0.69,0.51c0.22,0.22,0.45,0.53,0.72,0.93c0.02,0.04,0.03,0.09,0.03,0.17c0,0.15-0.05,0.27-0.14,0.35c-0.09,0.08-0.2,0.16-0.32,0.22c-0.12,0.07-0.23,0.13-0.32,0.2c-0.09,0.07-0.14,0.15-0.14,0.27c0,0.15,0.06,0.24,0.18,0.28c0.12,0.04,0.23,0.06,0.32,0.06h0.39c0.09,0,0.19,0,0.29,0.01c0.1,0.01,0.2,0.01,0.29,0.01c0.28,0,0.56-0.02,0.84-0.06c0.28-0.04,0.55-0.06,0.81-0.06c0.09,0,0.18,0.01,0.25,0.03c0.07,0.02,0.16,0.03,0.25,0.03c0.13,0,0.24-0.05,0.34-0.14c0.09-0.09,0.14-0.19,0.14-0.28c0-0.13-0.05-0.23-0.14-0.31C145.7,22.87,145.57,22.74,145.48,22.58z M157.47,17.24c-0.15-0.06-0.27-0.17-0.37-0.35c-0.09-0.18-0.18-0.37-0.25-0.59c-0.08-0.22-0.14-0.43-0.21-0.63c-0.07-0.21-0.14-0.37-0.21-0.48c-0.19-0.26-0.38-0.53-0.59-0.81c-0.21-0.28-0.44-0.51-0.7-0.7c-0.58-0.38-1.14-0.66-1.67-0.84c-0.53-0.18-1.1-0.27-1.7-0.27c-0.21,0-0.5,0.05-0.89,0.15c-0.38,0.1-0.77,0.24-1.15,0.42c-0.38,0.18-0.73,0.38-1.03,0.62c-0.3,0.23-0.48,0.48-0.53,0.75c-0.02,0.06-0.04,0.11-0.07,0.16c-0.03,0.05-0.06,0.09-0.1,0.13c-0.23,0.34-0.41,0.69-0.56,1.06c-0.15,0.37-0.22,0.75-0.22,1.14c0,0.09,0,0.2,0.01,0.31c0.01,0.11,0.01,0.21,0.01,0.28c-0.07,0.3-0.11,0.63-0.11,0.99c0,0.09,0,0.2,0,0.31c0,0.11,0.01,0.22,0.03,0.31c0,0.38-0.02,0.74-0.07,1.1c-0.05,0.36-0.07,0.72-0.07,1.1c0,0.34,0.01,0.68,0.04,1.01c0.03,0.34,0.04,0.67,0.04,0.99c0,0.34-0.02,0.68-0.07,1.01c-0.05,0.34-0.07,0.68-0.07,1.01c0,0.21,0.01,0.41,0.04,0.62c0.03,0.21,0.04,0.41,0.04,0.62c0,0.36-0.03,0.71-0.08,1.07c-0.06,0.36-0.08,0.71-0.08,1.07c0,0.26,0.03,0.52,0.08,0.76c0.06,0.24,0.08,0.5,0.08,0.76v0.25c0,0.39,0.18,0.78,0.53,1.17c0.36,0.38,0.79,0.73,1.31,1.04c0.52,0.31,1.05,0.56,1.62,0.75c0.56,0.19,1.05,0.28,1.46,0.28c1.01,0,1.85-0.2,2.5-0.6c0.66-0.4,1.18-0.87,1.56-1.41c0.38-0.53,0.65-1.07,0.79-1.6c0.14-0.53,0.21-0.93,0.21-1.19c0-0.13-0.01-0.27-0.03-0.42c-0.02-0.15-0.07-0.29-0.15-0.42c-0.08-0.13-0.21-0.24-0.37-0.34c-0.16-0.09-0.38-0.14-0.66-0.14c-0.43,0-0.74,0.17-0.93,0.52c-0.19,0.35-0.33,0.74-0.42,1.19c-0.09,0.66-0.39,1.18-0.9,1.56c-0.51,0.38-1.1,0.58-1.77,0.58c-0.21,0-0.4-0.03-0.58-0.1c-0.18-0.07-0.35-0.18-0.52-0.35c-0.19-0.17-0.33-0.28-0.44-0.34c-0.1-0.06-0.21-0.18-0.32-0.37c-0.3-0.43-0.48-0.89-0.55-1.39c-0.07-0.5-0.1-1-0.1-1.5c0-0.13,0.02-0.25,0.07-0.37c0.05-0.11,0.07-0.23,0.07-0.37c0-0.22-0.02-0.46-0.06-0.7c-0.04-0.24-0.06-0.49-0.06-0.73c0-0.21,0-0.42,0.01-0.63c0.01-0.21,0.02-0.43,0.04-0.63c0-0.11-0.01-0.22-0.01-0.34c-0.01-0.11-0.01-0.23-0.01-0.34c0-0.26,0.02-0.52,0.07-0.76c0.05-0.24,0.07-0.5,0.07-0.76c0-0.3-0.01-0.59-0.04-0.87c-0.03-0.28-0.04-0.57-0.04-0.87c0-0.51,0.02-1.05,0.07-1.63c0.05-0.58,0.15-1.12,0.31-1.63c0.16-0.51,0.39-0.94,0.69-1.29c0.3-0.36,0.7-0.56,1.21-0.62c0.13-0.02,0.28-0.04,0.44-0.06c0.16-0.02,0.3-0.03,0.41-0.03c0.22,0,0.45,0.08,0.69,0.22c0.23,0.15,0.45,0.33,0.63,0.53c0.19,0.21,0.34,0.42,0.46,0.65c0.12,0.22,0.18,0.42,0.18,0.59c0,0.15-0.03,0.26-0.1,0.32c-0.07,0.07-0.13,0.13-0.2,0.18c-0.07,0.06-0.13,0.12-0.2,0.18c-0.07,0.07-0.1,0.16-0.1,0.27c0,0.17,0.03,0.28,0.08,0.32c0.06,0.05,0.13,0.07,0.22,0.07h0.17c0.11,0,0.24,0.02,0.38,0.06c0.14,0.04,0.28,0.06,0.41,0.06c0.36,0,0.71-0.02,1.07-0.07c0.36-0.05,0.71-0.07,1.07-0.07c0.36,0,0.53-0.16,0.53-0.48C157.84,17.48,157.72,17.33,157.47,17.24z M167.18,32.63c0.17,0.11,0.25,0.27,0.25,0.48c0,0.13-0.03,0.23-0.1,0.28c-0.07,0.06-0.15,0.09-0.24,0.11c-0.09,0.02-0.19,0.02-0.29,0.01c-0.1-0.01-0.19-0.01-0.27-0.01c-0.15,0-0.29-0.01-0.42-0.04c-0.13-0.03-0.27-0.04-0.42-0.04c-0.17,0-0.34,0.03-0.51,0.08c-0.17,0.06-0.34,0.08-0.51,0.08c-0.17,0-0.38-0.03-0.62-0.08c-0.24-0.06-0.37-0.17-0.37-0.34c0-0.13,0.05-0.23,0.14-0.31c0.09-0.07,0.19-0.14,0.3-0.2c0.1-0.06,0.2-0.12,0.29-0.18c0.09-0.07,0.14-0.15,0.14-0.27c0-0.06,0-0.11-0.01-0.17c-0.01-0.06-0.01-0.11-0.01-0.17c0-0.23,0.02-0.45,0.06-0.67c0.04-0.22,0.06-0.45,0.06-0.67c0-0.22-0.01-0.45-0.03-0.67c-0.02-0.23-0.03-0.44-0.03-0.65c0-0.06,0.01-0.12,0.03-0.2s0.03-0.14,0.03-0.2c0-0.32-0.09-0.65-0.27-1c-0.18-0.35-0.45-0.52-0.8-0.52c-0.28,0-0.52,0.11-0.72,0.34c-0.2,0.22-0.32,0.45-0.38,0.67c-0.09,0.32-0.22,0.55-0.37,0.7c-0.15,0.15-0.22,0.37-0.22,0.65c0,0.32,0.01,0.63,0.04,0.94c0.03,0.31,0.04,0.62,0.04,0.94c0,0.3,0.04,0.52,0.13,0.66c0.08,0.14,0.18,0.25,0.3,0.34c0.11,0.08,0.21,0.16,0.29,0.24c0.08,0.07,0.13,0.18,0.13,0.31c0,0.28-0.11,0.46-0.34,0.53c-0.22,0.08-0.44,0.11-0.65,0.11c-0.13,0-0.26-0.02-0.38-0.06c-0.12-0.04-0.26-0.06-0.41-0.06c-0.09,0-0.18,0.02-0.25,0.07c-0.08,0.05-0.16,0.07-0.25,0.07c-0.09,0-0.2-0.04-0.32-0.11c-0.12-0.07-0.25-0.11-0.38-0.11c-0.11,0-0.22,0.02-0.34,0.06c-0.11,0.04-0.22,0.08-0.34,0.11c-0.32,0-0.48-0.14-0.48-0.42c0-0.09,0.04-0.19,0.11-0.3c0.07-0.1,0.16-0.2,0.25-0.29c0.09-0.09,0.18-0.17,0.25-0.24c0.08-0.07,0.11-0.12,0.11-0.15c0-0.06-0.02-0.11-0.06-0.17c-0.04-0.06-0.06-0.1-0.06-0.14c0-0.06,0.04-0.14,0.11-0.27c0.08-0.12,0.11-0.24,0.11-0.35v-0.31c0-0.15,0.01-0.29,0.04-0.42c0.03-0.13,0.04-0.27,0.04-0.42c0-0.09-0.01-0.19-0.01-0.28c-0.01-0.09-0.01-0.19-0.01-0.28c0-0.22,0.02-0.43,0.06-0.6c0.04-0.18,0.05-0.37,0.05-0.58c0-0.34-0.04-0.67-0.13-1c-0.08-0.33-0.13-0.65-0.13-0.97c0-0.28,0.04-0.56,0.11-0.84c0.08-0.28,0.11-0.56,0.11-0.84c0-0.11,0-0.22-0.01-0.32c-0.01-0.1-0.01-0.21-0.01-0.32c-0.09-0.75-0.13-1.49-0.11-2.24c0.02-0.74-0.02-1.47-0.11-2.18c-0.04-0.19-0.09-0.34-0.17-0.46c-0.08-0.12-0.16-0.22-0.25-0.31c-0.09-0.08-0.17-0.16-0.24-0.22c-0.07-0.07-0.1-0.14-0.1-0.24c0-0.26,0.11-0.41,0.34-0.44c0.23-0.03,0.44-0.04,0.65-0.04c0.15,0,0.28,0.02,0.41,0.06c0.12,0.04,0.25,0.06,0.38,0.06c0.26,0,0.53,0,0.8-0.01c0.27-0.01,0.55-0.01,0.83-0.01c0.43,0,0.9,0,1.4,0.01c0.51,0.01,0.98,0.06,1.43,0.15c0.32,0.06,0.6,0.18,0.84,0.38c0.24,0.2,0.45,0.43,0.62,0.69c0.17,0.26,0.29,0.54,0.38,0.83c0.08,0.29,0.13,0.58,0.13,0.86c0,0.77-0.07,1.46-0.21,2.08c-0.14,0.62-0.4,1.2-0.77,1.74c-0.09,0.09-0.17,0.22-0.24,0.38c-0.07,0.16-0.1,0.26-0.1,0.29c0.28,0.37,0.51,0.72,0.69,1.03c0.18,0.31,0.34,0.66,0.48,1.04c0.14,0.38,0.21,0.75,0.21,1.11c0,0.21-0.01,0.42-0.04,0.63c-0.03,0.22-0.04,0.43-0.04,0.63c0,0.09,0.02,0.2,0.06,0.31c0.04,0.11,0.06,0.22,0.06,0.34c0,0.21-0.02,0.42-0.07,0.65c-0.05,0.22-0.07,0.45-0.07,0.68C166.82,32.25,166.94,32.48,167.18,32.63z M164.29,22.48c0-0.21,0-0.43-0.01-0.67c-0.01-0.24-0.05-0.47-0.11-0.69c-0.07-0.21-0.17-0.4-0.31-0.55c-0.14-0.15-0.33-0.22-0.58-0.22c-0.28,0-0.52,0.07-0.72,0.21c-0.2,0.14-0.35,0.31-0.46,0.51c-0.11,0.2-0.19,0.41-0.24,0.63c-0.05,0.22-0.07,0.42-0.07,0.59c0,0.19,0.05,0.37,0.14,0.53c0.09,0.17,0.14,0.33,0.14,0.48c0,0.19-0.05,0.4-0.14,0.63c-0.09,0.24-0.14,0.45-0.14,0.66c0,0.15,0,0.31,0,0.48c0,0.17,0.07,0.25,0.23,0.25c0.22-0.06,0.42-0.2,0.59-0.44c0.17-0.23,0.37-0.43,0.59-0.58c0.13-0.07,0.27-0.2,0.41-0.37c0.14-0.17,0.26-0.35,0.35-0.53c0.09-0.19,0.17-0.37,0.24-0.53C164.26,22.71,164.29,22.57,164.29,22.48z M191.47,32.33c0.07-0.23,0.1-0.49,0.1-0.77c-0.02-0.09-0.03-0.18-0.04-0.27c-0.01-0.08-0.01-0.17-0.01-0.27c0-0.11,0-0.22,0.01-0.34c0.01-0.11,0.02-0.22,0.04-0.34c0-0.22-0.01-0.51-0.04-0.87c-0.03-0.36-0.09-0.7-0.18-1.04c-0.09-0.34-0.22-0.63-0.39-0.87c-0.17-0.24-0.39-0.37-0.67-0.37c-0.26,0-0.48,0.15-0.65,0.44c-0.17,0.29-0.3,0.63-0.41,1.01c-0.1,0.38-0.18,0.77-0.22,1.15c-0.05,0.38-0.07,0.67-0.07,0.86c0,0.32,0.01,0.65,0.04,0.98c0.03,0.34,0.04,0.68,0.04,1.01c-0.02,0.17-0.04,0.34-0.06,0.52c-0.02,0.18-0.03,0.35-0.03,0.52c0,0.26,0.01,0.53,0.04,0.82c0.03,0.28,0.09,0.54,0.18,0.77c0.09,0.23,0.23,0.43,0.41,0.59c0.18,0.16,0.42,0.24,0.72,0.24c0.15,0,0.29,0,0.42,0.01c0.13,0.01,0.27,0.01,0.42,0.01c0.17,0,0.39,0.01,0.66,0.03c0.27,0.02,0.54,0.07,0.82,0.14c0.27,0.07,0.5,0.19,0.7,0.34c0.2,0.15,0.29,0.36,0.29,0.62c0,0.32-0.12,0.63-0.35,0.94c-0.23,0.31-0.55,0.46-0.94,0.46c-0.79-0.02-1.55-0.04-2.28-0.06c-0.73-0.02-1.44-0.11-2.14-0.28c-0.69-0.17-1.37-0.44-2.04-0.8c-0.67-0.37-1.32-0.9-1.95-1.62c-0.26-0.26-0.6-0.51-1.03-0.75c-0.42-0.23-0.81-0.46-1.17-0.66c-0.51-0.3-1.09-0.52-1.76-0.66c-0.67-0.14-1.38-0.21-2.15-0.21c-0.32,0-0.64,0.01-0.96,0.03c-0.32,0.02-0.64,0.03-0.96,0.03h-0.22c-0.04,0-0.07,0-0.08,0.01c-0.02,0.01-0.05,0.01-0.08,0.01c-0.02,0-0.03,0-0.04-0.01c-0.01-0.01-0.02-0.01-0.04-0.01c-0.04,0-0.08,0.01-0.13,0.03c-0.05,0.02-0.09,0.03-0.13,0.03c-0.06,0-0.12-0.07-0.2-0.21c-0.03-0.05-0.04-0.09-0.06-0.13c-0.1,0.02-0.21,0.04-0.32,0.09c-0.18,0.08-0.37,0.11-0.58,0.11c-0.21,0-0.41-0.03-0.6-0.1c-0.2-0.06-0.4-0.1-0.6-0.1c-0.19,0-0.37,0.02-0.56,0.07c-0.19,0.05-0.37,0.07-0.56,0.07c-0.21,0-0.4-0.02-0.58-0.06c-0.18-0.04-0.37-0.06-0.58-0.06c-0.19,0-0.43,0.04-0.73,0.13c-0.3,0.08-0.58,0.13-0.84,0.13c-0.15,0-0.26-0.05-0.34-0.15c-0.08-0.1-0.11-0.22-0.11-0.35c0-0.11,0.04-0.21,0.13-0.3c0.08-0.08,0.18-0.17,0.29-0.25c0.11-0.08,0.21-0.18,0.3-0.3c0.08-0.11,0.13-0.25,0.13-0.42c0-0.15-0.01-0.31-0.04-0.49c-0.03-0.18-0.04-0.35-0.04-0.52c0-0.15,0.02-0.29,0.07-0.41c0.05-0.12,0.07-0.26,0.07-0.41c0-0.34-0.03-0.68-0.08-1.04c-0.06-0.36-0.08-0.71-0.08-1.07c0-0.26,0.02-0.52,0.06-0.77c0.04-0.25,0.06-0.51,0.06-0.77c0-0.24-0.01-0.48-0.03-0.72c-0.02-0.23-0.03-0.48-0.03-0.75c0-0.3,0.01-0.59,0.03-0.89c0.02-0.29,0.03-0.59,0.03-0.89c0-0.24-0.03-0.48-0.1-0.7c-0.07-0.22-0.1-0.45-0.1-0.67c0-0.15,0.02-0.29,0.07-0.41c0.05-0.12,0.07-0.26,0.07-0.41c0-0.13,0-0.25-0.01-0.37c-0.01-0.11-0.01-0.23-0.01-0.37c0-0.07,0-0.14,0.01-0.2c0.01-0.06,0.01-0.12,0.01-0.2c0-0.06-0.08-0.19-0.25-0.41c-0.17-0.21-0.36-0.32-0.56-0.32c-0.08,0-0.12-0.05-0.14-0.14c-0.02-0.09-0.03-0.17-0.03-0.22c0-0.21,0.08-0.38,0.23-0.51c0.15-0.13,0.33-0.2,0.53-0.2c0.09,0,0.19,0.01,0.3,0.04c0.1,0.03,0.2,0.04,0.29,0.04c0.17,0,0.33-0.01,0.49-0.04c0.16-0.03,0.31-0.04,0.46-0.04c0.24,0,0.47,0.04,0.67,0.13c0.21,0.08,0.41,0.13,0.62,0.13c0.04,0,0.08,0,0.14-0.01c0.05-0.01,0.1-0.01,0.14-0.01c0.15,0,0.32,0.05,0.52,0.16c0.2,0.1,0.4,0.15,0.6,0.15c0.19,0,0.37-0.07,0.55-0.2c0.18-0.13,0.35-0.2,0.52-0.2c0.21,0,0.42,0.02,0.65,0.07c0.22,0.05,0.44,0.13,0.63,0.24c0.2,0.11,0.36,0.25,0.49,0.43c0.13,0.18,0.2,0.39,0.2,0.65c0,0.24-0.07,0.43-0.2,0.57c-0.13,0.14-0.29,0.24-0.49,0.3c-0.2,0.07-0.42,0.11-0.66,0.13c-0.24,0.02-0.48,0.03-0.7,0.03c-0.09,0-0.19-0.01-0.28-0.04c-0.09-0.03-0.19-0.04-0.28-0.04c-0.21,0-0.42,0.04-0.63,0.13c-0.22,0.08-0.45,0.13-0.69,0.13c-0.08,0-0.15,0-0.22-0.01c-0.08-0.01-0.16-0.01-0.25-0.01c-0.23,0-0.35,0.1-0.37,0.3c-0.02,0.2-0.03,0.45-0.03,0.76v0.31c0,0.09-0.01,0.18-0.03,0.26c-0.02,0.08-0.03,0.15-0.03,0.23c0,0.17,0.09,0.26,0.28,0.26h0.34c0.17,0,0.32,0.02,0.46,0.07c0.14,0.05,0.29,0.07,0.44,0.07c0.11,0,0.22-0.01,0.32-0.03c0.1-0.02,0.21-0.03,0.32-0.03c0.38,0,0.73,0.1,1.05,0.3c0.33,0.2,0.49,0.52,0.49,0.97c0,0.26-0.11,0.5-0.32,0.72c-0.22,0.22-0.54,0.32-0.97,0.32c-0.09,0-0.19-0.01-0.29-0.04c-0.1-0.03-0.2-0.04-0.3-0.04c-0.21,0-0.39,0.05-0.55,0.14c-0.16,0.09-0.34,0.14-0.55,0.14c-0.04,0-0.09-0.01-0.15-0.03c-0.07-0.02-0.13-0.03-0.18-0.03c-0.09,0-0.17,0.03-0.24,0.1c-0.07,0.07-0.1,0.15-0.1,0.27v0.22c0,0.13-0.01,0.25-0.03,0.37c-0.02,0.11-0.03,0.23-0.03,0.37c0,0.09,0.01,0.18,0.04,0.25c0.03,0.08,0.04,0.16,0.04,0.25c0,0.09-0.01,0.18-0.04,0.27c-0.03,0.08-0.04,0.17-0.04,0.27c0.02,0.34,0.02,0.7,0.01,1.1c-0.01,0.39,0.01,0.76,0.07,1.11c0.06,0.35,0.18,0.63,0.37,0.86c0.19,0.22,0.48,0.34,0.87,0.34c0.21-0.02,0.41-0.05,0.6-0.1c0.2-0.05,0.39-0.07,0.58-0.07c0.21,0,0.45,0.02,0.74,0.07c0.29,0.05,0.55,0.11,0.77,0.18c0.3,0.08,0.51,0.22,0.64,0.41c0.08-0.21,0.15-0.43,0.2-0.66c0.06-0.3,0.08-0.58,0.08-0.84v-0.22c0-0.36,0.03-0.71,0.1-1.05c0.07-0.35,0.14-0.69,0.21-1.03c0.07-0.34,0.15-0.68,0.21-1.03c0.07-0.35,0.11-0.7,0.13-1.05c0.04-0.96,0.13-1.9,0.29-2.84c0.16-0.94,0.29-1.89,0.38-2.87c0-0.06,0-0.11,0.01-0.15c0.01-0.05,0.01-0.1,0.01-0.15c0-0.19-0.04-0.32-0.11-0.41c-0.07-0.08-0.16-0.16-0.25-0.24c-0.09-0.08-0.19-0.16-0.29-0.27c-0.1-0.1-0.18-0.26-0.24-0.46c-0.02-0.02-0.03-0.05-0.03-0.08c0-0.09,0.06-0.15,0.17-0.18c0.11-0.03,0.21-0.04,0.31-0.04c0.09,0,0.2,0.01,0.31,0.03c0.11,0.02,0.22,0.03,0.34,0.03c0.21,0,0.42-0.03,0.65-0.08c0.23-0.06,0.46-0.08,0.7-0.08c0.39,0,0.77,0.03,1.12,0.1c0.36,0.07,0.72,0.1,1.1,0.1c0.37-0.04,0.75-0.05,1.14-0.03c0.38,0.02,0.76-0.03,1.14-0.14c0.04,0,0.06,0,0.07-0.01c0.01-0.01,0.03-0.01,0.07-0.01c0.15,0,0.26,0.05,0.32,0.14c0.06,0.09,0.1,0.22,0.1,0.37c-0.04,0.17-0.12,0.27-0.25,0.31c-0.22,0.09-0.38,0.23-0.45,0.42c-0.08,0.19-0.11,0.39-0.11,0.62c0,0.52,0.08,1.03,0.25,1.52c0.17,0.49,0.25,0.98,0.25,1.49v0.31c0,0.26,0.05,0.51,0.14,0.75c0.09,0.23,0.14,0.48,0.14,0.74v0.28c0,0.41,0.05,0.81,0.15,1.19c0.1,0.38,0.17,0.77,0.21,1.17c0.04,0.34,0.06,0.72,0.08,1.14c0.02,0.42,0.06,0.84,0.11,1.27c0.06,0.42,0.13,0.81,0.23,1.17c0.09,0.36,0.24,0.63,0.45,0.81c0.15,0.15,0.23,0.31,0.24,0.49c0.01,0.18,0.02,0.36,0.04,0.55c0,0.09-0.04,0.14-0.11,0.14c-0.08,0-0.19-0.06-0.35-0.17c-0.16-0.11-0.34-0.25-0.54-0.41c-0.2-0.16-0.41-0.32-0.63-0.48c-0.22-0.16-0.44-0.29-0.65-0.38c-0.19-0.07-0.39-0.15-0.6-0.23c-0.22-0.07-0.42-0.16-0.62-0.25c-0.2-0.09-0.36-0.19-0.49-0.3c-0.13-0.1-0.2-0.23-0.2-0.38c0-0.07,0.04-0.14,0.11-0.2c0.08-0.06,0.15-0.11,0.24-0.17c0.08-0.06,0.16-0.12,0.24-0.18c0.07-0.07,0.11-0.16,0.11-0.27c0-0.13-0.01-0.3-0.04-0.52c-0.03-0.22-0.08-0.42-0.14-0.62c-0.07-0.2-0.15-0.37-0.25-0.52c-0.1-0.15-0.24-0.22-0.41-0.22c-0.24,0-0.51,0.04-0.8,0.11c-0.29,0.08-0.56,0.17-0.82,0.29c-0.25,0.12-0.46,0.27-0.63,0.45c-0.17,0.18-0.26,0.38-0.28,0.6c-0.02,0.21-0.05,0.42-0.08,0.63c-0.04,0.22-0.06,0.42-0.06,0.6c0,0.26,0.08,0.48,0.24,0.65c0.16,0.17,0.36,0.25,0.6,0.25c0.64,0,1.23,0.09,1.79,0.28c0.55,0.19,1.07,0.42,1.56,0.7c0.49,0.28,0.94,0.59,1.36,0.93c0.42,0.34,0.83,0.66,1.22,0.95c0.09,0.04,0.17,0.09,0.24,0.14c0.07,0.06,0.15,0.08,0.24,0.08c0.15,0,0.24-0.07,0.27-0.21c0.03-0.14,0.04-0.27,0.04-0.38c0-0.07-0.01-0.14-0.01-0.21c-0.01-0.07-0.01-0.15-0.01-0.24c0-0.26,0.02-0.53,0.07-0.82c0.05-0.28,0.07-0.56,0.07-0.84c0-0.17-0.02-0.33-0.07-0.49c-0.05-0.16-0.07-0.33-0.07-0.52c0-0.39,0-0.78,0.01-1.17c0.01-0.38,0.06-0.77,0.15-1.17c0-0.04,0-0.07,0.01-0.08c0.01-0.02,0.01-0.05,0.01-0.08c0-0.26-0.04-0.55-0.13-0.86c-0.08-0.31-0.13-0.61-0.13-0.91c0-0.28,0.01-0.56,0.03-0.83c0.02-0.27,0.03-0.55,0.03-0.83c0-0.26,0-0.52-0.01-0.79c-0.01-0.26-0.01-0.52-0.01-0.79c0.04-0.3,0.07-0.6,0.1-0.9c0.03-0.3,0.04-0.6,0.04-0.9c0-0.21,0-0.43,0-0.66c0-0.23-0.02-0.46-0.06-0.69c-0.04-0.23-0.1-0.43-0.18-0.62s-0.22-0.33-0.41-0.42c-0.21-0.11-0.31-0.29-0.31-0.53c0-0.24,0.08-0.37,0.25-0.37h0.11h0.28c0.26,0,0.52,0.01,0.77,0.04c0.25,0.03,0.51,0.04,0.77,0.04c0.34,0,0.67-0.02,1.01-0.06c0.34-0.04,0.68-0.06,1.04-0.06c0.49,0,0.97,0.02,1.46,0.07c0.49,0.05,0.93,0.18,1.32,0.41c0.39,0.23,0.71,0.57,0.96,1.04c0.24,0.47,0.37,1.13,0.37,2c0,0.62-0.11,1.25-0.32,1.88c-0.22,0.64-0.54,1.19-0.97,1.66c-0.09,0.09-0.14,0.18-0.14,0.25c0,0.06,0.05,0.11,0.14,0.17c0.54,0.39,0.91,0.91,1.11,1.56c0.2,0.65,0.29,1.27,0.29,1.87c0,0.41-0.02,0.82-0.06,1.22c-0.04,0.4-0.06,0.81-0.06,1.22c0,0.32,0.03,0.59,0.1,0.8c0.06,0.22,0.24,0.39,0.52,0.52c0.22,0.13,0.34,0.27,0.34,0.42c0,0.21-0.08,0.36-0.22,0.45c-0.15,0.09-0.34,0.16-0.56,0.2c-0.23,0.04-0.46,0.05-0.7,0.04c-0.24-0.01-0.46-0.01-0.65-0.01c-0.15,0-0.29,0-0.42-0.01c-0.13-0.01-0.27-0.01-0.42-0.01h-0.73c-0.3-0.02-0.45-0.15-0.45-0.39c0-0.09,0.01-0.18,0.04-0.27c0.03-0.08,0.09-0.14,0.18-0.18C191.22,32.73,191.4,32.57,191.47,32.33z M179.76,24.28c0,0.45,0.25,0.67,0.76,0.67c0.41,0,0.68-0.12,0.8-0.35c0.12-0.23,0.18-0.56,0.18-0.97c0-0.26-0.02-0.59-0.07-0.97c-0.05-0.38-0.11-0.75-0.2-1.11c-0.08-0.36-0.19-0.66-0.31-0.91c-0.12-0.25-0.25-0.38-0.38-0.38c-0.15,0-0.29,0.11-0.42,0.34c-0.13,0.23-0.2,0.41-0.2,0.56c0,0.06,0.01,0.11,0.03,0.15c0.02,0.05,0.03,0.1,0.03,0.16c0,0.06-0.01,0.09-0.03,0.11c-0.08,0.43-0.13,0.88-0.15,1.35C179.78,23.4,179.76,23.85,179.76,24.28z M191.15,21.44c0-0.07,0.02-0.19,0.06-0.34c0-0.24-0.15-0.45-0.46-0.62c-0.31-0.17-0.6-0.25-0.86-0.25c-0.13,0.02-0.31,0.04-0.55,0.07c-0.23,0.03-0.35,0.13-0.35,0.29v0.14c0,0.09-0.01,0.19-0.03,0.29c-0.02,0.1-0.03,0.2-0.03,0.3c0,0.21,0.01,0.4,0.04,0.58c0.03,0.18,0.04,0.37,0.04,0.58c0,0.11,0,0.23-0.01,0.37c-0.01,0.13-0.01,0.25-0.01,0.37c0,0.13,0,0.28,0.01,0.45c0.01,0.17,0.02,0.33,0.03,0.49c0.01,0.16,0.03,0.3,0.06,0.41c0.03,0.11,0.07,0.17,0.13,0.17c0.26,0,0.51-0.12,0.76-0.37c0.24-0.24,0.45-0.52,0.63-0.84c0.18-0.32,0.32-0.62,0.44-0.9c0.11-0.28,0.17-0.47,0.17-0.56c0-0.09-0.01-0.2-0.03-0.31C191.16,21.64,191.15,21.53,191.15,21.44z M210.16,38.11c-0.31-0.71-0.72-1.38-1.22-2c-0.26-0.3-0.54-0.57-0.84-0.8c-0.3-0.23-0.59-0.48-0.87-0.74c-0.45-0.43-0.99-0.73-1.63-0.9c-0.21-0.07-0.4-0.12-0.58-0.14c-0.18-0.02-0.37,0.07-0.58,0.25c-0.36,0.3-0.53,0.65-0.51,1.04c0.02,0.24,0.09,0.44,0.22,0.6c0.13,0.16,0.29,0.3,0.48,0.41c0.15,0.11,0.31,0.22,0.48,0.32c0.17,0.1,0.33,0.21,0.48,0.32c0.26,0.19,0.52,0.38,0.79,0.58c0.26,0.2,0.5,0.43,0.7,0.69c0.47,0.64,0.78,1.3,0.93,2c0.15,0.69,0.16,1.42,0.03,2.19c-0.08,0.43-0.17,0.85-0.29,1.27c-0.12,0.41-0.31,0.81-0.58,1.18c-0.34,0.49-0.73,0.88-1.17,1.19c-0.44,0.31-0.9,0.58-1.39,0.83c-0.17,0.09-0.35,0.17-0.53,0.24c-0.19,0.07-0.38,0.09-0.56,0.07c-0.21-0.02-0.39-0.02-0.56-0.01c-0.17,0.01-0.34,0.06-0.51,0.15c-0.52,0.02-1.03-0.03-1.52-0.15c-0.49-0.12-0.95-0.35-1.38-0.69c-0.15-0.13-0.29-0.27-0.42-0.41c-0.13-0.14-0.28-0.28-0.45-0.41c-0.24-0.21-0.48-0.48-0.7-0.81c-0.13-0.26-0.26-0.52-0.39-0.76c-0.13-0.24-0.27-0.49-0.42-0.73c-0.04-0.09-0.07-0.17-0.1-0.24c-0.03-0.07-0.05-0.14-0.07-0.24c-0.13-0.6-0.18-1.19-0.14-1.77c0.04-0.58,0.21-1.15,0.51-1.71c0.06-0.11,0.11-0.23,0.15-0.37c0.05-0.13,0.09-0.26,0.13-0.39c0.09-0.3,0.17-0.6,0.24-0.91c0.07-0.31,0.17-0.6,0.32-0.89c0.21-0.37,0.38-0.77,0.52-1.18c0.14-0.41,0.3-0.83,0.46-1.24c0.28-0.64,0.51-1.27,0.67-1.88c0.04-0.13,0.08-0.21,0.11-0.25c0.19-0.32,0.35-0.65,0.49-0.98c0.14-0.34,0.29-0.67,0.44-1.01c0.15-0.37,0.3-0.74,0.46-1.11c0.16-0.37,0.29-0.74,0.38-1.11c0.06-0.3,0.13-0.59,0.22-0.86c0.09-0.27,0.2-0.54,0.31-0.8c0.32-0.69,0.59-1.4,0.83-2.11c0.23-0.71,0.49-1.42,0.77-2.14c0.11-0.28,0.22-0.57,0.34-0.86c0.11-0.29,0.24-0.58,0.39-0.86c0.11-0.21,0.24-0.39,0.38-0.55c0.14-0.16,0.32-0.28,0.55-0.35c0.06-0.02,0.14-0.07,0.25-0.14c0.11-0.07,0.17-0.16,0.18-0.27c0.01-0.1,0-0.2-0.01-0.3c-0.02-0.11-0.08-0.16-0.17-0.15c-0.09,0.01-0.18,0.01-0.25,0.01h-0.08c-0.32-0.02-0.64-0.02-0.97,0c-0.33,0.02-0.65,0.02-0.97,0c-0.26-0.02-0.53-0.03-0.82-0.03s-0.55,0-0.81,0c-0.19,0-0.3,0.02-0.34,0.07c-0.04,0.05-0.08,0.16-0.11,0.35c-0.04,0.15-0.02,0.24,0.06,0.27c0.08,0.03,0.16,0.06,0.25,0.1c0.04,0.02,0.1,0.03,0.2,0.03c0.26,0.11,0.35,0.3,0.25,0.56c-0.11,0.26-0.22,0.53-0.32,0.82c-0.1,0.28-0.26,0.53-0.46,0.76c-0.06,0.06-0.09,0.12-0.11,0.18c-0.02,0.07-0.05,0.14-0.08,0.24c-0.06,0.32-0.15,0.63-0.27,0.93c-0.12,0.3-0.2,0.61-0.24,0.93c-0.3-0.11-0.48-0.32-0.53-0.62c-0.04-0.21-0.1-0.41-0.18-0.62c-0.08-0.21-0.14-0.41-0.18-0.62c-0.06-0.26-0.14-0.51-0.25-0.73c-0.11-0.22-0.19-0.47-0.23-0.73c-0.09-0.45,0.06-0.76,0.45-0.93c0.06-0.04,0.11-0.06,0.17-0.07c0.06-0.01,0.1-0.02,0.14-0.04c0.19-0.04,0.28-0.14,0.28-0.31c0.04-0.21-0.03-0.35-0.2-0.42c-0.09-0.08-0.21-0.11-0.34-0.11c-0.36-0.04-0.7-0.06-1.04-0.07c-0.34-0.01-0.67,0.02-1.01,0.1c-0.11,0.04-0.23,0.05-0.34,0.04c-0.11-0.01-0.23-0.02-0.36-0.04c-0.32,0-0.63,0-0.93,0c-0.3,0-0.61-0.01-0.93-0.03c-0.17,0-0.29,0.03-0.37,0.08c-0.09,0.09-0.13,0.22-0.1,0.37c0.03,0.15,0.09,0.25,0.18,0.31c0.09,0.04,0.18,0.07,0.27,0.08c0.08,0.02,0.17,0.04,0.27,0.06c0.41,0.04,0.7,0.21,0.87,0.51c0.11,0.17,0.22,0.34,0.31,0.52c0.09,0.18,0.17,0.36,0.22,0.55c0.22,0.71,0.47,1.4,0.75,2.07c0.27,0.67,0.59,1.33,0.94,1.98c0.06,0.11,0.1,0.22,0.13,0.34c0.03,0.11,0.06,0.23,0.1,0.37c0.04,0.19,0.09,0.37,0.15,0.53c0.07,0.17,0.15,0.33,0.24,0.48c0.17,0.26,0.19,0.52,0.06,0.79c-0.15,0.3-0.29,0.6-0.41,0.9c-0.12,0.3-0.25,0.6-0.38,0.9c-0.21,0.43-0.4,0.85-0.59,1.25c-0.19,0.4-0.36,0.82-0.53,1.25c-0.11,0.26-0.23,0.52-0.37,0.79c-0.13,0.26-0.23,0.54-0.28,0.84c-0.08,0.36-0.18,0.7-0.32,1.04c-0.14,0.34-0.28,0.67-0.41,1.01c-0.17,0.49-0.36,0.96-0.58,1.42c-0.22,0.46-0.39,0.94-0.52,1.45c-0.13,0.47-0.25,0.94-0.37,1.41c-0.11,0.47-0.18,0.95-0.2,1.46c-0.02,0.6,0.03,1.18,0.14,1.73c0.11,0.55,0.27,1.11,0.48,1.67c0.15,0.45,0.36,0.83,0.62,1.15c0.26,0.32,0.53,0.63,0.8,0.93c0.27,0.3,0.56,0.58,0.86,0.84c1.56,1.35,3.37,1.98,5.45,1.88c0.17-0.02,0.34-0.03,0.52-0.03c0.18,0,0.35-0.01,0.52-0.03c0.51-0.06,0.98-0.18,1.42-0.38c0.44-0.2,0.89-0.38,1.36-0.55c0.06-0.04,0.11-0.07,0.16-0.1c0.05-0.03,0.1-0.06,0.15-0.1c0.49-0.34,0.93-0.72,1.32-1.14c0.39-0.42,0.8-0.84,1.21-1.25c0.04-0.02,0.07-0.07,0.11-0.14c0.06-0.24,0.14-0.47,0.25-0.67c0.11-0.21,0.22-0.42,0.31-0.65c0.09-0.26,0.16-0.54,0.21-0.83c0.05-0.29,0.12-0.58,0.21-0.86c0.24-0.69,0.34-1.39,0.28-2.08C210.64,39.58,210.47,38.82,210.16,38.11z"/></svg>