<svg version="1.1" viewBox="0 0 228 50" xmlns="http://www.w3.org/2000/svg" fill="#fff"><path d="m31.41 4.35c0.02-0.12 0.04-0.3 0.04-0.52 0-0.2-0.01-0.43-0.02-0.69s-0.04-0.51-0.07-0.75c-0.04-0.24-0.1-0.46-0.19-0.67s-0.22-0.36-0.39-0.43c-0.13-0.05-0.25-0.11-0.38-0.19s-0.19-0.21-0.19-0.41c0-0.17 0.06-0.3 0.17-0.38 0.11-0.07 0.26-0.12 0.43-0.13s0.36-0.01 0.54 0c0.19 0.01 0.36 0.02 0.51 0.02 0.22 0 0.46 0.01 0.69 0.02 0.24 0.01 0.47 0.02 0.69 0.02 0.27 0 0.56-0.01 0.86-0.02s0.59-0.02 0.86-0.02c0.15 0 0.28 0.03 0.39 0.08s0.17 0.18 0.17 0.37c0 0.18-0.06 0.32-0.19 0.45-0.13 0.12-0.26 0.26-0.41 0.39-0.15 0.14-0.29 0.3-0.41 0.49-0.11 0.18-0.18 0.42-0.18 0.72-0.03 0.23-0.04 0.45-0.04 0.67v0.64c0 0.23 0.01 0.44 0.02 0.66 0.01 0.21 0.02 0.42 0.02 0.62v0.6c0 0.15 0.01 0.31 0.04 0.49 0.02 0.17 0.07 0.34 0.15 0.51 0.08 0.16 0.17 0.3 0.3 0.41s0.27 0.17 0.45 0.17c0.25 0 0.52-0.02 0.81-0.06s0.56-0.06 0.81-0.06c0.47 0 0.84 0.16 1.09 0.47s0.37 0.68 0.37 1.11c0 0.55-0.14 0.93-0.41 1.14s-0.62 0.33-1.05 0.36h-1.05c-0.6 0-1.04 0.08-1.31 0.24-0.28 0.16-0.41 0.51-0.41 1.03 0.05 0.42 0.08 0.86 0.09 1.29 0.01 0.44 0.02 0.86 0.02 1.26 0 0.23-0.02 0.45-0.06 0.67-0.04 0.23-0.06 0.44-0.06 0.64 0 0.57 0.04 1.19 0.13 1.85s0.13 1.22 0.13 1.67c0 0.4-0.06 0.79-0.19 1.18-0.12 0.39-0.18 0.74-0.18 1.07 0 0.4 0.08 0.79 0.24 1.18s0.24 0.76 0.24 1.11c0 0.3-0.04 0.59-0.13 0.88s-0.13 0.58-0.13 0.88c0 0.25 0.03 0.5 0.09 0.75s0.09 0.5 0.09 0.75c0 0.2-0.01 0.38-0.04 0.54s-0.04 0.34-0.04 0.54c0 0.23 0.02 0.46 0.06 0.69 0.04 0.24 0.06 0.47 0.06 0.69 0 0.3-0.04 0.61-0.11 0.92-0.08 0.31-0.11 0.63-0.11 0.96 0 0.2 0.02 0.41 0.07 0.64s0.08 0.44 0.08 0.64c0 0.42-0.05 0.89-0.15 1.39s-0.21 0.99-0.34 1.48-0.24 0.94-0.34 1.35-0.15 0.74-0.15 0.99c0 0.4 0.23 0.84 0.69 1.33s1.01 0.96 1.63 1.41 1.24 0.86 1.86 1.24c0.61 0.37 1.05 0.66 1.33 0.86 0.32 0.25 0.7 0.38 1.12 0.38h0.3c0.2 0 0.37 0.06 0.51 0.17s0.28 0.24 0.43 0.39 0.32 0.28 0.51 0.39 0.42 0.17 0.69 0.17c0.38 0 0.72 0.09 1.05 0.26 0.33 0.18 0.62 0.39 0.9 0.64 0.25 0.23 0.61 0.43 1.07 0.62s0.94 0.34 1.44 0.45 0.97 0.2 1.41 0.26 0.76 0.09 0.96 0.09c0.12 0 0.24-0.01 0.36-0.02 0.11-0.01 0.23-0.02 0.36-0.02h1.09c0.2 0 0.39-0.02 0.56-0.06s0.36-0.06 0.56-0.06c0.13 0 0.26 0.02 0.41 0.06s0.3 0.06 0.45 0.06c0.1 0 0.19-0.01 0.26-0.04 0.4-0.15 0.83-0.28 1.29-0.37 0.46-0.1 0.91-0.21 1.35-0.32s0.86-0.25 1.27-0.41 0.79-0.38 1.14-0.65c0.15-0.13 0.34-0.25 0.58-0.37 0.24-0.13 0.47-0.26 0.69-0.39 0.22-0.14 0.42-0.27 0.6-0.41 0.17-0.14 0.3-0.28 0.37-0.43 0.1-0.25 0.24-0.48 0.41-0.69s0.34-0.43 0.51-0.66c0.16-0.23 0.31-0.46 0.43-0.69 0.13-0.24 0.21-0.49 0.26-0.77 0.1-0.43 0.26-0.73 0.47-0.92s0.46-0.28 0.73-0.28c0.57 0 1.04 0.16 1.39 0.47s0.52 0.73 0.52 1.26c0 0.22-0.06 0.45-0.17 0.67s-0.25 0.46-0.41 0.69c-0.16 0.24-0.34 0.47-0.52 0.71-0.19 0.24-0.34 0.47-0.47 0.69-0.32 0.57-0.64 1.05-0.94 1.42s-0.7 0.71-1.2 1.01c-0.35 0.2-0.65 0.42-0.9 0.67-0.45 0.42-0.91 0.77-1.39 1.05s-0.95 0.51-1.42 0.71c-0.48 0.2-0.92 0.36-1.33 0.49s-0.77 0.22-1.07 0.3c-1.72 0.48-3.51 0.71-5.36 0.71-0.58 0-1.17-0.04-1.78-0.11s-1.19-0.25-1.74-0.52c-0.15-0.08-0.31-0.11-0.49-0.11-0.65-0.05-1.3-0.21-1.95-0.49-0.65-0.27-1.3-0.52-1.95-0.75-0.52-0.18-1.04-0.39-1.55-0.64s-1.02-0.51-1.54-0.79c-0.51-0.28-1.02-0.54-1.54-0.81-0.51-0.26-1.03-0.51-1.56-0.73-0.1-0.02-0.26-0.13-0.49-0.32s-0.48-0.41-0.75-0.67-0.56-0.53-0.84-0.81c-0.29-0.27-0.52-0.5-0.69-0.67-0.2-0.17-0.44-0.31-0.71-0.41-0.28-0.1-0.52-0.15-0.75-0.15-0.33 0-0.65 0.15-0.97 0.45-0.33 0.3-0.65 0.65-0.98 1.05-0.32 0.4-0.64 0.79-0.94 1.16s-0.57 0.65-0.82 0.82c-1.35 1.02-2.7 1.9-4.05 2.62s-2.92 1.26-4.72 1.61c-0.9 0.2-1.79 0.33-2.66 0.39-0.88 0.06-1.78 0.09-2.7 0.09-0.25 0-0.49-0.01-0.73-0.04s-0.48-0.04-0.73-0.04c-0.08 0.02-0.16 0.04-0.24 0.04h-0.24c-1.22 0-2.26-0.18-3.11-0.52-0.85-0.35-1.62-0.66-2.32-0.94-1.35-0.49-2.56-1.3-3.63-2.43-1.07-1.12-1.87-2.37-2.4-3.75-0.27-0.67-0.44-1.43-0.51-2.27-0.06-0.83-0.09-1.56-0.09-2.18 0-1.1 0.19-2.19 0.56-3.28s0.94-2.03 1.69-2.83c0.4-0.4 0.6-0.87 0.6-1.42 0-0.42-0.07-0.91-0.21-1.44-0.14-0.54-0.28-1.1-0.43-1.69s-0.29-1.17-0.43-1.76-0.21-1.16-0.21-1.71c0-0.35 0.05-0.69 0.15-1.03s0.15-0.68 0.15-1.03c0-1.27 0.24-2.5 0.73-3.67s1.09-2.26 1.82-3.26c0.2-0.25 0.39-0.53 0.58-0.84s0.39-0.62 0.6-0.92 0.45-0.58 0.71-0.84 0.56-0.47 0.88-0.62c0.3-0.13 0.6-0.34 0.9-0.66 0.3-0.31 0.66-0.54 1.09-0.69 0.47-0.15 0.9-0.36 1.29-0.64 0.39-0.27 0.86-0.46 1.41-0.56 0.2-0.02 0.4-0.1 0.6-0.22 0.8-0.47 1.71-0.77 2.72-0.9 1.01-0.12 1.98-0.19 2.91-0.19 0.4 0 0.79-0.01 1.16-0.02 0.38-0.01 0.71-0.07 1.01-0.19 0.3-0.11 0.54-0.29 0.71-0.52 0.17-0.24 0.26-0.57 0.26-0.99 0-0.13-0.02-0.26-0.06-0.39-0.04-0.14-0.06-0.28-0.06-0.43 0-0.25 0.04-0.51 0.11-0.77s0.11-0.53 0.11-0.81c0-0.35-0.03-0.75-0.09-1.2s-0.23-0.76-0.51-0.94c-0.2-0.13-0.37-0.27-0.51-0.45-0.14-0.17-0.21-0.32-0.21-0.45 0-0.05 0.05-0.13 0.15-0.24s0.21-0.17 0.34-0.17c0.25 0 0.49 0.04 0.73 0.13s0.48 0.13 0.73 0.13c0.32 0 0.64-0.04 0.96-0.11 0.31-0.07 0.63-0.11 0.96-0.11 0.12 0 0.27 0.01 0.43 0.02s0.32 0.04 0.47 0.07c0.15 0.04 0.28 0.1 0.39 0.19s0.17 0.21 0.17 0.36-0.06 0.28-0.17 0.39-0.24 0.23-0.39 0.36-0.28 0.27-0.39 0.43-0.17 0.37-0.17 0.62c0 0.65-0.01 1.29-0.04 1.91s-0.04 1.26-0.04 1.91c0 0.45 0.18 0.76 0.54 0.92s0.79 0.24 1.29 0.24c0.67 0 1.36-0.01 2.06-0.04 0.7-0.02 1.37-0.06 2.02-0.11 0.5-0.05 0.84-0.24 1.03-0.58s0.28-0.78 0.28-1.33v-1.14zm-23.69 27.7c0 0.13 0.11 0.31 0.32 0.56s0.47 0.51 0.77 0.79c0.3 0.27 0.61 0.54 0.92 0.81 0.31 0.26 0.57 0.44 0.77 0.54 0.57 0.32 1.15 0.66 1.72 0.99 0.57 0.34 1.2 0.57 1.87 0.69 0.57 0.1 1.13 0.21 1.67 0.32s1.07 0.18 1.59 0.21c0.13 0 0.24-0.01 0.34-0.02s0.21-0.02 0.34-0.02c0.5 0 0.87 0.15 1.12 0.45s0.38 0.7 0.38 1.2c0 0.57-0.21 1-0.64 1.27-0.42 0.27-0.92 0.41-1.5 0.41-0.65 0-1.38-0.08-2.19-0.24s-1.54-0.36-2.19-0.58c-0.5-0.15-0.94-0.32-1.31-0.51s-0.72-0.37-1.03-0.56-0.61-0.37-0.9-0.54-0.59-0.35-0.92-0.52c-0.27-0.1-0.52-0.24-0.75-0.41s-0.43-0.36-0.62-0.54c-0.19-0.19-0.37-0.38-0.54-0.58s-0.38-0.39-0.6-0.56c-0.28-0.2-0.54-0.39-0.81-0.58-0.26-0.19-0.49-0.42-0.69-0.69-0.5 0.62-0.9 1.28-1.2 1.97s-0.45 1.43-0.45 2.23c0 0.62 0.04 1.25 0.13 1.87s0.26 1.17 0.51 1.65c0.27 0.53 0.66 1.07 1.17 1.59s1.01 0.97 1.48 1.35c0.57 0.47 1.22 0.86 1.95 1.16 0.72 0.3 1.35 0.49 1.87 0.56 0.72 0.13 1.46 0.23 2.19 0.32 0.74 0.09 1.47 0.13 2.19 0.13 0.47 0 0.95-0.03 1.42-0.09s0.96-0.17 1.46-0.32c0.02-0.03 0.05-0.03 0.07-0.02s0.06 0.01 0.11-0.02c0.6-0.17 1.23-0.33 1.89-0.45 0.66-0.13 1.31-0.28 1.95-0.45 0.64-0.18 1.26-0.4 1.85-0.67 0.6-0.27 1.15-0.65 1.65-1.13 0.17-0.17 0.35-0.3 0.53-0.37 0.35-0.18 0.69-0.43 1.01-0.75 0.32-0.33 0.61-0.66 0.84-1.01 0.24-0.35 0.43-0.71 0.58-1.07s0.23-0.68 0.23-0.96c0-0.4-0.15-0.77-0.45-1.12s-0.66-0.68-1.07-0.99-0.84-0.61-1.29-0.88-0.84-0.52-1.16-0.75c-0.63-0.42-1.24-0.84-1.86-1.26-0.61-0.41-1.24-0.82-1.89-1.22-0.15-0.1-0.32-0.15-0.51-0.17-0.19-0.01-0.36-0.08-0.51-0.21-0.3-0.2-0.63-0.33-0.97-0.39-0.35-0.06-0.7-0.18-1.05-0.36-0.42-0.2-0.87-0.39-1.33-0.56-0.46-0.18-0.94-0.26-1.44-0.26s-1-0.04-1.5-0.13-1-0.13-1.5-0.13c-0.32 0-0.64 0.06-0.96 0.19-0.31 0.13-0.61 0.19-0.88 0.19h-0.12c-0.37 0-0.72 0.08-1.05 0.24-0.32 0.17-0.66 0.3-1.01 0.4zm13.57-18.63c0.02-0.1 0.04-0.19 0.04-0.26s0.01-0.15 0.04-0.22c0-0.45-0.01-0.82-0.04-1.11-0.02-0.29-0.1-0.51-0.23-0.67s-0.32-0.27-0.6-0.34c-0.27-0.06-0.65-0.09-1.12-0.09-0.65 0-1.3 0.02-1.95 0.06s-1.3 0.06-1.95 0.06h-0.41c-0.3 0-0.6 0.06-0.9 0.17s-0.6 0.26-0.9 0.43c-0.3 0.18-0.6 0.35-0.9 0.53-0.3 0.17-0.59 0.34-0.86 0.49-0.88 0.35-1.67 0.86-2.4 1.52s-1.37 1.4-1.95 2.23c-0.2 0.3-0.41 0.64-0.64 1.01-0.22 0.38-0.43 0.76-0.62 1.14-0.19 0.39-0.36 0.76-0.51 1.12s-0.24 0.67-0.26 0.92c-0.13 0.7-0.22 1.34-0.28 1.93s-0.09 1.19-0.09 1.82c0 0.35 0.04 0.79 0.11 1.33s0.19 1.06 0.34 1.57 0.34 0.95 0.58 1.31 0.53 0.54 0.88 0.54c0.1 0 0.23-0.04 0.39-0.11 0.16-0.08 0.33-0.15 0.51-0.23 0.57-0.18 1.15-0.29 1.72-0.34 0.58-0.05 1.15-0.15 1.72-0.3 0.62-0.12 1.17-0.19 1.65-0.19 1.2 0 2.41 0.18 3.64 0.52 1.22 0.35 2.42 0.71 3.6 1.09 0.27 0.08 0.54 0.21 0.81 0.39 0.26 0.19 0.53 0.39 0.81 0.6 0.27 0.21 0.57 0.42 0.88 0.62s0.66 0.34 1.03 0.41c0.87 0.45 1.75 0.97 2.62 1.55 0.88 0.59 1.7 1.22 2.47 1.89 0.23 0.2 0.44 0.36 0.66 0.47 0.21 0.11 0.47 0.15 0.77 0.13 0.05 0 0.13-0.09 0.24-0.28s0.23-0.39 0.36-0.62c0.15-0.28 0.31-0.59 0.49-0.94 0.05-0.25 0.08-0.49 0.09-0.73s0.02-0.47 0.02-0.69c0-0.65-0.01-1.28-0.02-1.87-0.01-0.6-0.03-1.21-0.06-1.84 0-0.17 0.04-0.36 0.11-0.54 0.07-0.19 0.11-0.39 0.11-0.62 0-0.27 0.01-0.55 0.04-0.82 0.02-0.27 0.04-0.55 0.04-0.82v-0.3c0-0.1-0.01-0.21-0.04-0.34 0-0.13 0.02-0.24 0.06-0.34s0.06-0.21 0.06-0.34c0-0.27-0.03-0.54-0.08-0.79s-0.08-0.51-0.08-0.79c0-0.5 0.01-1.01 0.04-1.52 0.02-0.51 0.04-1.02 0.04-1.52 0-0.45-0.03-0.9-0.08-1.35s-0.07-0.9-0.07-1.35c0-0.42 0.02-0.84 0.06-1.26 0.04-0.41 0.06-0.83 0.06-1.26 0-0.25-0.03-0.49-0.08-0.73s-0.07-0.48-0.07-0.73c0-0.18 0.01-0.34 0.02-0.49s0.02-0.31 0.02-0.49c0-0.42-0.17-0.77-0.51-1.05s-0.72-0.41-1.14-0.41c-0.2 0-0.41 0.03-0.62 0.09s-0.42 0.09-0.62 0.09c-0.32 0-0.64-0.02-0.94-0.06s-0.61-0.06-0.94-0.06c-0.67 0-1.18 0.08-1.52 0.24s-0.51 0.49-0.51 0.99c0 0.52-0.05 1.06-0.15 1.59-0.1 0.54-0.15 1.07-0.15 1.59 0 0.3 0.02 0.59 0.08 0.86 0.05 0.28 0.07 0.56 0.07 0.86 0 0.2-0.01 0.39-0.02 0.58s-0.02 0.38-0.02 0.58v0.71c0 0.42-0.04 0.86-0.11 1.31s-0.11 0.89-0.11 1.31c0 0.5 0.04 0.99 0.13 1.48s0.13 0.98 0.13 1.48c0 0.17-0.01 0.34-0.02 0.49s-0.02 0.3-0.02 0.45c0 0.33 0.02 0.68 0.06 1.07s0.09 0.77 0.17 1.14 0.17 0.71 0.28 1.01 0.26 0.5 0.43 0.6c0.2 0.17 0.3 0.41 0.3 0.71-0.02 0.12-0.06 0.27-0.11 0.45-0.05 0.17-0.18 0.26-0.38 0.26-0.05 0-0.18-0.06-0.37-0.19-0.2-0.13-0.44-0.28-0.73-0.45s-0.57-0.35-0.86-0.52c-0.29-0.18-0.54-0.3-0.77-0.38-0.2-0.08-0.43-0.16-0.67-0.26-0.25-0.1-0.49-0.21-0.71-0.34-0.23-0.12-0.42-0.26-0.58-0.39-0.16-0.14-0.24-0.27-0.24-0.39 0-0.2 0.06-0.37 0.19-0.51s0.27-0.27 0.43-0.39c0.16-0.13 0.31-0.27 0.43-0.43 0.13-0.16 0.19-0.38 0.19-0.66 0-0.35 0.01-0.71 0.04-1.07 0.02-0.36 0.04-0.72 0.04-1.07 0-0.37-0.03-0.75-0.09-1.12s-0.09-0.74-0.09-1.09 0.04-0.69 0.11-1.03 0.11-0.68 0.11-1.03c0-0.5-0.04-0.99-0.11-1.48-0.08-0.49-0.11-0.98-0.11-1.48 0-0.3 0.02-0.61 0.06-0.92s0.06-0.63 0.06-0.96v-0.82z"/><path d="m54.12 18.02c0.07 0.27 0.1 0.55 0.1 0.84-0.02 0.45-0.11 0.87-0.27 1.25s-0.26 0.8-0.3 1.25c-0.07 0.56-0.27 1.1-0.61 1.6s-0.66 1.03-0.98 1.57c-0.32 0.49-0.68 0.86-1.1 1.11s-0.79 0.56-1.13 0.94c-0.47 0.25-0.99 0.51-1.57 0.79-0.57 0.28-1.12 0.42-1.64 0.42-0.05 0-0.11-0.02-0.2-0.07-0.34-0.07-0.64-0.09-0.89-0.07-0.26 0.02-0.55 0.02-0.86-0.02-0.32-0.03-0.67-0.12-1.08-0.27-0.4-0.15-0.91-0.43-1.52-0.86-0.52-0.36-0.93-0.74-1.23-1.13s-0.66-0.85-1.06-1.37c-0.29-0.31-0.53-0.65-0.71-1.01s-0.33-0.73-0.44-1.11-0.21-0.77-0.3-1.16-0.18-0.79-0.27-1.2c-0.04-0.16-0.09-0.29-0.13-0.39-0.05-0.1-0.07-0.21-0.07-0.32s0.05-0.24 0.15-0.39 0.15-0.33 0.15-0.56c0-0.18-0.01-0.35-0.02-0.52s-0.02-0.34-0.02-0.52c0-0.47 0.08-1.03 0.24-1.67s0.39-1.19 0.71-1.64c0.32-0.47 0.69-0.98 1.13-1.52s0.93-1.03 1.47-1.48 1.12-0.83 1.75-1.13 1.3-0.46 2.02-0.46c0.07 0.02 0.18 0.03 0.34 0.03 0.11 0 0.22-0.01 0.34-0.02 0.11-0.01 0.22-0.02 0.34-0.02 0.38 0 0.74 0.07 1.06 0.2 0.33 0.13 0.66 0.24 0.99 0.3 0.54 0.11 0.98 0.34 1.32 0.67 0.34 0.34 0.71 0.64 1.11 0.91 0.58 0.4 1.04 0.89 1.37 1.45s0.66 1.14 0.99 1.72c0.18 0.32 0.27 0.64 0.29 0.98 0.01 0.34 0.07 0.65 0.19 0.94 0.11 0.32 0.18 0.64 0.2 0.96 0.02 0.37 0.07 0.68 0.14 0.98zm-3.14 2.9c0-0.34 0.1-0.66 0.29-0.98s0.29-0.63 0.29-0.94c0-0.14-0.01-0.24-0.03-0.3 0.02-0.07 0.03-0.17 0.03-0.3 0-0.11-0.01-0.23-0.03-0.34s-0.05-0.22-0.07-0.34c-0.14-0.81-0.35-1.59-0.64-2.33s-0.66-1.39-1.11-1.96c-0.45-0.56-0.98-1.01-1.6-1.35s-1.31-0.51-2.07-0.51c-0.32 0-0.67 0.06-1.08 0.19-0.4 0.12-0.79 0.26-1.16 0.42s-0.69 0.33-0.95 0.51-0.39 0.31-0.39 0.4v0.1c0 0.09-0.08 0.28-0.25 0.57s-0.35 0.66-0.56 1.1c-0.2 0.44-0.39 0.92-0.56 1.45s-0.25 1.07-0.25 1.64c0 0.36 0.03 0.71 0.1 1.05s0.1 0.65 0.1 0.94c0 0.13-0.03 0.26-0.1 0.37s-0.1 0.22-0.1 0.34c0.02 0.14 0.15 0.35 0.39 0.66 0.24 0.3 0.41 0.59 0.52 0.86 0.04 0.11 0.2 0.32 0.46 0.64s0.57 0.64 0.93 0.98 0.76 0.63 1.2 0.89 0.86 0.39 1.26 0.39c0.11 0 0.25-0.07 0.42-0.2 0.17-0.14 0.34-0.2 0.52-0.2 0.11 0 0.23 0.03 0.34 0.08 0.11 0.06 0.22 0.08 0.34 0.08s0.28-0.05 0.51-0.13c0.13-0.05 0.38-0.18 0.73-0.4 0.35-0.23 0.71-0.51 1.1-0.84 0.38-0.34 0.72-0.71 1.01-1.11s0.44-0.81 0.44-1.21v-0.22z"/><path d="m63.56 25.72c-0.02 0.05-0.03 0.12-0.03 0.24 0 0.13 0.02 0.28 0.07 0.42 0.04 0.15 0.07 0.28 0.07 0.39 0 0.56-0.2 0.84-0.61 0.84-0.11 0-0.23-0.01-0.35-0.03s-0.24-0.03-0.35-0.03c-0.22 0-0.44 0.03-0.66 0.08-0.21 0.06-0.42 0.08-0.62 0.08-0.25 0-0.48-0.02-0.69-0.07-0.21-0.04-0.44-0.07-0.69-0.07-0.61 0-1.23 0.03-1.86 0.1s-1.25 0.1-1.85 0.1h-0.71c-0.16 0-0.31-0.04-0.45-0.14-0.15-0.09-0.22-0.22-0.22-0.4 0-0.16 0.06-0.29 0.17-0.41 0.11-0.11 0.23-0.25 0.35-0.4 0.12-0.16 0.24-0.35 0.35-0.59s0.17-0.57 0.17-0.99c0-0.14-0.01-0.24-0.03-0.3 0-0.11 0.01-0.23 0.03-0.34s0.03-0.2 0.03-0.27c0-0.14-0.05-0.29-0.14-0.47s-0.13-0.36-0.13-0.54c0-0.25 0.03-0.51 0.08-0.77 0.06-0.27 0.08-0.53 0.08-0.78 0-0.11-0.02-0.22-0.05-0.32s-0.05-0.21-0.05-0.32 0.01-0.24 0.03-0.39 0.03-0.27 0.03-0.39c0-0.31-0.04-0.64-0.12-0.98s-0.12-0.66-0.12-0.98c0-0.11 0.06-0.25 0.19-0.4 0.12-0.16 0.18-0.33 0.18-0.51 0-0.2-0.03-0.41-0.08-0.62-0.06-0.21-0.08-0.42-0.08-0.62 0-0.14 0.02-0.27 0.05-0.4s0.05-0.27 0.05-0.4v-1.28c0-0.27-0.03-0.54-0.1-0.83-0.07-0.28-0.1-0.54-0.1-0.79 0-0.11 0.01-0.23 0.03-0.34s0.03-0.22 0.03-0.34c0-0.27-0.06-0.49-0.17-0.67s-0.24-0.34-0.37-0.47c-0.13-0.14-0.26-0.26-0.37-0.37s-0.17-0.24-0.17-0.37c0-0.25 0.09-0.41 0.27-0.47 0.18-0.07 0.39-0.1 0.64-0.1 0.18 0 0.35 0.01 0.51 0.04 0.16 0.02 0.33 0.03 0.51 0.03 0.4 0 0.81-0.02 1.21-0.05 0.41-0.03 0.8-0.05 1.18-0.05 0.16 0 0.28 0.05 0.37 0.14s0.14 0.26 0.14 0.51c0 0.13-0.05 0.24-0.14 0.3-0.25 0.16-0.42 0.38-0.51 0.67s-0.15 0.61-0.18 0.96-0.06 0.7-0.08 1.06-0.08 0.69-0.17 0.98c-0.07 0.18-0.1 0.35-0.1 0.51 0 0.34 0.04 0.67 0.12 1.01s0.12 0.7 0.12 1.08c0 0.16-0.01 0.31-0.02 0.45-0.01 0.15-0.02 0.31-0.02 0.49s0.02 0.36 0.07 0.54c0.04 0.18 0.07 0.36 0.07 0.54 0 0.38-0.05 0.75-0.15 1.11s-0.15 0.72-0.15 1.08v1.28c0 0.27 0.04 0.55 0.12 0.83s0.12 0.56 0.12 0.83c0 0.09-0.01 0.17-0.02 0.24s-0.02 0.15-0.02 0.24c0 0.25 0.07 0.43 0.2 0.56 0.13 0.12 0.3 0.21 0.51 0.27 0.2 0.06 0.42 0.08 0.66 0.08h0.66c0.27 0 0.55-0.01 0.83-0.02s0.56-0.04 0.83-0.08c0.32-0.07 0.56-0.23 0.73-0.49s0.34-0.39 0.52-0.39c0.2 0 0.33 0.07 0.39 0.2 0.05 0.13 0.08 0.27 0.08 0.4v0.7c-0.02 0.21-0.05 0.44-0.12 0.66z"/><path d="m73.86 25.72c-0.02 0.05-0.03 0.12-0.03 0.24 0 0.13 0.02 0.28 0.07 0.42 0.04 0.15 0.07 0.28 0.07 0.39 0 0.56-0.2 0.84-0.61 0.84-0.11 0-0.23-0.01-0.35-0.03s-0.24-0.03-0.35-0.03c-0.23 0-0.44 0.03-0.66 0.08-0.21 0.06-0.42 0.08-0.63 0.08-0.25 0-0.48-0.02-0.69-0.07-0.21-0.04-0.44-0.07-0.69-0.07-0.61 0-1.23 0.03-1.86 0.1s-1.25 0.1-1.86 0.1h-0.71c-0.16 0-0.31-0.04-0.46-0.14-0.15-0.09-0.22-0.22-0.22-0.4 0-0.16 0.05-0.29 0.17-0.41 0.11-0.11 0.23-0.25 0.35-0.4 0.12-0.16 0.24-0.35 0.35-0.59s0.17-0.57 0.17-0.99c0-0.14-0.01-0.24-0.03-0.3 0-0.11 0.01-0.23 0.03-0.34s0.03-0.2 0.03-0.27c0-0.14-0.04-0.29-0.13-0.47s-0.13-0.36-0.13-0.54c0-0.25 0.03-0.51 0.08-0.77 0.06-0.27 0.08-0.53 0.08-0.78 0-0.11-0.02-0.22-0.05-0.32s-0.05-0.21-0.05-0.32 0.01-0.24 0.03-0.39 0.03-0.27 0.03-0.39c0-0.31-0.04-0.64-0.12-0.98s-0.12-0.66-0.12-0.98c0-0.11 0.06-0.25 0.18-0.4 0.12-0.16 0.18-0.33 0.18-0.51 0-0.2-0.03-0.41-0.08-0.62-0.06-0.21-0.08-0.42-0.08-0.62 0-0.14 0.02-0.27 0.05-0.4s0.05-0.27 0.05-0.4v-1.28c0-0.27-0.03-0.54-0.1-0.83-0.07-0.28-0.1-0.54-0.1-0.79 0-0.11 0.01-0.23 0.03-0.34s0.03-0.22 0.03-0.34c0-0.27-0.06-0.49-0.17-0.67s-0.24-0.34-0.37-0.47c-0.13-0.14-0.26-0.26-0.37-0.37s-0.17-0.24-0.17-0.37c0-0.25 0.09-0.41 0.27-0.47 0.18-0.07 0.39-0.1 0.64-0.1 0.18 0 0.35 0.01 0.51 0.04 0.16 0.02 0.33 0.03 0.51 0.03 0.4 0 0.81-0.02 1.21-0.05s0.8-0.05 1.18-0.05c0.16 0 0.28 0.05 0.37 0.14s0.14 0.26 0.14 0.51c0 0.13-0.04 0.24-0.14 0.3-0.25 0.16-0.42 0.38-0.51 0.67s-0.15 0.61-0.19 0.96c-0.03 0.35-0.06 0.7-0.08 1.06s-0.08 0.69-0.17 0.98c-0.07 0.18-0.1 0.35-0.1 0.51 0 0.34 0.04 0.67 0.12 1.01s0.12 0.7 0.12 1.08c0 0.16-0.01 0.31-0.02 0.45-0.01 0.15-0.02 0.31-0.02 0.49s0.02 0.36 0.07 0.54 0.07 0.36 0.07 0.54c0 0.38-0.05 0.75-0.15 1.11s-0.15 0.72-0.15 1.08v1.28c0 0.27 0.04 0.55 0.12 0.83s0.12 0.56 0.12 0.83c0 0.09-0.01 0.17-0.02 0.24s-0.02 0.15-0.02 0.24c0 0.25 0.07 0.43 0.2 0.56 0.13 0.12 0.3 0.21 0.51 0.27 0.2 0.06 0.42 0.08 0.66 0.08h0.66c0.27 0 0.54-0.01 0.83-0.02 0.28-0.01 0.56-0.04 0.83-0.08 0.31-0.07 0.56-0.23 0.72-0.49 0.17-0.26 0.34-0.39 0.52-0.39 0.2 0 0.33 0.07 0.39 0.2s0.08 0.27 0.08 0.4v0.7c0.03 0.21 0 0.44-0.07 0.66z"/><path d="m97.41 15.22c0.2-0.18 0.34-0.4 0.42-0.66s0.17-0.45 0.28-0.56c0.14-0.18 0.27-0.43 0.4-0.76 0.14-0.33 0.25-0.66 0.35-1.01s0.19-0.68 0.25-0.99c0.07-0.31 0.1-0.55 0.1-0.71 0-0.09-0.04-0.17-0.13-0.25s-0.18-0.16-0.29-0.24c-0.1-0.08-0.19-0.17-0.27-0.27s-0.12-0.21-0.12-0.32c0-0.16 0.05-0.29 0.14-0.4s0.21-0.17 0.37-0.17c0.38 0 0.81 0.04 1.28 0.12s0.84 0.12 1.11 0.12c0.25 0 0.48-0.04 0.69-0.12s0.43-0.12 0.66-0.12c0.27 0 0.56 0.02 0.86 0.07 0.3 0.04 0.46 0.19 0.46 0.44 0 0.11-0.01 0.23-0.03 0.34s-0.1 0.18-0.24 0.2c-0.4 0.07-0.71 0.2-0.93 0.41-0.21 0.2-0.38 0.44-0.49 0.71s-0.21 0.56-0.29 0.86-0.2 0.6-0.35 0.89c-0.32 0.63-0.57 1.29-0.76 1.99s-0.44 1.39-0.76 2.09c-0.65 1.73-1.29 3.38-1.92 4.94s-1.16 3.14-1.59 4.74c-0.16 0.52-0.37 1.06-0.64 1.62s-0.57 1.11-0.91 1.63c-0.34 0.53-0.7 1.02-1.08 1.47s-0.76 0.82-1.15 1.11c-0.11 0.07-0.23 0.13-0.34 0.18-0.11 0.06-0.22 0.14-0.34 0.25-0.4 0.45-0.89 0.83-1.45 1.13s-1.14 0.54-1.74 0.73c-0.6 0.18-1.2 0.31-1.8 0.41-0.61 0.09-1.16 0.13-1.65 0.13-0.88 0-1.75-0.11-2.61-0.32-0.87-0.21-1.69-0.52-2.48-0.91s-1.5-0.85-2.13-1.38-1.15-1.1-1.55-1.7c-0.52-0.7-0.91-1.34-1.16-1.92-0.26-0.59-0.48-1.27-0.66-2.06-0.13-0.52-0.25-1.03-0.35-1.55s-0.15-1.05-0.15-1.58c0-0.27 0.03-0.58 0.1-0.94s0.16-0.74 0.27-1.15c0.11-0.4 0.24-0.8 0.37-1.2 0.14-0.39 0.26-0.76 0.37-1.1 0.22-0.76 0.54-1.4 0.94-1.91 0.41-0.51 0.83-0.94 1.27-1.32 0.44-0.37 0.87-0.71 1.3-1.03 0.43-0.31 0.77-0.66 1.05-1.05 0.05-0.09 0.07-0.2 0.07-0.34v-0.37-1.93c0-0.31-0.03-0.63-0.08-0.94-0.06-0.32-0.24-0.49-0.56-0.54-0.2-0.02-0.3-0.11-0.3-0.27 0-0.18 0.07-0.31 0.22-0.39s0.32-0.13 0.52-0.17c0.2-0.03 0.42-0.05 0.64-0.05h0.57c0.11 0 0.24 0.01 0.37 0.03s0.26 0.03 0.37 0.03c0.11-0.02 0.28-0.03 0.51-0.03 0.18 0 0.35 0.01 0.52 0.02s0.34 0.02 0.52 0.02 0.35-0.02 0.51-0.07c0.16-0.04 0.33-0.07 0.51-0.07 0.4 0.07 0.87 0.09 1.38 0.07 0.52-0.02 1.01 0 1.47 0.07s0.84 0.21 1.15 0.44c0.3 0.23 0.46 0.61 0.46 1.15-0.02 0.36-0.16 0.62-0.4 0.79-0.25 0.17-0.55 0.28-0.91 0.34s-0.74 0.08-1.15 0.07c-0.4-0.01-0.76-0.02-1.08-0.02-0.2 0-0.42-0.01-0.64-0.02s-0.43-0.02-0.61-0.02c-0.38 0-0.64 0.06-0.78 0.17s-0.2 0.3-0.2 0.57c0.02 0.2 0.05 0.34 0.07 0.42s0.19 0.12 0.51 0.12c0.18 0 0.39-0.03 0.62-0.1 0.24-0.07 0.48-0.1 0.73-0.1 0.49 0 0.93 0.13 1.3 0.39s0.56 0.62 0.56 1.1c0 0.52-0.19 0.91-0.56 1.18s-0.78 0.4-1.23 0.4c-0.05 0-0.1-0.01-0.17-0.02s-0.14-0.02-0.2-0.02c-0.47 0-0.83 0.12-1.06 0.37-0.24 0.25-0.4 0.56-0.49 0.95-0.09 0.38-0.13 0.79-0.13 1.23v1.23c0 0.4-0.02 0.81-0.05 1.21s-0.05 0.81-0.05 1.21c0 0.29 0.01 0.6 0.02 0.91s0.06 0.6 0.13 0.86c0.08 0.26 0.22 0.47 0.42 0.64s0.49 0.25 0.88 0.25c0.18 0 0.35-0.02 0.52-0.05s0.34-0.05 0.52-0.05h1.08c0.4 0 0.78 0.05 1.13 0.15s0.65 0.27 0.89 0.51c0.25 0.24 0.37 0.6 0.37 1.1 0 0.07-0.03 0.17-0.1 0.3-0.07 0.14-0.16 0.27-0.27 0.41-0.11 0.13-0.23 0.25-0.35 0.34s-0.25 0.13-0.39 0.13h-0.1c-0.18 0-0.38 0.02-0.61 0.05s-0.37 0.05-0.44 0.05c-0.2 0-0.41-0.02-0.62-0.07-0.21-0.04-0.43-0.07-0.66-0.07-0.81 0-1.62 0.01-2.43 0.03s-1.62 0.03-2.43 0.03c-0.31 0-0.6-0.01-0.84-0.02-0.25-0.01-0.37-0.2-0.37-0.56 0-0.09 0.04-0.18 0.14-0.27 0.09-0.09 0.19-0.2 0.3-0.32s0.21-0.26 0.3-0.4c0.09-0.15 0.13-0.31 0.13-0.49 0-0.11-0.01-0.22-0.02-0.32s-0.02-0.21-0.02-0.32c0-0.2 0.01-0.4 0.02-0.61 0.01-0.2 0.02-0.41 0.02-0.61 0-0.18-0.01-0.35-0.03-0.52s-0.03-0.34-0.03-0.52 0.01-0.35 0.02-0.51 0.02-0.33 0.02-0.51c0-0.38-0.02-0.76-0.05-1.13s-0.05-0.75-0.05-1.13v-0.57c0-0.07-0.02-0.13-0.05-0.2s-0.11-0.1-0.22-0.1c-0.22 0-0.45 0.15-0.67 0.46-0.23 0.3-0.43 0.66-0.62 1.06-0.19 0.41-0.35 0.82-0.49 1.25s-0.22 0.78-0.27 1.05-0.1 0.53-0.15 0.79c-0.06 0.26-0.07 0.51-0.05 0.76 0 0.14 0.01 0.32 0.02 0.56s0.05 0.41 0.12 0.52c0.13 0.27 0.22 0.55 0.27 0.84s0.09 0.58 0.13 0.88c0.05 0.29 0.11 0.56 0.19 0.81s0.24 0.45 0.49 0.61c0.04 0.04 0.07 0.09 0.07 0.13 0.31 0.63 0.74 1.19 1.26 1.67 0.53 0.48 1.08 0.89 1.67 1.23 0.58 0.34 1.15 0.59 1.69 0.76s0.99 0.25 1.35 0.25c0.47 0 0.97-0.03 1.48-0.08 0.52-0.06 1.03-0.15 1.53-0.27 0.51-0.12 0.97-0.3 1.4-0.52 0.43-0.23 0.79-0.51 1.08-0.84 0.47-0.56 0.92-1.12 1.33-1.67 0.42-0.55 0.8-1.12 1.15-1.7s0.66-1.21 0.94-1.89c0.28-0.67 0.52-1.4 0.73-2.19 0.13-0.27 0.28-0.58 0.44-0.93s0.31-0.7 0.46-1.06 0.26-0.68 0.35-0.96 0.13-0.49 0.13-0.62c0-0.25-0.08-0.56-0.24-0.93s-0.29-0.7-0.4-0.99c-0.38-0.9-0.73-1.8-1.03-2.71s-0.68-1.83-1.13-2.75c-0.14-0.25-0.25-0.48-0.34-0.71s-0.21-0.43-0.37-0.61-0.35-0.34-0.57-0.49-0.54-0.26-0.94-0.35c-0.11-0.04-0.2-0.08-0.27-0.12-0.07-0.03-0.1-0.11-0.1-0.22 0-0.4 0.18-0.61 0.54-0.61 0.18 0 0.36 0.02 0.56 0.05 0.19 0.03 0.38 0.05 0.56 0.05 0.11 0 0.24-0.01 0.37-0.03 0.14-0.02 0.26-0.03 0.37-0.03 0.2 0 0.4 0.02 0.59 0.07s0.38 0.07 0.56 0.07 0.36-0.04 0.54-0.12 0.33-0.12 0.44-0.12c0.18 0.02 0.38 0.04 0.59 0.05s0.42 0.04 0.61 0.08c0.19 0.05 0.35 0.12 0.49 0.24 0.13 0.11 0.2 0.27 0.2 0.47-0.05 0.11-0.13 0.19-0.25 0.22s-0.25 0.08-0.39 0.15c-0.13 0.07-0.25 0.17-0.35 0.3-0.1 0.14-0.15 0.37-0.15 0.71 0 0.23 0.06 0.51 0.17 0.84 0.11 0.34 0.25 0.7 0.42 1.08s0.35 0.76 0.56 1.13c0.15 0.39 0.33 0.71 0.49 0.98z"/><path d="m127.11 7.38c0.02 0.08 0.04 0.18 0.04 0.3 0 0.27-0.08 0.44-0.23 0.51-0.15 0.06-0.33 0.14-0.52 0.24-0.03 0-0.09 0.11-0.21 0.32-0.11 0.21-0.23 0.46-0.36 0.73-0.13 0.28-0.24 0.56-0.34 0.86s-0.15 0.56-0.15 0.79c0 0.08 0.01 0.14 0.04 0.21 0.02 0.06 0.04 0.13 0.04 0.21 0 0.52-0.04 1.06-0.11 1.59-0.08 0.54-0.11 1.06-0.11 1.55 0 0.4 0.01 0.79 0.02 1.16 0.01 0.38 0.02 0.75 0.02 1.13 0 0.15 0.03 0.31 0.08 0.47s0.07 0.32 0.07 0.47c0 0.2-0.01 0.41-0.04 0.64s-0.04 0.44-0.04 0.64c0 0.02 0.01 0.05 0.02 0.08s0.02 0.05 0.02 0.07c-0.08 0.22-0.13 0.46-0.15 0.69-0.03 0.24-0.04 0.48-0.04 0.73 0 0.2 0.01 0.39 0.02 0.58s0.02 0.38 0.02 0.58c0 0.25-0.01 0.49-0.04 0.73-0.02 0.24-0.04 0.48-0.04 0.73 0 0.3 0.01 0.61 0.02 0.92s0.02 0.62 0.02 0.92v0.71c0 0.13 0.05 0.32 0.15 0.58s0.21 0.39 0.34 0.39c0.1 0 0.18-0.04 0.24-0.13s0.13-0.13 0.21-0.13c0.07 0 0.14 0.04 0.21 0.13 0.06 0.09 0.09 0.16 0.09 0.21 0 0.1-0.02 0.18-0.06 0.24s-0.06 0.13-0.06 0.21c0 0.05 0.01 0.11 0.02 0.17s0.02 0.12 0.02 0.17c0 0.07-0.08 0.16-0.23 0.26s-0.33 0.19-0.54 0.28-0.43 0.16-0.66 0.21-0.41 0.08-0.56 0.08c-0.17 0-0.32-0.06-0.43-0.19s-0.26-0.19-0.43-0.19c-0.13 0-0.25 0.03-0.37 0.08-0.13 0.05-0.25 0.07-0.38 0.07-0.15 0-0.33-0.01-0.52-0.02-0.2-0.01-0.39-0.04-0.58-0.07-0.19-0.04-0.35-0.09-0.49-0.17s-0.21-0.19-0.21-0.34c0-0.08 0.05-0.19 0.15-0.34 0.23-0.23 0.41-0.4 0.56-0.52s0.27-0.26 0.36-0.39c0.09-0.14 0.16-0.29 0.21-0.45s0.07-0.38 0.07-0.65c-0.03-0.13-0.04-0.24-0.04-0.36s0-0.23 0-0.36c0-0.27 0.04-0.53 0.11-0.77s0.11-0.48 0.11-0.73c0-0.27-0.04-0.54-0.11-0.79-0.08-0.25-0.11-0.51-0.11-0.79 0-0.38 0.04-0.76 0.11-1.14 0.07-0.39 0.11-0.78 0.11-1.18 0-0.2-0.04-0.4-0.11-0.6-0.08-0.2-0.11-0.39-0.11-0.56 0-0.15 0.01-0.3 0.02-0.45s0.02-0.3 0.02-0.45v-0.67c0-0.2 0.01-0.41 0.04-0.62 0.02-0.21 0.04-0.42 0.04-0.62 0-0.35-0.01-0.73-0.04-1.14s-0.1-0.79-0.23-1.14c-0.13 0.07-0.24 0.21-0.34 0.41s-0.19 0.43-0.26 0.69-0.14 0.52-0.19 0.79c-0.05 0.26-0.09 0.49-0.11 0.69-0.07 0.87-0.27 1.78-0.6 2.72-0.32 0.94-0.62 1.92-0.9 2.94-0.32 1.1-0.63 2.17-0.92 3.22s-0.58 2.11-0.88 3.19c-0.08 0.28-0.16 0.44-0.26 0.49s-0.3 0.07-0.6 0.07c-0.27 0-0.52-0.02-0.75-0.07s-0.46-0.08-0.71-0.08c-0.13 0-0.24-0.13-0.34-0.37-0.1-0.25-0.2-0.55-0.3-0.9s-0.19-0.71-0.26-1.09c-0.08-0.37-0.14-0.69-0.19-0.94-0.2-0.95-0.49-1.87-0.86-2.77s-0.64-1.82-0.79-2.77c-0.05-0.27-0.14-0.74-0.28-1.39s-0.3-1.32-0.49-2.01-0.38-1.29-0.58-1.82c-0.2-0.52-0.38-0.81-0.52-0.86-0.13 0.5-0.22 0.99-0.28 1.46-0.06 0.48-0.09 0.96-0.09 1.46 0 0.28 0.01 0.56 0.04 0.86s0.04 0.58 0.04 0.82c0 0.4 0.04 0.78 0.13 1.14s0.13 0.73 0.13 1.11c0 0.3-0.03 0.61-0.09 0.92s-0.09 0.62-0.09 0.92c0 0.33 0.03 0.65 0.09 0.97 0.06 0.33 0.09 0.65 0.09 0.98-0.05 0.32-0.09 0.6-0.11 0.82-0.03 0.22-0.05 0.46-0.07 0.69-0.03 0.24-0.04 0.42-0.04 0.54 0 0.2 0.04 0.47 0.11 0.81s0.25 0.51 0.52 0.51c0.02 0 0.05-0.01 0.08-0.02 0.02-0.01 0.05-0.02 0.07-0.02 0.32 0.05 0.49 0.18 0.49 0.38s-0.07 0.36-0.22 0.47-0.34 0.19-0.56 0.24c-0.23 0.05-0.46 0.08-0.71 0.09s-0.49 0.02-0.71 0.02c-0.2 0-0.4-0.02-0.6-0.06s-0.4-0.06-0.6-0.06c-0.17 0-0.34 0.01-0.51 0.02-0.16 0.01-0.33 0.02-0.51 0.02h-0.23c-0.05 0-0.09 0.01-0.13 0.02s-0.08 0.02-0.13 0.02c-0.2 0-0.33-0.11-0.39-0.32s-0.09-0.42-0.09-0.62c0-0.12 0.09-0.19 0.26-0.19 0.32 0 0.58-0.24 0.77-0.73s0.28-0.98 0.28-1.48c0-0.25-0.03-0.49-0.09-0.73s-0.09-0.48-0.09-0.73c0-0.27 0.02-0.56 0.07-0.84 0.05-0.29 0.07-0.58 0.07-0.88 0-0.18-0.02-0.35-0.06-0.52-0.04-0.18-0.06-0.36-0.06-0.56 0-0.27 0.02-0.57 0.07-0.88s0.08-0.62 0.08-0.92c0-0.52-0.02-1.04-0.06-1.54s-0.06-1-0.06-1.5c0-0.35 0.03-0.69 0.09-1.03s0.09-0.66 0.09-0.96-0.03-0.61-0.09-0.94-0.09-0.64-0.09-0.94c0-0.35 0.02-0.69 0.07-1.01 0.05-0.33 0.08-0.65 0.08-0.98 0-0.47-0.04-0.95-0.13-1.42s-0.13-0.92-0.13-1.35c0-0.2 0.02-0.41 0.06-0.64s0.06-0.45 0.06-0.68v-0.84c0-0.2 0.01-0.4 0.04-0.6 0.02-0.2 0.04-0.4 0.04-0.6-0.02-0.27-0.05-0.54-0.07-0.81-0.02-0.26-0.06-0.53-0.11-0.81-0.07-0.35-0.25-0.67-0.52-0.96-0.28-0.29-0.41-0.51-0.41-0.65 0-0.33 0.13-0.49 0.38-0.49h0.11c0.27 0 0.55-0.02 0.82-0.07s0.55-0.07 0.82-0.07c0.23 0 0.45 0.02 0.67 0.07 0.23 0.05 0.45 0.07 0.67 0.07 0.1 0 0.19-0.01 0.26-0.04 0.07-0.02 0.16-0.04 0.26-0.04s0.19 0.11 0.28 0.32 0.17 0.47 0.24 0.77c0.08 0.3 0.15 0.61 0.23 0.94 0.07 0.32 0.15 0.59 0.23 0.79 0.47 1.27 0.91 2.6 1.29 3.99 0.39 1.39 0.63 2.74 0.73 4.07 0.02 0.25 0.08 0.49 0.17 0.73s0.18 0.48 0.28 0.73 0.19 0.5 0.28 0.75 0.13 0.51 0.13 0.79c0 0.13 0.07 0.48 0.21 1.07s0.31 1.21 0.53 1.87c0.21 0.66 0.44 1.26 0.67 1.8 0.24 0.54 0.46 0.81 0.66 0.81s0.37-0.19 0.52-0.56 0.26-0.74 0.34-1.09c0.05-0.27 0.14-0.56 0.26-0.86l0.36-0.9c0.11-0.3 0.21-0.58 0.3-0.84s0.13-0.51 0.13-0.73c0-0.5 0.09-0.98 0.28-1.44s0.36-0.93 0.51-1.4c0.2-0.58 0.34-1.14 0.43-1.71 0.09-0.56 0.27-1.13 0.54-1.7 0.25-0.55 0.44-1.09 0.58-1.63s0.27-1.09 0.39-1.67c0.07-0.42 0.16-0.92 0.26-1.5 0.1-0.57 0.23-1.12 0.38-1.63s0.32-0.95 0.51-1.31c0.18-0.38 0.4-0.56 0.65-0.56 0.17 0 0.36 0.02 0.54 0.08 0.19 0.05 0.37 0.08 0.54 0.08 0.2 0 0.38-0.01 0.54-0.02s0.33-0.02 0.51-0.02c0.25 0 0.53 0.04 0.82 0.13 0.3 0.09 0.45 0.22 0.45 0.39 0 0.13-0.01 0.26-0.04 0.41s-0.11 0.25-0.26 0.3c-0.23 0.1-0.39 0.33-0.51 0.69-0.11 0.36-0.2 0.77-0.26 1.22s-0.1 0.91-0.11 1.39-0.02 0.87-0.02 1.2v0.36s0.01 0.23 0.04 0.36c0 0.1-0.01 0.19-0.04 0.28-0.02 0.09-0.04 0.18-0.04 0.28 0 0.13 0.04 0.21 0.13 0.26s0.19 0.08 0.32 0.08c0.17 0 0.32-0.06 0.43-0.19s0.23-0.19 0.36-0.19 0.24 0.02 0.36 0.06c0.12 0.03 0.2 0.11 0.25 0.23z"/><path d="m141.58 13.98c0.12 0.1 0.19 0.24 0.19 0.41 0 0.13-0.06 0.25-0.19 0.37-0.13 0.13-0.28 0.19-0.45 0.19-0.13 0-0.24-0.01-0.34-0.04-0.1-0.02-0.21-0.04-0.34-0.04-0.35 0-0.71 0.02-1.09 0.07s-0.75 0.07-1.12 0.07c-0.13 0-0.26-0.01-0.39-0.02-0.14-0.01-0.27-0.02-0.39-0.02h-0.53c-0.13 0-0.27-0.02-0.43-0.08-0.16-0.05-0.24-0.17-0.24-0.37 0-0.15 0.06-0.27 0.19-0.36 0.12-0.09 0.27-0.17 0.43-0.26s0.31-0.19 0.43-0.3c0.13-0.11 0.19-0.27 0.19-0.47 0-0.1-0.01-0.17-0.04-0.22-0.35-0.52-0.67-0.94-0.96-1.24s-0.59-0.52-0.92-0.67-0.68-0.24-1.07-0.26-0.86-0.04-1.41-0.04c-0.22 0.02-0.44 0.06-0.64 0.11s-0.36 0.19-0.49 0.41c-0.07 0.12-0.2 0.24-0.37 0.34-0.28 0.2-0.49 0.45-0.66 0.75-0.16 0.3-0.28 0.63-0.36 0.99s-0.13 0.74-0.15 1.12c-0.02 0.39-0.04 0.75-0.04 1.1v0.49c0 0.25-0.02 0.49-0.08 0.73-0.05 0.24-0.08 0.49-0.08 0.77v0.75c0 0.37-0.05 0.71-0.15 1.01 0.07 0.37 0.13 0.8 0.17 1.27s0.09 0.93 0.17 1.36c0.07 0.44 0.19 0.84 0.34 1.22 0.15 0.37 0.36 0.65 0.64 0.82 0.42 0.27 0.84 0.55 1.24 0.82s0.85 0.41 1.35 0.41c0.1 0 0.19-0.01 0.28-0.02s0.18-0.02 0.28-0.02h0.37c0.23 0 0.48-0.1 0.77-0.3s0.56-0.45 0.82-0.76 0.49-0.65 0.69-1.01 0.32-0.71 0.38-1.06c0.07-0.64 0.23-1.12 0.45-1.43 0.23-0.31 0.6-0.46 1.13-0.46 0.1 0 0.24 0.02 0.41 0.06 0.18 0.04 0.36 0.09 0.54 0.15 0.19 0.06 0.35 0.14 0.49 0.24s0.21 0.23 0.21 0.38c0 0.32-0.04 0.69-0.13 1.09s-0.14 0.77-0.17 1.13c-0.02 0.32-0.13 0.71-0.32 1.14-0.19 0.44-0.42 0.86-0.69 1.27s-0.57 0.77-0.9 1.09c-0.32 0.31-0.65 0.51-0.97 0.58-0.33 0.1-0.57 0.24-0.75 0.41-0.45 0.45-1.01 0.67-1.69 0.67-0.13 0-0.26-0.01-0.39-0.04-0.14-0.02-0.28-0.04-0.43-0.04-0.07 0-0.15 0.01-0.23 0.02s-0.15 0.02-0.22 0.02c-0.38-0.02-0.74-0.06-1.11-0.09-0.36-0.04-0.73-0.12-1.11-0.24-0.45-0.12-0.84-0.31-1.18-0.56s-0.69-0.45-1.07-0.6c-0.15-0.05-0.28-0.17-0.39-0.37s-0.23-0.42-0.34-0.66-0.22-0.46-0.34-0.67c-0.11-0.21-0.24-0.38-0.39-0.51-0.2-0.15-0.35-0.38-0.45-0.67-0.1-0.3-0.17-0.64-0.21-1.03s-0.06-0.79-0.07-1.2-0.02-0.79-0.02-1.14c0-0.12 0.01-0.25 0.04-0.38 0.02-0.12 0.04-0.25 0.04-0.38-0.03-0.32-0.06-0.64-0.09-0.94-0.04-0.3-0.13-0.59-0.28-0.86-0.13-0.17-0.19-0.39-0.19-0.64s0.07-0.51 0.21-0.79c0.14-0.27 0.21-0.56 0.21-0.86 0-0.27-0.01-0.53-0.04-0.77-0.02-0.24-0.04-0.49-0.04-0.77 0-0.62 0.12-1.29 0.36-2.01 0.24-0.71 0.54-1.29 0.92-1.74 0.87-1 1.76-1.75 2.66-2.27 0.9-0.51 1.91-0.77 3.04-0.77 0.3 0 0.62 0.1 0.96 0.3s0.72 0.3 1.14 0.3 0.89 0.17 1.39 0.51 0.95 0.66 1.35 0.95c0.27 0.23 0.47 0.56 0.58 0.99 0.11 0.44 0.34 0.83 0.69 1.18 0.15 0.15 0.26 0.33 0.34 0.53s0.15 0.41 0.23 0.64c0.07 0.23 0.17 0.44 0.28 0.66 0.11 0.23 0.29 0.41 0.54 0.56z"/><path d="m157.03 6.32c0.32 0.13 0.49 0.32 0.49 0.6 0 0.43-0.24 0.64-0.71 0.64-0.48 0-0.95 0.03-1.42 0.09-0.48 0.06-0.95 0.09-1.42 0.09-0.18 0-0.36-0.02-0.54-0.08-0.19-0.05-0.36-0.07-0.51-0.07h-0.23c-0.13 0-0.22-0.03-0.3-0.09-0.07-0.06-0.11-0.21-0.11-0.43 0-0.15 0.04-0.27 0.13-0.36s0.17-0.17 0.26-0.24c0.09-0.08 0.17-0.16 0.26-0.24 0.09-0.09 0.13-0.23 0.13-0.43 0-0.22-0.08-0.49-0.24-0.79s-0.37-0.59-0.62-0.86-0.53-0.51-0.84-0.71-0.62-0.3-0.92-0.3c-0.15 0-0.33 0.01-0.54 0.04-0.21 0.02-0.41 0.05-0.58 0.07-0.68 0.08-1.21 0.35-1.61 0.83-0.4 0.47-0.71 1.05-0.92 1.72-0.21 0.68-0.35 1.4-0.41 2.17s-0.09 1.5-0.09 2.17c0 0.4 0.02 0.79 0.06 1.16s0.06 0.76 0.06 1.16c0 0.35-0.03 0.69-0.09 1.01s-0.09 0.66-0.09 1.01c0 0.15 0.01 0.3 0.02 0.45s0.02 0.3 0.02 0.45c-0.03 0.27-0.04 0.56-0.06 0.84-0.01 0.29-0.02 0.57-0.02 0.84 0 0.32 0.02 0.65 0.07 0.97 0.05 0.33 0.07 0.64 0.07 0.94 0 0.18-0.03 0.34-0.09 0.49s-0.09 0.31-0.09 0.49c0 0.67 0.04 1.34 0.13 2.01 0.09 0.66 0.33 1.28 0.73 1.85 0.15 0.25 0.29 0.41 0.43 0.49s0.33 0.23 0.58 0.45c0.22 0.22 0.46 0.38 0.69 0.47 0.24 0.09 0.49 0.13 0.77 0.13 0.9 0 1.69-0.26 2.36-0.77s1.07-1.21 1.2-2.08c0.12-0.6 0.31-1.13 0.56-1.59s0.66-0.69 1.24-0.69c0.38 0 0.67 0.06 0.88 0.19s0.37 0.28 0.49 0.45c0.11 0.18 0.18 0.36 0.21 0.56s0.04 0.39 0.04 0.56c0 0.35-0.09 0.88-0.28 1.59s-0.54 1.42-1.05 2.14c-0.51 0.71-1.21 1.34-2.08 1.87-0.88 0.54-1.99 0.81-3.34 0.81-0.55 0-1.2-0.13-1.95-0.38s-1.47-0.58-2.16-0.99-1.27-0.88-1.74-1.39c-0.48-0.51-0.71-1.03-0.71-1.56v-0.34c0-0.35-0.04-0.69-0.11-1.01-0.07-0.33-0.11-0.66-0.11-1.01 0-0.48 0.04-0.95 0.11-1.43 0.08-0.48 0.11-0.95 0.11-1.43 0-0.27-0.02-0.55-0.06-0.83-0.04-0.27-0.06-0.55-0.06-0.83 0-0.45 0.03-0.9 0.09-1.35s0.09-0.9 0.09-1.35c0-0.43-0.02-0.86-0.06-1.31s-0.06-0.9-0.06-1.35c0-0.5 0.03-0.99 0.09-1.46s0.09-0.96 0.09-1.46c-0.02-0.13-0.04-0.26-0.04-0.41v-0.41c0-0.48 0.05-0.91 0.15-1.31 0-0.1-0.01-0.23-0.02-0.37-0.01-0.15-0.02-0.29-0.02-0.41 0-0.52 0.1-1.03 0.3-1.52s0.45-0.96 0.75-1.41c0.05-0.05 0.09-0.11 0.13-0.17s0.07-0.13 0.09-0.21c0.08-0.35 0.31-0.68 0.71-0.99s0.85-0.59 1.37-0.83c0.51-0.24 1.02-0.43 1.54-0.56 0.51-0.14 0.91-0.21 1.18-0.21 0.8 0 1.55 0.12 2.27 0.36 0.71 0.24 1.46 0.61 2.23 1.12 0.35 0.25 0.66 0.56 0.94 0.93 0.27 0.37 0.54 0.73 0.79 1.08 0.1 0.15 0.19 0.36 0.28 0.64 0.09 0.27 0.18 0.56 0.28 0.84 0.1 0.29 0.21 0.55 0.34 0.79 0.12 0.22 0.28 0.38 0.49 0.46z"/><path d="m169.98 26.84c0.23 0.15 0.34 0.36 0.34 0.64 0 0.18-0.04 0.3-0.13 0.37s-0.19 0.13-0.32 0.15c-0.13 0.03-0.26 0.03-0.39 0.02-0.14-0.01-0.26-0.02-0.36-0.02-0.2 0-0.39-0.02-0.56-0.06s-0.36-0.06-0.56-0.06c-0.23 0-0.45 0.04-0.67 0.11-0.23 0.07-0.45 0.11-0.67 0.11-0.23 0-0.5-0.04-0.82-0.11-0.33-0.08-0.49-0.22-0.49-0.45 0-0.17 0.06-0.31 0.19-0.41 0.12-0.1 0.26-0.19 0.39-0.26 0.14-0.08 0.27-0.16 0.39-0.24 0.12-0.09 0.19-0.21 0.19-0.36 0-0.07-0.01-0.15-0.02-0.23-0.01-0.07-0.02-0.15-0.02-0.22 0-0.3 0.02-0.6 0.08-0.9 0.05-0.3 0.07-0.6 0.07-0.9s-0.01-0.6-0.04-0.9c-0.02-0.3-0.04-0.59-0.04-0.86 0-0.07 0.01-0.16 0.04-0.26 0.02-0.1 0.04-0.19 0.04-0.26 0-0.43-0.12-0.87-0.36-1.33s-0.59-0.69-1.07-0.69c-0.37 0-0.69 0.15-0.96 0.45-0.26 0.3-0.43 0.6-0.51 0.9-0.13 0.42-0.29 0.74-0.49 0.94s-0.3 0.49-0.3 0.86c0 0.43 0.02 0.84 0.06 1.26 0.04 0.41 0.06 0.83 0.06 1.26 0 0.4 0.06 0.69 0.17 0.88s0.25 0.34 0.39 0.45c0.15 0.11 0.28 0.22 0.39 0.32s0.17 0.24 0.17 0.41c0 0.37-0.15 0.61-0.45 0.71s-0.59 0.15-0.86 0.15c-0.17 0-0.34-0.02-0.51-0.08-0.16-0.05-0.34-0.07-0.54-0.07-0.13 0-0.24 0.03-0.34 0.09s-0.21 0.09-0.34 0.09c-0.12 0-0.27-0.05-0.43-0.15s-0.33-0.15-0.51-0.15c-0.15 0-0.3 0.02-0.45 0.08-0.15 0.05-0.3 0.1-0.45 0.15-0.43 0-0.64-0.19-0.64-0.56 0-0.12 0.05-0.26 0.15-0.39 0.1-0.14 0.21-0.27 0.34-0.39 0.12-0.12 0.24-0.23 0.34-0.32s0.15-0.15 0.15-0.21c0-0.07-0.02-0.15-0.07-0.23-0.05-0.07-0.08-0.14-0.08-0.19 0-0.07 0.05-0.19 0.15-0.36 0.1-0.16 0.15-0.32 0.15-0.47v-0.41c0-0.2 0.02-0.39 0.06-0.56 0.04-0.18 0.06-0.36 0.06-0.56 0-0.12-0.01-0.25-0.02-0.37-0.01-0.13-0.02-0.25-0.02-0.38 0-0.3 0.03-0.57 0.08-0.81s0.07-0.49 0.07-0.77c0-0.45-0.05-0.89-0.17-1.33-0.11-0.44-0.17-0.87-0.17-1.29 0-0.38 0.05-0.75 0.15-1.12s0.15-0.75 0.15-1.12c0-0.15-0.01-0.29-0.02-0.43s-0.02-0.28-0.02-0.43c-0.13-1-0.18-1.99-0.15-2.98 0.02-0.99-0.03-1.95-0.15-2.9-0.05-0.25-0.12-0.46-0.22-0.62s-0.21-0.3-0.34-0.41-0.23-0.21-0.32-0.3-0.13-0.19-0.13-0.32c0-0.35 0.15-0.54 0.45-0.58s0.59-0.06 0.86-0.06c0.2 0 0.38 0.03 0.54 0.08s0.33 0.07 0.51 0.07c0.35 0 0.71-0.01 1.07-0.02s0.73-0.02 1.11-0.02c0.57 0 1.2 0.01 1.87 0.02 0.68 0.01 1.31 0.08 1.91 0.21 0.42 0.08 0.8 0.24 1.12 0.51 0.33 0.26 0.6 0.57 0.83 0.92 0.22 0.35 0.39 0.72 0.51 1.11 0.11 0.39 0.17 0.77 0.17 1.14 0 1.02-0.09 1.95-0.28 2.77-0.19 0.83-0.53 1.6-1.03 2.32-0.12 0.13-0.23 0.29-0.32 0.51-0.09 0.21-0.13 0.34-0.13 0.39 0.38 0.5 0.68 0.96 0.92 1.37s0.45 0.87 0.64 1.39c0.19 0.51 0.28 1.01 0.28 1.48 0 0.28-0.02 0.56-0.06 0.84-0.04 0.29-0.06 0.57-0.06 0.84 0 0.12 0.02 0.26 0.07 0.41s0.07 0.3 0.07 0.45c0 0.27-0.03 0.56-0.09 0.86s-0.09 0.6-0.09 0.9c0 0.39 0.16 0.69 0.49 0.89zm-5.33-11.1c0.17-0.1 0.36-0.26 0.54-0.49 0.19-0.23 0.34-0.46 0.47-0.71s0.23-0.49 0.32-0.71c0.09-0.23 0.13-0.4 0.13-0.52 0-0.27-0.01-0.57-0.02-0.9-0.01-0.32-0.06-0.63-0.15-0.92s-0.22-0.53-0.41-0.73-0.45-0.3-0.77-0.3c-0.37 0-0.69 0.09-0.96 0.28-0.26 0.19-0.47 0.41-0.62 0.68-0.15 0.26-0.26 0.54-0.32 0.84s-0.09 0.56-0.09 0.79c0 0.25 0.06 0.49 0.19 0.71 0.12 0.22 0.19 0.44 0.19 0.64 0 0.25-0.06 0.53-0.19 0.84s-0.19 0.61-0.19 0.88v0.64c0 0.22 0.1 0.34 0.3 0.34 0.3-0.07 0.56-0.27 0.79-0.58 0.23-0.32 0.49-0.58 0.79-0.78z"/><path d="m181.05 25.04c0.45 0.13 0.76 0.34 0.94 0.66 0.17 0.31 0.26 0.67 0.26 1.07 0 0.28-0.12 0.54-0.36 0.79s-0.53 0.37-0.88 0.37c-0.07 0-0.16-0.01-0.26-0.04-0.1-0.02-0.19-0.04-0.26-0.04-0.2 0-0.42 0.05-0.66 0.15s-0.49 0.15-0.77 0.15-0.54-0.04-0.81-0.13c-0.26-0.09-0.53-0.13-0.81-0.13-0.25 0-0.5 0.03-0.75 0.09s-0.5 0.09-0.75 0.09c-0.28 0-0.53-0.02-0.77-0.07s-0.49-0.08-0.77-0.08c-0.25 0-0.58 0.06-0.97 0.17-0.4 0.11-0.77 0.17-1.12 0.17-0.2 0-0.35-0.07-0.45-0.21s-0.15-0.29-0.15-0.47c0-0.15 0.06-0.28 0.17-0.39s0.24-0.22 0.39-0.34c0.15-0.11 0.28-0.24 0.39-0.39s0.17-0.34 0.17-0.56c0-0.2-0.02-0.42-0.06-0.66s-0.06-0.47-0.06-0.69c0-0.2 0.03-0.38 0.09-0.54s0.09-0.34 0.09-0.54c0-0.45-0.04-0.91-0.11-1.39-0.08-0.47-0.11-0.95-0.11-1.42 0-0.35 0.02-0.69 0.07-1.03s0.07-0.68 0.07-1.03c0-0.33-0.01-0.64-0.04-0.96-0.03-0.31-0.04-0.64-0.04-0.99 0-0.4 0.01-0.79 0.04-1.18 0.02-0.39 0.04-0.78 0.04-1.18 0-0.32-0.04-0.64-0.13-0.94s-0.13-0.6-0.13-0.9c0-0.2 0.03-0.38 0.09-0.54s0.09-0.34 0.09-0.54c0-0.17-0.01-0.34-0.02-0.49s-0.02-0.31-0.02-0.49c0-0.1 0.01-0.19 0.02-0.26 0.01-0.08 0.02-0.16 0.02-0.26 0-0.08-0.11-0.26-0.34-0.54-0.23-0.29-0.47-0.43-0.75-0.43-0.1 0-0.16-0.06-0.19-0.19-0.02-0.13-0.04-0.22-0.04-0.3 0-0.27 0.1-0.5 0.3-0.68 0.2-0.17 0.44-0.26 0.71-0.26 0.13 0 0.26 0.02 0.39 0.06 0.14 0.04 0.27 0.06 0.39 0.06 0.22 0 0.44-0.02 0.66-0.06 0.21-0.04 0.42-0.06 0.62-0.06 0.32 0 0.62 0.06 0.9 0.17 0.27 0.11 0.55 0.17 0.83 0.17 0.05 0 0.11-0.01 0.19-0.02 0.07-0.01 0.14-0.02 0.19-0.02 0.2 0 0.43 0.07 0.69 0.21s0.53 0.21 0.81 0.21c0.25 0 0.49-0.09 0.73-0.26s0.47-0.26 0.69-0.26c0.27 0 0.56 0.03 0.86 0.09s0.58 0.17 0.84 0.32 0.48 0.34 0.66 0.57c0.17 0.23 0.26 0.52 0.26 0.87 0 0.32-0.09 0.58-0.26 0.76-0.17 0.19-0.39 0.32-0.66 0.41-0.26 0.09-0.56 0.14-0.88 0.17-0.33 0.02-0.64 0.04-0.94 0.04-0.13 0-0.25-0.02-0.38-0.06s-0.25-0.06-0.38-0.06c-0.27 0-0.56 0.06-0.84 0.17-0.29 0.11-0.59 0.17-0.92 0.17-0.1 0-0.2-0.01-0.3-0.02s-0.21-0.02-0.34-0.02c-0.3 0-0.46 0.13-0.49 0.4s-0.04 0.6-0.04 1.01v0.42c0 0.13-0.01 0.24-0.04 0.34-0.02 0.1-0.04 0.2-0.04 0.3 0 0.23 0.12 0.34 0.38 0.34h0.45c0.23 0 0.43 0.03 0.62 0.09s0.38 0.09 0.58 0.09c0.15 0 0.29-0.01 0.43-0.04 0.14-0.02 0.28-0.04 0.43-0.04 0.5 0 0.97 0.13 1.41 0.39s0.66 0.69 0.66 1.29c0 0.35-0.14 0.67-0.43 0.96s-0.72 0.43-1.29 0.43c-0.13 0-0.26-0.02-0.39-0.06-0.14-0.04-0.27-0.06-0.39-0.06-0.27 0-0.52 0.06-0.73 0.19s-0.46 0.19-0.73 0.19c-0.05 0-0.12-0.01-0.21-0.04-0.09-0.02-0.17-0.04-0.24-0.04-0.13 0-0.23 0.04-0.32 0.13s-0.13 0.21-0.13 0.36v0.3c0 0.18-0.01 0.34-0.04 0.49-0.02 0.15-0.04 0.31-0.04 0.49 0 0.12 0.02 0.24 0.06 0.34s0.06 0.21 0.06 0.34-0.02 0.24-0.06 0.36c-0.04 0.11-0.06 0.23-0.06 0.36 0.02 0.45 0.03 0.94 0.02 1.46s0.02 1.02 0.09 1.48c0.08 0.46 0.24 0.84 0.49 1.14s0.64 0.45 1.16 0.45c0.28-0.02 0.54-0.07 0.81-0.13 0.26-0.06 0.52-0.09 0.77-0.09 0.27 0 0.61 0.03 0.99 0.09 0.44 0.05 0.78 0.13 1.08 0.23z"/><path d="m201.89 31.52c0.23 0 0.52 0.01 0.88 0.04 0.36 0.02 0.72 0.09 1.09 0.19 0.36 0.1 0.67 0.25 0.94 0.45 0.26 0.2 0.39 0.48 0.39 0.83 0 0.42-0.16 0.84-0.47 1.26-0.31 0.41-0.73 0.62-1.25 0.62-1.05-0.03-2.06-0.05-3.04-0.08-0.97-0.03-1.92-0.15-2.85-0.38-0.92-0.23-1.83-0.58-2.72-1.07s-1.76-1.2-2.61-2.15c-0.35-0.35-0.8-0.68-1.37-0.99-0.56-0.31-1.08-0.61-1.56-0.88-0.67-0.4-1.46-0.69-2.34-0.88-0.89-0.19-1.84-0.28-2.87-0.28-0.42 0-0.85 0.01-1.27 0.04-0.43 0.03-0.85 0.04-1.27 0.04h-0.3c-0.05 0-0.09 0.01-0.11 0.02s-0.06 0.02-0.11 0.02c-0.02 0-0.04-0.01-0.05-0.02s-0.03-0.02-0.06-0.02c-0.05 0-0.11 0.01-0.17 0.04-0.06 0.02-0.12 0.04-0.17 0.04-0.07 0-0.16-0.09-0.26-0.28s-0.15-0.34-0.15-0.47c0-0.07 0.06-0.14 0.19-0.19 0.32-0.12 0.61-0.33 0.84-0.62 0.24-0.29 0.44-0.6 0.6-0.96 0.16-0.35 0.28-0.72 0.36-1.12s0.11-0.77 0.11-1.13v-0.3c0-0.47 0.04-0.94 0.13-1.41 0.09-0.46 0.18-0.92 0.28-1.37s0.19-0.91 0.28-1.37 0.14-0.93 0.17-1.41c0.05-1.27 0.18-2.54 0.39-3.79s0.38-2.52 0.51-3.82c0-0.08 0.01-0.14 0.02-0.21 0.01-0.06 0.02-0.13 0.02-0.21 0-0.25-0.05-0.43-0.15-0.54s-0.21-0.22-0.34-0.32-0.26-0.22-0.39-0.36c-0.14-0.14-0.24-0.34-0.32-0.62-0.03-0.02-0.04-0.06-0.04-0.11 0-0.12 0.07-0.21 0.23-0.24 0.15-0.04 0.29-0.06 0.41-0.06 0.13 0 0.26 0.01 0.41 0.04 0.15 0.02 0.3 0.04 0.45 0.04 0.27 0 0.56-0.04 0.86-0.11 0.3-0.08 0.61-0.11 0.94-0.11 0.53 0 1.02 0.04 1.5 0.13 0.47 0.09 0.96 0.13 1.46 0.13 0.5-0.05 1.01-0.06 1.52-0.04 0.51 0.03 1.02-0.04 1.52-0.19 0.05 0 0.08-0.01 0.09-0.02s0.04-0.02 0.1-0.02c0.2 0 0.34 0.06 0.43 0.19s0.13 0.29 0.13 0.49c-0.05 0.22-0.16 0.36-0.34 0.41-0.3 0.12-0.5 0.31-0.6 0.56s-0.15 0.52-0.15 0.83c0 0.7 0.11 1.37 0.34 2.02 0.22 0.65 0.34 1.31 0.34 1.99v0.41c0 0.35 0.06 0.68 0.19 0.99 0.12 0.31 0.19 0.64 0.19 0.99v0.38c0 0.55 0.07 1.08 0.21 1.59s0.23 1.03 0.28 1.56c0.05 0.45 0.09 0.96 0.11 1.52 0.03 0.56 0.08 1.12 0.15 1.69 0.08 0.56 0.17 1.08 0.3 1.56 0.12 0.47 0.32 0.84 0.6 1.09 0.2 0.2 0.31 0.42 0.32 0.66s0.03 0.48 0.06 0.73c0 0.12-0.05 0.19-0.15 0.19s-0.26-0.07-0.47-0.23c-0.21-0.15-0.45-0.33-0.71-0.54s-0.54-0.42-0.84-0.64c-0.3-0.21-0.59-0.38-0.86-0.51-0.25-0.1-0.52-0.2-0.81-0.3s-0.56-0.21-0.82-0.34-0.48-0.26-0.66-0.39c-0.18-0.14-0.26-0.3-0.26-0.51 0-0.1 0.05-0.19 0.15-0.26s0.21-0.15 0.32-0.23c0.11-0.07 0.22-0.16 0.32-0.24 0.1-0.09 0.15-0.21 0.15-0.36 0-0.18-0.02-0.41-0.06-0.69-0.04-0.29-0.1-0.56-0.19-0.83-0.09-0.26-0.2-0.49-0.34-0.69s-0.32-0.3-0.54-0.3c-0.32 0-0.68 0.05-1.07 0.15s-0.75 0.23-1.09 0.39-0.62 0.36-0.84 0.6c-0.23 0.24-0.35 0.51-0.38 0.81-0.02 0.27-0.06 0.56-0.11 0.84-0.05 0.29-0.07 0.56-0.07 0.81 0 0.35 0.11 0.64 0.32 0.86s0.48 0.34 0.81 0.34c0.85 0 1.64 0.13 2.38 0.38s1.43 0.56 2.08 0.94 1.26 0.79 1.82 1.24 1.1 0.87 1.63 1.27c0.13 0.05 0.23 0.11 0.32 0.19s0.19 0.11 0.32 0.11c0.2 0 0.32-0.09 0.36-0.28s0.06-0.36 0.06-0.51c0-0.1-0.01-0.19-0.02-0.28s-0.02-0.19-0.02-0.32c0-0.35 0.03-0.71 0.09-1.09s0.09-0.75 0.09-1.12c0-0.23-0.03-0.44-0.09-0.66-0.06-0.21-0.09-0.44-0.09-0.69 0-0.52 0.01-1.04 0.02-1.55s0.08-1.03 0.21-1.55c0-0.05 0.01-0.09 0.02-0.11s0.02-0.06 0.02-0.11c0-0.35-0.06-0.73-0.17-1.14s-0.17-0.82-0.17-1.22c0-0.38 0.01-0.74 0.04-1.11 0.02-0.36 0.04-0.73 0.04-1.11 0-0.35-0.01-0.7-0.02-1.05s-0.02-0.7-0.02-1.05c0.05-0.4 0.09-0.8 0.13-1.2s0.06-0.8 0.06-1.2v-0.88c0-0.31-0.03-0.62-0.08-0.92s-0.13-0.57-0.24-0.82-0.29-0.44-0.54-0.56c-0.27-0.15-0.41-0.39-0.41-0.71s0.11-0.49 0.34-0.49h0.52c0.35 0 0.69 0.02 1.03 0.06s0.68 0.06 1.03 0.06c0.45 0 0.9-0.02 1.35-0.07s0.91-0.08 1.39-0.08c0.65 0 1.3 0.03 1.95 0.09s1.24 0.24 1.76 0.54 0.95 0.76 1.27 1.39 0.49 1.51 0.49 2.66c0 0.82-0.14 1.66-0.43 2.51s-0.72 1.59-1.29 2.21c-0.13 0.13-0.19 0.24-0.19 0.34 0 0.07 0.06 0.15 0.19 0.22 0.72 0.52 1.22 1.22 1.48 2.08s0.39 1.69 0.39 2.49c0 0.55-0.03 1.09-0.07 1.63-0.05 0.54-0.08 1.08-0.08 1.63 0 0.43 0.04 0.78 0.13 1.07s0.32 0.52 0.69 0.69c0.3 0.18 0.45 0.36 0.45 0.56 0 0.27-0.1 0.47-0.3 0.6s-0.45 0.21-0.75 0.26-0.61 0.07-0.94 0.06c-0.32-0.01-0.61-0.02-0.86-0.02-0.2 0-0.39-0.01-0.56-0.02-0.18-0.01-0.36-0.02-0.56-0.02h-0.97c-0.4-0.02-0.6-0.2-0.6-0.52 0-0.12 0.02-0.24 0.06-0.36 0.04-0.11 0.12-0.19 0.24-0.24 0.4-0.12 0.64-0.34 0.73-0.66 0.09-0.31 0.13-0.65 0.13-1.03-0.03-0.13-0.04-0.24-0.06-0.36-0.01-0.11-0.02-0.23-0.02-0.36 0-0.15 0.01-0.3 0.02-0.45s0.03-0.3 0.06-0.45c0-0.3-0.02-0.69-0.06-1.16s-0.12-0.94-0.24-1.39-0.3-0.84-0.52-1.16c-0.23-0.32-0.53-0.49-0.9-0.49-0.35 0-0.64 0.19-0.86 0.58-0.23 0.39-0.41 0.84-0.54 1.35-0.14 0.51-0.24 1.02-0.3 1.54-0.06 0.51-0.09 0.89-0.09 1.14 0 0.43 0.02 0.86 0.06 1.31s0.06 0.9 0.06 1.35c-0.02 0.22-0.05 0.45-0.07 0.69-0.03 0.24-0.04 0.47-0.04 0.69 0 0.35 0.02 0.71 0.06 1.09s0.12 0.72 0.24 1.03 0.3 0.58 0.54 0.79 0.56 0.32 0.96 0.32c0.2 0 0.39 0.01 0.56 0.02 0.1 0.01 0.29 0.02 0.49 0.02zm-12.82-16.68c0-0.35-0.03-0.78-0.09-1.29s-0.15-1.01-0.26-1.48-0.25-0.88-0.41-1.22-0.33-0.51-0.51-0.51c-0.2 0-0.39 0.15-0.56 0.45s-0.26 0.55-0.26 0.75c0 0.07 0.01 0.14 0.04 0.21 0.02 0.06 0.04 0.13 0.04 0.21 0 0.07-0.01 0.12-0.04 0.15-0.1 0.57-0.17 1.17-0.21 1.8s-0.06 1.23-0.06 1.8c0 0.6 0.34 0.9 1.01 0.9 0.55 0 0.91-0.16 1.07-0.47 0.16-0.32 0.24-0.75 0.24-1.3zm11.17-4.53c-0.17 0.03-0.42 0.06-0.73 0.09-0.31 0.04-0.47 0.17-0.47 0.39v0.19c0 0.13-0.01 0.26-0.04 0.39-0.03 0.14-0.04 0.27-0.04 0.39 0 0.27 0.02 0.53 0.06 0.77s0.06 0.49 0.06 0.77c0 0.15-0.01 0.31-0.02 0.49s-0.02 0.34-0.02 0.49c0 0.18 0.01 0.37 0.02 0.6 0.01 0.22 0.02 0.44 0.04 0.65 0.01 0.21 0.04 0.39 0.08 0.54s0.09 0.22 0.17 0.22c0.35 0 0.69-0.16 1.01-0.49 0.32-0.32 0.61-0.7 0.84-1.13 0.24-0.42 0.43-0.82 0.58-1.2 0.15-0.37 0.22-0.62 0.22-0.75s-0.01-0.26-0.04-0.41c-0.02-0.15-0.04-0.29-0.04-0.41 0-0.1 0.02-0.25 0.07-0.45 0-0.32-0.21-0.6-0.62-0.82-0.4-0.21-0.78-0.32-1.13-0.32z"/><path d="m214.67 14.58c0.05-0.43 0.16-0.84 0.32-1.24s0.28-0.81 0.36-1.24c0.05-0.13 0.09-0.23 0.11-0.32s0.07-0.17 0.15-0.24c0.27-0.3 0.48-0.64 0.62-1.01s0.28-0.74 0.43-1.09c0.13-0.35 0.01-0.6-0.34-0.75-0.12 0-0.21-0.01-0.26-0.04-0.13-0.05-0.24-0.09-0.34-0.13s-0.13-0.15-0.08-0.36c0.05-0.25 0.1-0.41 0.15-0.47s0.2-0.09 0.45-0.09h1.09c0.38 0 0.74 0.01 1.09 0.04 0.42 0.03 0.86 0.03 1.29 0 0.44-0.02 0.87-0.02 1.29 0h0.11c0.1 0 0.21-0.01 0.34-0.02s0.2 0.06 0.23 0.21c0.02 0.13 0.03 0.26 0.02 0.39-0.01 0.14-0.09 0.26-0.24 0.36s-0.26 0.16-0.34 0.19c-0.3 0.1-0.54 0.26-0.73 0.47s-0.36 0.46-0.51 0.73c-0.2 0.37-0.37 0.76-0.52 1.14-0.15 0.39-0.3 0.77-0.45 1.14-0.38 0.95-0.72 1.9-1.03 2.85s-0.68 1.89-1.11 2.81c-0.15 0.35-0.29 0.71-0.41 1.07-0.13 0.36-0.23 0.74-0.3 1.14-0.13 0.5-0.29 0.99-0.51 1.48-0.21 0.49-0.42 0.98-0.62 1.48-0.2 0.45-0.39 0.9-0.58 1.35s-0.41 0.89-0.66 1.31c-0.05 0.05-0.1 0.16-0.15 0.34-0.22 0.82-0.52 1.66-0.9 2.51-0.22 0.55-0.43 1.1-0.62 1.65s-0.42 1.07-0.69 1.57c-0.2 0.38-0.34 0.77-0.43 1.18s-0.19 0.82-0.32 1.22c-0.05 0.17-0.11 0.35-0.17 0.52s-0.13 0.34-0.21 0.49c-0.4 0.75-0.63 1.51-0.67 2.29-0.05 0.77 0.01 1.56 0.19 2.36 0.02 0.13 0.06 0.23 0.09 0.32 0.04 0.09 0.08 0.19 0.13 0.32 0.2 0.32 0.39 0.65 0.56 0.98 0.17 0.32 0.35 0.66 0.52 1.01 0.3 0.45 0.61 0.81 0.94 1.09 0.22 0.17 0.42 0.36 0.6 0.54 0.17 0.19 0.36 0.37 0.56 0.54 0.58 0.45 1.19 0.76 1.84 0.92s1.32 0.23 2.02 0.21c0.23-0.13 0.45-0.19 0.67-0.21 0.23-0.01 0.47-0.01 0.75 0.02 0.25 0.02 0.5-0.01 0.75-0.09 0.25-0.09 0.49-0.19 0.71-0.32 0.65-0.32 1.27-0.69 1.86-1.1s1.1-0.94 1.55-1.59c0.35-0.5 0.61-1.03 0.77-1.57 0.16-0.55 0.29-1.11 0.39-1.69 0.17-1.02 0.16-2-0.04-2.92-0.2-0.93-0.61-1.81-1.24-2.66-0.28-0.35-0.59-0.66-0.94-0.92s-0.7-0.52-1.05-0.77c-0.2-0.15-0.41-0.29-0.64-0.43s-0.44-0.28-0.64-0.43c-0.25-0.15-0.46-0.33-0.64-0.54s-0.28-0.48-0.3-0.8c-0.03-0.52 0.2-0.99 0.67-1.39 0.27-0.25 0.53-0.36 0.77-0.34s0.49 0.09 0.77 0.19c0.85 0.23 1.57 0.62 2.17 1.2 0.37 0.35 0.76 0.68 1.16 0.99s0.77 0.67 1.12 1.07c0.68 0.82 1.22 1.71 1.63 2.66s0.64 1.96 0.69 3.04c0.08 0.92-0.05 1.85-0.37 2.77-0.13 0.38-0.22 0.76-0.28 1.14-0.06 0.39-0.16 0.76-0.28 1.11-0.13 0.3-0.26 0.59-0.41 0.86s-0.26 0.57-0.34 0.9c-0.05 0.1-0.1 0.16-0.15 0.19-0.55 0.55-1.09 1.11-1.61 1.67s-1.11 1.07-1.76 1.52c-0.07 0.05-0.14 0.09-0.21 0.13-0.06 0.04-0.13 0.08-0.21 0.13-0.62 0.23-1.23 0.47-1.82 0.73s-1.22 0.43-1.89 0.51c-0.23 0.02-0.46 0.04-0.69 0.04-0.24 0-0.47 0.01-0.69 0.04-2.77 0.12-5.2-0.71-7.27-2.51-0.4-0.35-0.78-0.73-1.14-1.12-0.36-0.4-0.72-0.81-1.07-1.24s-0.63-0.94-0.82-1.54c-0.28-0.75-0.49-1.49-0.64-2.23s-0.21-1.51-0.19-2.3c0.02-0.67 0.11-1.32 0.26-1.95s0.31-1.25 0.49-1.87c0.17-0.67 0.4-1.32 0.69-1.93s0.54-1.24 0.77-1.89l0.54-1.35s0.33-0.91 0.43-1.39c0.07-0.4 0.2-0.77 0.38-1.13 0.17-0.35 0.34-0.7 0.49-1.05 0.23-0.58 0.46-1.13 0.71-1.67s0.51-1.09 0.79-1.67l0.51-1.2c0.16-0.4 0.34-0.8 0.54-1.2 0.17-0.35 0.15-0.7-0.07-1.05-0.13-0.2-0.23-0.41-0.32-0.64-0.09-0.22-0.16-0.46-0.21-0.71-0.05-0.17-0.09-0.34-0.13-0.49s-0.1-0.3-0.17-0.45c-0.47-0.88-0.89-1.76-1.26-2.64-0.36-0.89-0.69-1.8-0.99-2.75-0.08-0.25-0.18-0.49-0.3-0.73-0.13-0.24-0.26-0.47-0.41-0.69-0.23-0.4-0.61-0.62-1.16-0.67-0.12-0.02-0.24-0.05-0.36-0.08-0.11-0.02-0.23-0.06-0.36-0.11-0.13-0.07-0.21-0.21-0.24-0.41-0.04-0.2 0.01-0.36 0.13-0.49 0.1-0.07 0.26-0.11 0.49-0.11 0.43 0.03 0.84 0.04 1.24 0.04h1.24c0.17 0.02 0.34 0.04 0.49 0.06 0.15 0.01 0.3-0.01 0.45-0.06 0.45-0.1 0.9-0.14 1.35-0.13s0.91 0.04 1.39 0.09c0.17 0 0.32 0.05 0.45 0.15 0.23 0.1 0.31 0.29 0.26 0.56 0 0.22-0.13 0.36-0.38 0.41-0.05 0.02-0.11 0.04-0.19 0.06-0.07 0.01-0.15 0.04-0.22 0.09-0.53 0.22-0.73 0.64-0.6 1.24 0.05 0.35 0.15 0.67 0.3 0.97s0.26 0.63 0.34 0.98c0.05 0.27 0.13 0.55 0.24 0.82 0.11 0.28 0.19 0.55 0.24 0.83 0.11 0.37 0.35 0.64 0.75 0.79z"/>
</svg>
