<svg version="1.1" xmlns="http://www.w3.org/2000/svg" viewBox="281 371 50 50" fill="#fff">
  <path d="M306,371c-13.806,0-25,11.193-25,25s11.194,25,25,25c13.807,0,25-11.193,25-25
    C331,382.19,319.807,371,306,371z M321.359,401.597c-0.169,2.081-1.75,4.737-3.959,5.122c-7.078,0.55-15.466,0.481-22.797,0
    c-2.288-0.288-3.791-3.044-3.959-5.122c-0.356-4.368-0.356-6.856,0-11.225c0.169-2.078,1.709-4.819,3.959-5.069
    c7.247-0.609,15.681-0.478,22.797,0c2.543,0.094,3.79,2.716,3.959,4.797C321.709,394.469,321.709,397.229,321.359,401.597z"/>
  <polygon points="302.875,402.25 312.25,396 302.875,389.75"/>
</svg>