<svg version="1.1" xmlns="http://www.w3.org/2000/svg" viewBox="0 0 87.32 66.69" fill="#333"><path d="M41.96,5.71c0.03-0.17,0.05-0.4,0.05-0.7c0-0.27-0.01-0.58-0.03-0.93c-0.02-0.35-0.05-0.68-0.1-1c-0.05-0.32-0.13-0.62-0.25-0.9C41.52,1.9,41.34,1.7,41.11,1.6c-0.17-0.07-0.33-0.15-0.5-0.25c-0.17-0.1-0.25-0.28-0.25-0.55c0-0.23,0.08-0.4,0.22-0.5c0.15-0.1,0.34-0.16,0.58-0.18c0.23-0.02,0.48-0.02,0.73,0c0.25,0.02,0.47,0.03,0.68,0.03c0.3,0,0.61,0.01,0.93,0.03c0.32,0.02,0.63,0.03,0.93,0.03c0.37,0,0.75-0.01,1.15-0.03c0.4-0.02,0.78-0.03,1.15-0.03c0.2,0,0.38,0.03,0.53,0.1c0.15,0.07,0.23,0.23,0.23,0.5c0,0.23-0.08,0.43-0.25,0.6c-0.17,0.17-0.35,0.34-0.55,0.52c-0.2,0.18-0.38,0.4-0.55,0.65c-0.17,0.25-0.25,0.58-0.25,0.98c-0.03,0.3-0.05,0.6-0.05,0.9s0,0.58,0,0.85c0,0.3,0.01,0.59,0.03,0.88c0.02,0.28,0.03,0.56,0.03,0.83v0.8c0,0.2,0.02,0.42,0.05,0.65c0.03,0.23,0.1,0.46,0.2,0.68c0.1,0.22,0.23,0.4,0.4,0.55c0.17,0.15,0.37,0.23,0.6,0.23c0.33,0,0.69-0.03,1.08-0.08c0.38-0.05,0.74-0.08,1.08-0.08c0.63,0,1.12,0.21,1.45,0.63c0.33,0.42,0.5,0.91,0.5,1.48c0,0.73-0.18,1.24-0.55,1.53c-0.37,0.28-0.83,0.44-1.4,0.48h-1.4c-0.8,0-1.38,0.11-1.75,0.33c-0.37,0.22-0.55,0.68-0.55,1.38c0.07,0.57,0.11,1.14,0.12,1.73c0.02,0.58,0.03,1.14,0.03,1.68c0,0.3-0.03,0.6-0.08,0.9c-0.05,0.3-0.08,0.58-0.08,0.85c0,0.77,0.06,1.59,0.17,2.48c0.12,0.89,0.18,1.63,0.18,2.23c0,0.54-0.08,1.06-0.25,1.58c-0.17,0.52-0.25,0.99-0.25,1.43c0,0.54,0.11,1.06,0.33,1.58c0.22,0.52,0.33,1.01,0.33,1.48c0,0.4-0.06,0.79-0.17,1.18c-0.12,0.38-0.18,0.78-0.18,1.18c0,0.33,0.04,0.67,0.12,1c0.08,0.33,0.12,0.67,0.12,1c0,0.27-0.02,0.51-0.05,0.72c-0.03,0.22-0.05,0.46-0.05,0.73c0,0.3,0.03,0.61,0.08,0.93c0.05,0.32,0.07,0.63,0.07,0.93c0,0.4-0.05,0.81-0.15,1.23c-0.1,0.42-0.15,0.84-0.15,1.28c0,0.27,0.03,0.55,0.1,0.85c0.07,0.3,0.1,0.58,0.1,0.85c0,0.57-0.07,1.18-0.2,1.85c-0.13,0.67-0.28,1.33-0.45,1.98c-0.17,0.65-0.32,1.25-0.45,1.8c-0.13,0.55-0.2,0.99-0.2,1.33c0,0.53,0.31,1.13,0.93,1.78c0.62,0.65,1.34,1.28,2.18,1.88c0.83,0.6,1.66,1.15,2.48,1.65c0.82,0.5,1.41,0.88,1.78,1.15c0.43,0.33,0.93,0.5,1.5,0.5h0.4c0.27,0,0.49,0.07,0.68,0.22c0.18,0.15,0.38,0.33,0.58,0.53c0.2,0.2,0.43,0.38,0.68,0.53c0.25,0.15,0.56,0.23,0.93,0.23c0.5,0,0.97,0.12,1.4,0.35c0.43,0.23,0.83,0.52,1.2,0.85c0.33,0.3,0.81,0.58,1.43,0.83c0.62,0.25,1.26,0.45,1.93,0.6c0.67,0.15,1.29,0.27,1.88,0.35c0.58,0.08,1.01,0.13,1.28,0.13c0.17,0,0.33-0.01,0.48-0.03c0.15-0.02,0.31-0.03,0.48-0.03h1.45c0.27,0,0.52-0.03,0.75-0.08c0.23-0.05,0.48-0.07,0.75-0.07c0.17,0,0.35,0.02,0.55,0.07c0.2,0.05,0.4,0.08,0.6,0.08c0.13,0,0.25-0.02,0.35-0.05c0.53-0.2,1.11-0.37,1.73-0.5c0.62-0.13,1.22-0.28,1.8-0.43c0.58-0.15,1.15-0.33,1.7-0.55c0.55-0.22,1.06-0.51,1.53-0.88c0.2-0.17,0.46-0.33,0.78-0.5c0.32-0.17,0.62-0.34,0.93-0.53c0.3-0.18,0.57-0.37,0.8-0.55c0.23-0.19,0.4-0.38,0.5-0.58c0.13-0.33,0.32-0.64,0.55-0.93c0.23-0.28,0.46-0.58,0.68-0.88c0.22-0.3,0.41-0.61,0.58-0.93c0.17-0.32,0.28-0.66,0.35-1.03c0.13-0.57,0.34-0.98,0.62-1.23c0.28-0.25,0.61-0.38,0.98-0.38c0.77,0,1.38,0.21,1.85,0.63c0.47,0.42,0.7,0.98,0.7,1.68c0,0.3-0.08,0.6-0.23,0.9c-0.15,0.3-0.33,0.61-0.55,0.93c-0.22,0.32-0.45,0.63-0.7,0.95c-0.25,0.32-0.46,0.63-0.63,0.93c-0.43,0.77-0.85,1.4-1.25,1.9c-0.4,0.5-0.93,0.95-1.6,1.35c-0.47,0.27-0.87,0.57-1.2,0.9c-0.6,0.57-1.22,1.03-1.85,1.4c-0.63,0.37-1.27,0.68-1.9,0.95c-0.64,0.27-1.23,0.48-1.78,0.65c-0.55,0.17-1.03,0.3-1.43,0.4c-2.3,0.63-4.69,0.95-7.16,0.95c-0.77,0-1.56-0.05-2.38-0.15c-0.82-0.1-1.59-0.33-2.33-0.7c-0.2-0.1-0.42-0.15-0.65-0.15c-0.87-0.07-1.74-0.29-2.6-0.65c-0.87-0.37-1.74-0.7-2.6-1c-0.7-0.23-1.39-0.52-2.08-0.85c-0.69-0.33-1.37-0.69-2.05-1.05c-0.69-0.37-1.37-0.73-2.05-1.08c-0.68-0.35-1.38-0.68-2.08-0.98c-0.13-0.03-0.35-0.18-0.65-0.43c-0.3-0.25-0.63-0.55-1-0.9c-0.37-0.35-0.74-0.71-1.13-1.08c-0.38-0.37-0.69-0.67-0.93-0.9c-0.27-0.23-0.58-0.42-0.95-0.55c-0.37-0.13-0.7-0.2-1-0.2c-0.43,0-0.87,0.2-1.3,0.6c-0.43,0.4-0.87,0.87-1.3,1.4c-0.43,0.53-0.85,1.05-1.25,1.55c-0.4,0.5-0.77,0.87-1.1,1.1c-1.8,1.37-3.61,2.54-5.41,3.5c-1.8,0.97-3.91,1.69-6.31,2.15c-1.2,0.27-2.39,0.44-3.55,0.53c-1.17,0.08-2.37,0.12-3.61,0.12c-0.33,0-0.66-0.02-0.98-0.05c-0.32-0.03-0.64-0.05-0.98-0.05c-0.1,0.03-0.21,0.05-0.33,0.05c-0.12,0-0.23,0-0.33,0c-1.64,0-3.02-0.23-4.16-0.7c-1.13-0.47-2.17-0.89-3.1-1.25c-1.8-0.67-3.42-1.75-4.86-3.25c-1.44-1.5-2.5-3.17-3.2-5.01c-0.37-0.9-0.59-1.91-0.68-3.03C0.04,52.28,0,51.3,0,50.47c0-1.47,0.25-2.93,0.75-4.38C1.25,44.64,2,43.38,3,42.31c0.53-0.53,0.8-1.17,0.8-1.9c0-0.57-0.09-1.21-0.28-1.93c-0.18-0.72-0.38-1.47-0.58-2.25c-0.2-0.78-0.39-1.57-0.58-2.35c-0.18-0.78-0.27-1.54-0.27-2.28c0-0.47,0.07-0.93,0.2-1.38c0.13-0.45,0.2-0.91,0.2-1.38c0-1.7,0.33-3.34,0.98-4.91c0.65-1.57,1.46-3.02,2.43-4.36c0.27-0.33,0.53-0.71,0.78-1.13c0.25-0.42,0.52-0.83,0.8-1.23c0.28-0.4,0.6-0.78,0.95-1.13c0.35-0.35,0.74-0.63,1.18-0.83c0.4-0.17,0.8-0.46,1.2-0.88s0.88-0.73,1.45-0.93c0.63-0.2,1.21-0.48,1.73-0.85c0.52-0.37,1.14-0.62,1.88-0.75c0.27-0.03,0.53-0.13,0.8-0.3c1.07-0.63,2.28-1.03,3.63-1.2c1.35-0.17,2.65-0.25,3.88-0.25c0.53,0,1.05-0.01,1.55-0.03c0.5-0.02,0.95-0.1,1.35-0.25c0.4-0.15,0.72-0.38,0.95-0.7c0.23-0.32,0.35-0.76,0.35-1.33c0-0.17-0.03-0.34-0.08-0.53c-0.05-0.18-0.07-0.38-0.07-0.58c0-0.33,0.05-0.68,0.15-1.03c0.1-0.35,0.15-0.71,0.15-1.08c0-0.47-0.04-1-0.12-1.6c-0.08-0.6-0.31-1.02-0.68-1.25c-0.27-0.17-0.49-0.37-0.68-0.6c-0.18-0.23-0.27-0.43-0.27-0.6c0-0.07,0.07-0.18,0.2-0.33C27.12,0.08,27.27,0,27.44,0c0.33,0,0.66,0.06,0.98,0.17c0.32,0.12,0.64,0.18,0.98,0.18c0.43,0,0.86-0.05,1.28-0.15c0.42-0.1,0.84-0.15,1.28-0.15c0.17,0,0.36,0.01,0.58,0.03c0.22,0.02,0.42,0.05,0.62,0.1c0.2,0.05,0.38,0.13,0.53,0.25C33.82,0.54,33.9,0.7,33.9,0.9s-0.08,0.37-0.23,0.53c-0.15,0.15-0.33,0.31-0.53,0.48c-0.2,0.17-0.38,0.36-0.53,0.58C32.47,2.7,32.4,2.97,32.4,3.3c0,0.87-0.02,1.72-0.05,2.55c-0.03,0.83-0.05,1.69-0.05,2.55c0,0.6,0.24,1.01,0.73,1.23c0.48,0.22,1.06,0.33,1.73,0.33c0.9,0,1.82-0.02,2.75-0.05c0.93-0.03,1.84-0.08,2.7-0.15c0.67-0.07,1.13-0.33,1.38-0.78c0.25-0.45,0.38-1.04,0.38-1.78V5.71z M10.31,42.71c0,0.17,0.14,0.42,0.43,0.75c0.28,0.33,0.63,0.68,1.03,1.05c0.4,0.37,0.81,0.73,1.23,1.08c0.42,0.35,0.76,0.59,1.03,0.73c0.77,0.43,1.54,0.88,2.3,1.33c0.77,0.45,1.6,0.76,2.5,0.93c0.77,0.13,1.51,0.28,2.23,0.42c0.72,0.15,1.43,0.24,2.13,0.27c0.17,0,0.32-0.01,0.45-0.02c0.13-0.02,0.28-0.03,0.45-0.03c0.67,0,1.17,0.2,1.5,0.6c0.33,0.4,0.5,0.93,0.5,1.6c0,0.77-0.28,1.33-0.85,1.7s-1.24,0.55-2,0.55c-0.87,0-1.85-0.11-2.93-0.33c-1.08-0.22-2.06-0.48-2.93-0.78c-0.67-0.2-1.25-0.43-1.75-0.68c-0.5-0.25-0.96-0.5-1.38-0.75c-0.42-0.25-0.82-0.49-1.2-0.73c-0.38-0.23-0.79-0.47-1.23-0.7c-0.37-0.13-0.7-0.32-1-0.55c-0.3-0.23-0.58-0.48-0.83-0.73c-0.25-0.25-0.49-0.51-0.73-0.78c-0.23-0.27-0.5-0.52-0.8-0.75c-0.37-0.27-0.73-0.53-1.08-0.78c-0.35-0.25-0.66-0.56-0.93-0.93c-0.67,0.83-1.2,1.71-1.6,2.63c-0.4,0.92-0.6,1.91-0.6,2.98c0,0.83,0.06,1.67,0.18,2.5c0.12,0.83,0.34,1.57,0.68,2.2c0.37,0.73,0.89,1.45,1.58,2.15c0.68,0.7,1.34,1.3,1.98,1.8c0.77,0.63,1.63,1.15,2.6,1.55c0.97,0.4,1.8,0.65,2.5,0.75c0.97,0.17,1.94,0.31,2.93,0.43c0.98,0.12,1.96,0.17,2.93,0.17c0.63,0,1.27-0.04,1.9-0.13c0.63-0.08,1.29-0.22,1.95-0.42c0.03-0.03,0.07-0.04,0.1-0.03c0.03,0.02,0.08,0.01,0.15-0.03c0.8-0.23,1.64-0.43,2.53-0.6c0.88-0.17,1.75-0.37,2.6-0.6c0.85-0.23,1.68-0.53,2.48-0.9c0.8-0.37,1.54-0.87,2.2-1.5c0.23-0.23,0.47-0.4,0.7-0.5c0.47-0.24,0.92-0.57,1.35-1c0.43-0.43,0.81-0.89,1.13-1.35c0.32-0.47,0.58-0.95,0.78-1.43c0.2-0.48,0.3-0.91,0.3-1.28c0-0.53-0.2-1.04-0.6-1.5c-0.4-0.47-0.88-0.91-1.43-1.33c-0.55-0.42-1.13-0.81-1.73-1.18c-0.6-0.37-1.12-0.7-1.55-1c-0.84-0.57-1.66-1.13-2.48-1.68c-0.82-0.55-1.66-1.09-2.53-1.63c-0.2-0.13-0.43-0.21-0.68-0.22c-0.25-0.02-0.48-0.11-0.68-0.28c-0.4-0.27-0.83-0.44-1.3-0.53c-0.47-0.08-0.93-0.24-1.4-0.48c-0.57-0.27-1.16-0.52-1.78-0.75c-0.62-0.23-1.26-0.35-1.93-0.35c-0.67,0-1.33-0.06-2-0.17c-0.67-0.12-1.34-0.18-2-0.18c-0.43,0-0.86,0.08-1.28,0.25c-0.42,0.17-0.81,0.25-1.18,0.25h-0.2c-0.5,0-0.97,0.11-1.4,0.32C11.23,42.4,10.78,42.58,10.31,42.71z M28.44,17.83c0.03-0.13,0.05-0.25,0.05-0.35c0-0.1,0.02-0.2,0.05-0.3c0-0.6-0.02-1.09-0.05-1.48c-0.03-0.38-0.13-0.68-0.3-0.9c-0.17-0.22-0.43-0.37-0.8-0.45c-0.37-0.08-0.87-0.12-1.5-0.12c-0.87,0-1.74,0.03-2.6,0.08c-0.87,0.05-1.74,0.07-2.6,0.07h-0.55c-0.4,0-0.8,0.07-1.2,0.23c-0.4,0.15-0.8,0.34-1.2,0.58c-0.4,0.23-0.8,0.47-1.2,0.7s-0.79,0.45-1.15,0.65c-1.17,0.47-2.24,1.14-3.2,2.03c-0.97,0.88-1.84,1.88-2.6,2.98c-0.27,0.4-0.55,0.85-0.85,1.35c-0.3,0.5-0.58,1.01-0.83,1.53c-0.25,0.52-0.48,1.02-0.68,1.5c-0.2,0.48-0.32,0.89-0.35,1.23c-0.17,0.94-0.29,1.79-0.38,2.58c-0.08,0.79-0.12,1.6-0.12,2.43c0,0.47,0.05,1.06,0.15,1.78c0.1,0.72,0.25,1.42,0.45,2.1c0.2,0.68,0.46,1.27,0.78,1.75c0.32,0.48,0.71,0.73,1.18,0.73c0.13,0,0.31-0.05,0.53-0.15c0.22-0.1,0.44-0.2,0.68-0.3c0.77-0.23,1.54-0.38,2.3-0.45c0.77-0.07,1.54-0.2,2.3-0.4c0.83-0.17,1.57-0.25,2.2-0.25c1.6,0,3.22,0.23,4.86,0.7c1.63,0.47,3.24,0.95,4.81,1.45c0.37,0.1,0.73,0.27,1.08,0.53c0.35,0.25,0.71,0.52,1.08,0.8c0.37,0.28,0.76,0.56,1.18,0.83c0.42,0.27,0.88,0.45,1.38,0.55c1.17,0.6,2.34,1.29,3.5,2.08c1.17,0.78,2.27,1.63,3.3,2.53c0.3,0.27,0.59,0.48,0.88,0.63c0.28,0.15,0.62,0.21,1.03,0.17c0.07,0,0.17-0.12,0.33-0.38c0.15-0.25,0.31-0.53,0.48-0.83c0.2-0.37,0.42-0.79,0.65-1.25c0.07-0.33,0.11-0.66,0.12-0.98c0.02-0.32,0.03-0.62,0.03-0.92c0-0.87-0.01-1.7-0.03-2.5c-0.02-0.8-0.04-1.62-0.08-2.45c0-0.23,0.05-0.48,0.15-0.73c0.1-0.25,0.15-0.53,0.15-0.83c0-0.37,0.02-0.73,0.05-1.1c0.03-0.37,0.05-0.73,0.05-1.1c0-0.13,0-0.27,0-0.4c0-0.13-0.02-0.28-0.05-0.45c0-0.17,0.03-0.32,0.08-0.45c0.05-0.13,0.08-0.28,0.08-0.45c0-0.37-0.03-0.72-0.1-1.05c-0.07-0.33-0.1-0.68-0.1-1.05c0-0.67,0.02-1.34,0.05-2.03c0.03-0.68,0.05-1.36,0.05-2.03c0-0.6-0.03-1.2-0.1-1.8c-0.07-0.6-0.1-1.2-0.1-1.8c0-0.57,0.02-1.13,0.08-1.68c0.05-0.55,0.08-1.11,0.08-1.68c0-0.33-0.03-0.66-0.1-0.97c-0.07-0.32-0.1-0.64-0.1-0.98c0-0.23,0.01-0.45,0.02-0.65c0.02-0.2,0.03-0.42,0.03-0.65c0-0.57-0.23-1.03-0.68-1.4c-0.45-0.37-0.96-0.55-1.53-0.55c-0.27,0-0.54,0.04-0.83,0.12c-0.28,0.09-0.56,0.12-0.83,0.12c-0.43,0-0.85-0.02-1.25-0.07c-0.4-0.05-0.82-0.08-1.25-0.08c-0.9,0-1.58,0.11-2.03,0.33c-0.45,0.22-0.68,0.66-0.68,1.33c0,0.7-0.07,1.41-0.2,2.13c-0.13,0.72-0.2,1.43-0.2,2.13c0,0.4,0.03,0.79,0.1,1.15c0.07,0.37,0.1,0.75,0.1,1.15c0,0.27-0.01,0.53-0.02,0.78c-0.02,0.25-0.02,0.51-0.02,0.78v0.95c0,0.57-0.05,1.15-0.15,1.75c-0.1,0.6-0.15,1.19-0.15,1.75c0,0.67,0.06,1.33,0.17,1.98c0.12,0.65,0.17,1.31,0.17,1.98c0,0.23-0.01,0.45-0.02,0.65c-0.02,0.2-0.02,0.4-0.02,0.6c0,0.43,0.02,0.91,0.07,1.43c0.05,0.52,0.12,1.03,0.23,1.53s0.23,0.95,0.38,1.35c0.15,0.4,0.34,0.67,0.58,0.8c0.27,0.23,0.4,0.55,0.4,0.95c-0.03,0.17-0.08,0.37-0.15,0.6c-0.07,0.23-0.23,0.35-0.5,0.35c-0.07,0-0.23-0.08-0.5-0.25c-0.27-0.17-0.59-0.37-0.98-0.6c-0.38-0.23-0.77-0.47-1.15-0.7c-0.38-0.23-0.73-0.4-1.03-0.5c-0.27-0.1-0.57-0.22-0.9-0.35c-0.33-0.13-0.65-0.29-0.95-0.45c-0.3-0.17-0.56-0.34-0.78-0.53c-0.22-0.18-0.33-0.36-0.33-0.53c0-0.27,0.08-0.49,0.25-0.68c0.17-0.18,0.36-0.36,0.58-0.53c0.22-0.17,0.41-0.36,0.58-0.58c0.17-0.22,0.25-0.51,0.25-0.88c0-0.47,0.02-0.94,0.05-1.43c0.03-0.48,0.05-0.96,0.05-1.43c0-0.5-0.04-1-0.12-1.5c-0.08-0.5-0.12-0.99-0.12-1.45c0-0.47,0.05-0.93,0.15-1.38c0.1-0.45,0.15-0.91,0.15-1.38c0-0.67-0.05-1.33-0.15-1.98c-0.1-0.65-0.15-1.31-0.15-1.98c0-0.4,0.02-0.81,0.08-1.23c0.05-0.42,0.08-0.84,0.08-1.28V17.83z M80.1,13.01c0.03,0.13,0.05,0.31,0.05,0.53c0,0.48-0.1,0.78-0.3,0.89c-0.2,0.11-0.43,0.25-0.7,0.43c-0.03,0-0.13,0.19-0.28,0.56c-0.15,0.37-0.31,0.8-0.47,1.29c-0.17,0.49-0.32,0.99-0.45,1.52c-0.13,0.53-0.2,0.99-0.2,1.39c0,0.13,0.02,0.26,0.05,0.36c0.03,0.11,0.05,0.23,0.05,0.36c0,0.92-0.05,1.86-0.15,2.81c-0.1,0.95-0.15,1.86-0.15,2.74c0,0.7,0.01,1.39,0.02,2.05c0.02,0.66,0.02,1.32,0.02,1.98c0,0.26,0.03,0.54,0.1,0.83c0.07,0.29,0.1,0.56,0.1,0.82c0,0.36-0.02,0.73-0.05,1.12c-0.03,0.4-0.05,0.77-0.05,1.12c0,0.04,0.01,0.09,0.02,0.13c0.02,0.05,0.03,0.09,0.03,0.13c-0.1,0.4-0.17,0.81-0.2,1.22c-0.03,0.42-0.05,0.85-0.05,1.29c0,0.35,0.01,0.69,0.03,1.02c0.02,0.33,0.03,0.67,0.03,1.03c0,0.44-0.02,0.87-0.05,1.29c-0.03,0.42-0.05,0.85-0.05,1.29c0,0.53,0.01,1.07,0.02,1.62c0.02,0.55,0.02,1.09,0.02,1.62v1.26c0,0.22,0.07,0.56,0.2,1.02c0.13,0.46,0.28,0.69,0.45,0.69c0.13,0,0.24-0.08,0.33-0.23c0.08-0.15,0.17-0.23,0.27-0.23s0.19,0.08,0.28,0.23c0.08,0.15,0.13,0.28,0.13,0.36c0,0.18-0.03,0.32-0.08,0.43C79.02,48.09,79,48.22,79,48.35c0,0.09,0.01,0.19,0.03,0.3c0.02,0.11,0.03,0.21,0.03,0.3c0,0.13-0.1,0.28-0.3,0.46c-0.2,0.18-0.44,0.34-0.73,0.49c-0.28,0.15-0.58,0.28-0.88,0.36c-0.3,0.09-0.55,0.13-0.75,0.13c-0.23,0-0.42-0.11-0.58-0.33c-0.15-0.22-0.34-0.33-0.58-0.33c-0.17,0-0.33,0.05-0.5,0.13c-0.17,0.09-0.33,0.13-0.5,0.13c-0.2,0-0.43-0.01-0.7-0.03c-0.27-0.02-0.53-0.07-0.78-0.13c-0.25-0.07-0.47-0.16-0.65-0.3c-0.18-0.13-0.27-0.33-0.27-0.59c0-0.13,0.07-0.33,0.2-0.6c0.3-0.4,0.55-0.7,0.75-0.92c0.2-0.22,0.36-0.45,0.48-0.69c0.12-0.24,0.21-0.5,0.28-0.79c0.07-0.29,0.1-0.67,0.1-1.15c-0.03-0.22-0.05-0.43-0.05-0.63c0-0.2,0-0.41,0-0.63c0-0.48,0.05-0.94,0.15-1.35c0.1-0.42,0.15-0.85,0.15-1.29c0-0.48-0.05-0.95-0.15-1.39c-0.1-0.44-0.15-0.9-0.15-1.39c0-0.66,0.05-1.33,0.15-2.02c0.1-0.68,0.15-1.38,0.15-2.08c0-0.35-0.05-0.7-0.15-1.06c-0.1-0.35-0.15-0.68-0.15-0.99c0-0.26,0.01-0.53,0.03-0.79c0.02-0.27,0.02-0.53,0.02-0.79v-1.19c0-0.35,0.02-0.71,0.05-1.09c0.03-0.37,0.05-0.74,0.05-1.09c0-0.62-0.02-1.29-0.05-2.01c-0.03-0.73-0.13-1.4-0.3-2.01c-0.17,0.13-0.32,0.37-0.45,0.73c-0.13,0.35-0.25,0.76-0.35,1.22c-0.1,0.46-0.18,0.92-0.25,1.39c-0.07,0.46-0.12,0.87-0.15,1.22c-0.1,1.54-0.37,3.14-0.8,4.79c-0.43,1.65-0.83,3.38-1.2,5.19c-0.43,1.94-0.84,3.83-1.23,5.68c-0.38,1.85-0.78,3.72-1.18,5.62c-0.1,0.49-0.22,0.77-0.35,0.86c-0.13,0.09-0.4,0.13-0.8,0.13c-0.37,0-0.7-0.04-1-0.13c-0.3-0.09-0.62-0.13-0.95-0.13c-0.17,0-0.32-0.22-0.45-0.66c-0.13-0.44-0.27-0.97-0.4-1.58s-0.25-1.25-0.35-1.92c-0.1-0.66-0.18-1.21-0.25-1.65c-0.27-1.67-0.65-3.3-1.15-4.89c-0.5-1.59-0.85-3.21-1.05-4.89c-0.07-0.48-0.19-1.3-0.38-2.44c-0.18-1.15-0.4-2.32-0.65-3.53c-0.25-1.21-0.51-2.28-0.78-3.2c-0.27-0.92-0.5-1.43-0.7-1.52c-0.17,0.88-0.29,1.74-0.38,2.58c-0.08,0.84-0.13,1.7-0.13,2.58c0,0.49,0.02,0.99,0.05,1.52c0.03,0.53,0.05,1.01,0.05,1.45c0,0.7,0.06,1.38,0.18,2.01c0.12,0.64,0.17,1.29,0.17,1.95c0,0.53-0.04,1.07-0.13,1.62c-0.08,0.55-0.12,1.09-0.12,1.62c0,0.57,0.04,1.15,0.12,1.72c0.08,0.57,0.13,1.15,0.13,1.72c-0.07,0.57-0.12,1.06-0.15,1.45c-0.03,0.4-0.07,0.8-0.1,1.22c-0.03,0.42-0.05,0.74-0.05,0.96c0,0.35,0.05,0.83,0.15,1.42c0.1,0.6,0.33,0.89,0.7,0.89c0.03,0,0.07-0.01,0.1-0.03c0.03-0.02,0.07-0.03,0.1-0.03c0.43,0.09,0.65,0.31,0.65,0.66s-0.1,0.63-0.3,0.82c-0.2,0.2-0.45,0.34-0.75,0.43c-0.3,0.09-0.62,0.14-0.95,0.16C57.54,49.99,57.22,50,56.92,50c-0.27,0-0.53-0.03-0.8-0.1c-0.27-0.06-0.53-0.1-0.8-0.1c-0.23,0-0.46,0.01-0.68,0.03c-0.22,0.02-0.44,0.03-0.67,0.03h-0.3c-0.07,0-0.13,0.01-0.17,0.03c-0.05,0.02-0.11,0.03-0.18,0.03c-0.27,0-0.44-0.19-0.53-0.56c-0.08-0.37-0.12-0.74-0.12-1.09c0-0.22,0.12-0.33,0.35-0.33c0.43,0,0.78-0.43,1.03-1.29c0.25-0.86,0.38-1.73,0.38-2.61c0-0.44-0.04-0.87-0.13-1.29c-0.08-0.42-0.12-0.85-0.12-1.29c0-0.48,0.03-0.98,0.1-1.49c0.07-0.5,0.1-1.02,0.1-1.55c0-0.31-0.02-0.62-0.08-0.92c-0.05-0.31-0.07-0.64-0.07-0.99c0-0.48,0.03-1,0.1-1.55c0.07-0.55,0.1-1.09,0.1-1.62c0-0.92-0.03-1.83-0.08-2.71c-0.05-0.88-0.08-1.76-0.08-2.64c0-0.62,0.04-1.22,0.12-1.82c0.08-0.59,0.12-1.16,0.12-1.68c0-0.53-0.04-1.08-0.12-1.65c-0.08-0.57-0.12-1.12-0.12-1.65c0-0.62,0.03-1.21,0.1-1.78c0.07-0.57,0.1-1.15,0.1-1.72c0-0.83-0.06-1.67-0.18-2.51c-0.12-0.84-0.17-1.63-0.17-2.38c0-0.35,0.02-0.73,0.08-1.12c0.05-0.4,0.08-0.79,0.08-1.19V8.98c0-0.35,0.02-0.7,0.05-1.05c0.03-0.35,0.05-0.7,0.05-1.06c-0.03-0.48-0.07-0.96-0.1-1.42c-0.03-0.46-0.08-0.93-0.15-1.42c-0.1-0.62-0.33-1.18-0.7-1.68c-0.37-0.5-0.55-0.89-0.55-1.15c0-0.57,0.17-0.86,0.5-0.86h0.15c0.37,0,0.73-0.04,1.1-0.13c0.37-0.09,0.73-0.13,1.1-0.13c0.3,0,0.6,0.04,0.9,0.13c0.3,0.09,0.6,0.13,0.9,0.13c0.13,0,0.25-0.02,0.35-0.06c0.1-0.04,0.22-0.07,0.35-0.07c0.13,0,0.26,0.19,0.37,0.56c0.12,0.37,0.23,0.83,0.33,1.36c0.1,0.53,0.2,1.08,0.3,1.65c0.1,0.57,0.2,1.03,0.3,1.39c0.63,2.25,1.21,4.59,1.73,7.03s0.84,4.83,0.98,7.17c0.03,0.44,0.11,0.87,0.22,1.29c0.12,0.42,0.24,0.85,0.38,1.29c0.13,0.44,0.26,0.88,0.38,1.32c0.12,0.44,0.17,0.9,0.17,1.39c0,0.22,0.09,0.85,0.28,1.88c0.18,1.04,0.42,2.14,0.7,3.3c0.28,1.17,0.58,2.22,0.9,3.17c0.32,0.95,0.61,1.42,0.88,1.42c0.27,0,0.5-0.33,0.7-0.99c0.2-0.66,0.35-1.3,0.45-1.91c0.07-0.48,0.18-0.99,0.35-1.52c0.17-0.53,0.33-1.06,0.48-1.59c0.15-0.53,0.28-1.02,0.4-1.49c0.12-0.46,0.17-0.89,0.17-1.29c0-0.88,0.13-1.73,0.38-2.54c0.25-0.81,0.48-1.64,0.68-2.48c0.27-1.01,0.46-2.01,0.58-3.01c0.12-0.99,0.36-1.99,0.73-3c0.33-0.97,0.59-1.93,0.78-2.87c0.18-0.95,0.36-1.93,0.53-2.94c0.1-0.75,0.22-1.63,0.35-2.64c0.13-1.01,0.3-1.97,0.5-2.87c0.2-0.9,0.43-1.67,0.68-2.31C74.12,0.32,74.41,0,74.74,0c0.23,0,0.47,0.04,0.73,0.13c0.25,0.09,0.49,0.13,0.73,0.13c0.27,0,0.51-0.01,0.72-0.03c0.22-0.02,0.44-0.03,0.68-0.03c0.33,0,0.7,0.08,1.1,0.23c0.4,0.15,0.6,0.39,0.6,0.69c0,0.22-0.02,0.46-0.05,0.73c-0.03,0.27-0.15,0.44-0.35,0.53c-0.3,0.18-0.53,0.58-0.68,1.22c-0.15,0.64-0.27,1.36-0.35,2.15c-0.08,0.79-0.13,1.61-0.15,2.44c-0.02,0.84-0.02,1.54-0.02,2.11c0,0.22,0,0.43,0,0.63s0.02,0.41,0.05,0.63c0,0.18-0.02,0.34-0.05,0.5c-0.03,0.15-0.05,0.32-0.05,0.49c0,0.22,0.06,0.37,0.18,0.46c0.12,0.09,0.26,0.13,0.42,0.13c0.23,0,0.43-0.11,0.58-0.33c0.15-0.22,0.31-0.33,0.48-0.33s0.33,0.03,0.48,0.1C79.93,12.65,80.03,12.79,80.1,13.01z"/></svg>