<svg version="1.1" xmlns="http://www.w3.org/2000/svg" viewBox="-0.174 -0.174 50 50" fill="#fff">
  <path d="M24.826-0.174c-13.784,0-25,11.216-25,25s11.216,25,25,25s25-11.216,25-25S38.612-0.174,24.826-0.174z M35.979,19.105
    c0.011,0.248,0.017,0.498,0.017,0.746c0,7.604-5.786,16.37-16.373,16.37c-3.249,0-6.274-0.95-8.82-2.583
    c0.451,0.053,0.908,0.081,1.373,0.081c2.696,0,5.177-0.921,7.146-2.463c-2.518-0.046-4.644-1.709-5.375-3.997
    c0.35,0.067,0.712,0.103,1.082,0.103c0.524,0,1.034-0.068,1.517-0.2c-2.632-0.528-4.615-2.853-4.615-5.643
    c0-0.023,0-0.049,0.001-0.072c0.775,0.43,1.662,0.689,2.605,0.719c-1.543-1.03-2.559-2.792-2.559-4.788
    c0-1.056,0.283-2.044,0.778-2.894c2.837,3.482,7.079,5.771,11.86,6.013c-0.098-0.422-0.147-0.86-0.147-1.312
    c0-3.178,2.575-5.755,5.753-5.755c1.655,0,3.149,0.699,4.2,1.817c1.312-0.258,2.54-0.736,3.655-1.397
    c-0.433,1.345-1.342,2.471-2.534,3.184c1.166-0.139,2.278-0.446,3.305-0.905C38.08,17.281,37.104,18.295,35.979,19.105z"/>
</svg>