<svg version="1.1" xmlns="http://www.w3.org/2000/svg" viewBox="-0.174 -0.174 50 50" fill="#fff"><path d="M24.825,29.831c2.758,0,5.006-2.244,5.006-5.004c0-1.09-0.356-2.096-0.946-2.917c-0.91-1.262-2.388-2.087-4.058-2.087c-1.671,0-3.148,0.825-4.06,2.085c-0.592,0.822-0.945,1.828-0.946,2.918C19.82,27.585,22.066,29.831,24.825,29.831z"/><polygon points="35.755,18.704 35.755,14.508 35.755,13.884 35.127,13.886 30.934,13.899 30.95,18.72"/><path d="M24.826-0.174c-13.784,0-25,11.216-25,25s11.216,25,25,25s25-11.216,25-25S38.612-0.174,24.826-0.174z M39.044,21.909V33.55c0,3.032-2.465,5.496-5.495,5.496H16.104c-3.031,0-5.496-2.464-5.496-5.496V21.909v-5.805c0-3.031,2.464-5.495,5.496-5.495h17.444c3.031,0,5.496,2.464,5.496,5.495V21.909L39.044,21.909z"/><path d="M32.603,24.826c0,4.287-3.488,7.777-7.777,7.777s-7.776-3.49-7.776-7.777c0-1.032,0.206-2.017,0.571-2.917h-4.244V33.55c0,1.505,1.221,2.723,2.725,2.723h17.444c1.502,0,2.725-1.218,2.725-2.723V21.909h-4.247C32.395,22.809,32.603,23.794,32.603,24.826z"/></svg>